<svg id="Calque_1" data-name="Calque 1" xmlns="http://www.w3.org/2000/svg" viewBox="0 0 800 800"><defs><style>.cls-1{fill:#a1c517;}.cls-2{fill:#fff;}</style></defs><title>RGPlan de travail 1</title><path class="cls-1" d="M114.64,226.65a7,7,0,1,0,7-7.37,7.2,7.2,0,0,0-7,7.37m-17-23.75a7,7,0,1,0,7-7.37,7.2,7.2,0,0,0-7,7.37m116.39-163a7,7,0,1,0-7,7.37,7.2,7.2,0,0,0,7-7.37m45.52,80a38.94,38.94,0,0,0-60.14-45.37A62.37,62.37,0,0,0,188,63.34a14.65,14.65,0,0,0,6.23-11.91c0-8.14-6.3-14.73-14.06-14.73s-14.06,6.59-14.06,14.73a14.48,14.48,0,0,0,.32,1.65,59.58,59.58,0,0,0-48.18,7.34,50.75,50.75,0,1,0-52.59,82.69,23.79,23.79,0,0,0-.15,11.26A6.63,6.63,0,0,0,61.68,153a7.38,7.38,0,0,0,0,14.73,7,7,0,0,0,6.75-5.9,22.82,22.82,0,0,0,41-2.43,62.15,62.15,0,0,0,14.68,9.85c-.05,0-.09,0-.14,0-7.77,0-14.06,6.6-14.06,14.73s6.3,14.73,14.06,14.73S138,192.14,138,184a14.68,14.68,0,0,0-5.75-11.57,61.69,61.69,0,0,0,17.56,3.05,32.63,32.63,0,0,0,60,11.95,42.05,42.05,0,1,0,49.76-67.54"/><path class="cls-2" d="M227.77,119.9a3.15,3.15,0,0,1-.18.66,4,4,0,0,1-1.49,2.09,6.05,6.05,0,0,1-.63.33,5.34,5.34,0,0,1-.75.27,4.44,4.44,0,0,1-1.61.3,4.19,4.19,0,0,1-1.61-.06l-.69-.21a2.5,2.5,0,0,1-.63-.27l-.6-.48a3.35,3.35,0,0,1-.54-.54,5.4,5.4,0,0,1-.45-.66,3.29,3.29,0,0,1-.33-.78,4.34,4.34,0,0,1-.27-.87q-.09-.45-.21-.93c0-.32-.07-.63-.09-.93a4.71,4.71,0,0,1,0-.93,11.3,11.3,0,0,1,.18-2,9.59,9.59,0,0,1,.54-1.91,2.35,2.35,0,0,1,.36-1,1.12,1.12,0,0,0,.09-.24,1.16,1.16,0,0,1,.09-.24l.18-.48.9-2q.48-1,1-1.94t1-1.94l1.61-3.22v.6c0,.44.07.89.09,1.34a9.87,9.87,0,0,0,.15,1.34q.12.66.27,1.31t.33,1.31l.45,1.25a10.18,10.18,0,0,0,.51,1.19,4.23,4.23,0,0,0,.3.6l.12.3.06.12.06.06v.06l.12.24.12.24a3.38,3.38,0,0,1,.18.42,10.09,10.09,0,0,1,.72,1.73,7.43,7.43,0,0,1,.54,1.67q.12.48.18.87c0,.26.08.55.12.87a5,5,0,0,1,0,1.55c0,.28-.08.54-.12.78m12.41-9.25-6.27,7.88c0-.08,0-.26,0-.54s0-.46,0-.54a23.26,23.26,0,0,0-.15-2.66,19.43,19.43,0,0,0-.45-2.48c-.08-.4-.18-.8-.3-1.19l-.36-1.19a2.29,2.29,0,0,1-.24-.54l-.18-.6-.06-.06v-.12l-.06-.24a.93.93,0,0,1-.12-.42,6.25,6.25,0,0,1-.18-.84l-.12-.84c0-.28-.07-.56-.09-.84a3.8,3.8,0,0,1,0-.83c0-.28,0-.55,0-.81s.05-.53.09-.81a6.08,6.08,0,0,1,.36-1.55,6.69,6.69,0,0,1,.54-1.49,1.77,1.77,0,0,0,.18-.33l.12-.33a.65.65,0,0,1,.09-.15.76.76,0,0,0,.09-.15s.06,0,.06-.12h.06V99a4.5,4.5,0,0,0,.48-3.49,4.41,4.41,0,0,0-2.09-2.78,4.46,4.46,0,0,0-6.27,1.61l-.06.06-.06.06-.06.12a.23.23,0,0,1,0,.15.13.13,0,0,0,0,.09l-.18.36a.91.91,0,0,0-.15.36.92.92,0,0,1-.15.36l-.18.54a.68.68,0,0,0-.24.36q-.48,1-1,1.94l-1,1.94q-.48,1-1,1.88l-1,1.88-2.15,3.76-1.07,1.91-.12.24-.12.12-.06.12-.12.27a2.64,2.64,0,0,1-.12.27,5.12,5.12,0,0,1-.27.48,3.36,3.36,0,0,0-.27.54l-.21.54-.21.54a3.72,3.72,0,0,0-.18.57,3.63,3.63,0,0,1-.18.57c-.08.4-.16.79-.24,1.16l-.24,1.16a6.17,6.17,0,0,0-.12,1.19v1.25q.06.6.12,1.19a7.61,7.61,0,0,0,.24,1.25,11.1,11.1,0,0,0,.42,1.25A11.68,11.68,0,0,0,216,124a9.27,9.27,0,0,0,.84,1.13,4,4,0,0,0,.48.51l.54.45a10.74,10.74,0,0,0,1.19.84,7,7,0,0,0,1.31.54,9,9,0,0,0,2.69.54,16.11,16.11,0,0,0,2.68-.12,11.93,11.93,0,0,0,1.34-.33,11.25,11.25,0,0,0,1.34-.51q.66-.36,1.28-.78a8,8,0,0,0,1.22-1A8.74,8.74,0,0,0,232.6,123l9.07-11.34a.72.72,0,0,0,.15-.66,1.09,1.09,0,0,0-.39-.6.87.87,0,0,0-1.25.24m-48.41-9.25a12.18,12.18,0,0,1,1-1,5.8,5.8,0,0,1,1.19-.89,6.58,6.58,0,0,1,2.63-1,3.69,3.69,0,0,1,1.31,0,6,6,0,0,0,.63.09,2.22,2.22,0,0,1,.63.15,3.41,3.41,0,0,1,1,.48,1.11,1.11,0,0,1,.36.27,3,3,0,0,0,.24.27,1,1,0,0,1,.18.48.59.59,0,0,1,.06.27,1,1,0,0,0,.06.33,1.85,1.85,0,0,0,0,.3,2.57,2.57,0,0,1,0,.42,3.14,3.14,0,0,0,0,.45,1.56,1.56,0,0,1,0,.51v.54a2.86,2.86,0,0,1-.06.54,2.68,2.68,0,0,1-.06.57l-.12.57a11,11,0,0,1-.3,1.16,4.52,4.52,0,0,1-.48,1,2.74,2.74,0,0,1-.54,1l-.27.39a2.65,2.65,0,0,1-.27.33.89.89,0,0,0-.15.18.32.32,0,0,1-.15.12l-.06.06-.06.06a.49.49,0,0,1-.12.09.47.47,0,0,0-.12.09l-.57.36-.57.36c-.4.2-.79.38-1.16.54a11.62,11.62,0,0,1-1.16.42,6.4,6.4,0,0,1-2.51.24,1.05,1.05,0,0,0-.33-.06,1,1,0,0,1-.33-.06.41.41,0,0,1-.18,0,.42.42,0,0,0-.18,0l-.15-.06-.15-.06a4.71,4.71,0,0,1-1.37-.54q-.66-.36-1.37-.84l-.06-.06a12.72,12.72,0,0,1,.6-2.74c.16-.48.33-1,.51-1.43a10.9,10.9,0,0,1,.63-1.37,13.48,13.48,0,0,1,1.73-2.51m24.89,12.8a11.51,11.51,0,0,0,.78-1c.08-.12.16-.23.24-.33s.16-.21.24-.33l.3-.36.12-.18.12-.18a.8.8,0,0,0-.12-1.13.84.84,0,0,0-1.25.06l-.3.3-.24.3a6,6,0,0,0-.6.54c-.2.2-.5.47-.89.81s-.7.61-.9.81l-.63.6q-.33.3-.63.54a5.11,5.11,0,0,1-.63.54l-.63.48q-1.25,1-2.6,1.91t-2.72,1.67L205,120q-.69.36-1.4.66t-1.43.54q-.72.24-1.43.42a17.4,17.4,0,0,1-2.86.36,3.63,3.63,0,0,1-1.31,0l-.63,0-.63,0-1.19-.21a5.51,5.51,0,0,1-1-.27,7.32,7.32,0,0,1-.87-.27,2.53,2.53,0,0,1-.69-.39c-.24-.16-.46-.32-.66-.48a3.25,3.25,0,0,1-.6-.66,5.64,5.64,0,0,1-1.07-1.79c-.16-.36-.31-.75-.45-1.16a9.3,9.3,0,0,1-.33-1.28c-.08-.44-.15-.89-.21-1.34a11.24,11.24,0,0,1-.09-1.46v-1a.17.17,0,0,1,.06.12.17.17,0,0,0,.06.12q.3.42.6.78l.6.72a2.8,2.8,0,0,0,.42.36,1.57,1.57,0,0,0,.36.3,3,3,0,0,0,.39.33,3.07,3.07,0,0,0,.45.27,8.47,8.47,0,0,0,1.91.9,4.83,4.83,0,0,0,.51.18l.51.12,1.07.18a13.18,13.18,0,0,0,4.12-.3,9.63,9.63,0,0,0,1.91-.54l.48-.18a.17.17,0,0,0,.12-.06l.18-.06a1,1,0,0,1,.3-.12c.4-.24.75-.48,1.07-.72a6.6,6.6,0,0,0,1.79-1.55,9.05,9.05,0,0,0,1.37-1.73,11,11,0,0,0,1.11-1.85,21.23,21.23,0,0,0,.81-2c.08-.32.17-.65.27-1s.19-.69.27-1a13.53,13.53,0,0,0,.18-2.21,17,17,0,0,0-.18-2.39,10.85,10.85,0,0,0-.84-2.39,7,7,0,0,0-1.67-2.27A7.48,7.48,0,0,0,204,94.06a5.65,5.65,0,0,0-1.28-.42c-.42-.08-.83-.14-1.22-.18a4.73,4.73,0,0,0-1.16-.09,6.67,6.67,0,0,0-1.1.15l-1,.24-1,.24q-1.07.42-1.85.78a15.25,15.25,0,0,0-1.7.93q-.81.51-1.58,1.1-.36.3-.72.57l-.72.57q-.3.3-.66.63a7,7,0,0,0-.66.69,15.18,15.18,0,0,0-1.19,1.34q-.54.69-1.07,1.4t-1,1.46a16.81,16.81,0,0,0-.9,1.58,28.21,28.21,0,0,0-2.8,6.8,18.24,18.24,0,0,0-.39,1.85q-.15,1-.21,2t0,2a10.32,10.32,0,0,0,.27,2,14.08,14.08,0,0,0,.54,2.15c.12.36.26.72.42,1.08a8.14,8.14,0,0,0,.54,1c.2.32.42.65.66,1s.5.67.78,1a10.46,10.46,0,0,0,1.85,1.67q.54.36,1.07.66a9.87,9.87,0,0,0,1.13.54,7.51,7.51,0,0,0,2.27.72,10,10,0,0,0,2.27.24h1.07a4.16,4.16,0,0,0,1-.12l1-.21q.51-.09,1-.21a8.88,8.88,0,0,0,1-.3l1-.36a21.16,21.16,0,0,0,3.4-1.73,26.46,26.46,0,0,0,3-2q.78-.54,1.46-1.07t1.34-1.13a32.6,32.6,0,0,0,2.57-2.36q1.19-1.22,2.33-2.48l1.07-1.31,1.07-1.31.84-1m-59.78,25.13q-.33.68-.69,1.34t-.78,1.28q-.36.63-.78,1.22t-.81,1.11a6.67,6.67,0,0,1-.87.93,3.59,3.59,0,0,0-.42.36,1.65,1.65,0,0,1-.42.3v.06h-.06L152,146a.24.24,0,0,1-.18.06l-.36.18a3.43,3.43,0,0,1-.78.12,3.27,3.27,0,0,1-.72-.06,2.08,2.08,0,0,1-.6-.3,1.78,1.78,0,0,1-.36-.3,1.72,1.72,0,0,0-.12-.21.49.49,0,0,1-.06-.27,2.73,2.73,0,0,1-.06-.72,2.1,2.1,0,0,0,.09-.42,2.33,2.33,0,0,1,.15-.54q.24-.6.48-1.07a2.53,2.53,0,0,0,.3-.54.74.74,0,0,1,.09-.15.62.62,0,0,0,.09-.15l.24-.24a1.06,1.06,0,0,1,.3-.48l.24-.24.24-.24,1-1a13.07,13.07,0,0,1,1.1-1q1.19-.89,2.57-1.85c.44-.32.87-.63,1.31-.93l1.31-.93a4.36,4.36,0,0,0,.42-.24,3.89,3.89,0,0,1,.42-.24,1.38,1.38,0,0,0-.18.39,1.41,1.41,0,0,1-.18.39,29.54,29.54,0,0,1-1.25,2.86q-.3.72-.63,1.4M165.4,138q.71-1.55,1.37-3.1t1.31-3.16q.3-.83.6-1.58t.6-1.58l.54-1.43q1.19-1,2.42-1.88t2.42-1.94q1.25-1.08,2.45-2.27.65-.6,1.22-1.19t1.16-1.25l1.07-1.31q.54-.66,1-1.37c.16-.24.36-.53.6-.87s.48-.7.72-1.07.48-.75.72-1.11a8.69,8.69,0,0,0,.54-.89.68.68,0,0,0-.24-1,.82.82,0,0,0-.6-.12.77.77,0,0,0-.48.3v.06q-.24.3-.84,1.13a10.11,10.11,0,0,1-.89,1.13,10,10,0,0,1-1,1.19,30.65,30.65,0,0,1-2.27,2.27q-.6.54-1.16,1.07a12.21,12.21,0,0,1-1.22,1l-1.31,1-1.31,1a5.55,5.55,0,0,1-.6.42,5.07,5.07,0,0,0-.6.42q.48-1.55.89-3t.9-3q.24-.83.45-1.64t.45-1.64c.08-.28.15-.55.21-.81s.13-.53.21-.81l.18-.84.18-.84a.05.05,0,0,0,.06-.06,4.07,4.07,0,0,0-.57-3.13,4,4,0,0,0-2.66-1.82,4.2,4.2,0,0,0-5,3l-.12.24-.06.24-.12.18-.18.42-.21.42-.21.42c-.12.28-.25.55-.39.81l-.45.81q-.48.84-.93,1.58l-.93,1.52a24.6,24.6,0,0,1-2.15,2.81l-.6.6-.6.6a5.22,5.22,0,0,1-.63.54c-.22.16-.43.3-.63.42l-.69.33-.63.27a.59.59,0,0,1-.27.06,1,1,0,0,0-.33.06h-.54a1.05,1.05,0,0,1-.48-.12.39.39,0,0,1-.3-.12.36.36,0,0,1-.24-.24.62.62,0,0,1-.24-.3,3.56,3.56,0,0,1-.3-1.07,2.2,2.2,0,0,1-.12-.72v-.72a14.61,14.61,0,0,1,.36-3.16q.18-.83.42-1.61t.54-1.61q.3-.77.66-1.55t.77-1.49q.42-.78.84-1.46t.9-1.34a14,14,0,0,1,2.09-2.39q.54-.48,1.1-.9a6,6,0,0,1,1.11-.66,6.36,6.36,0,0,1,1-.36,2.51,2.51,0,0,1,.9-.06,2.57,2.57,0,0,1,.42,0l.42.09a2.41,2.41,0,0,0,.39.21,2.25,2.25,0,0,1,.45.27,2.22,2.22,0,0,1,.45.3l.45.36.24.24.24.24.24.24.12.12.06.06.06.12.24.24a3.79,3.79,0,0,0,2.92,1.11,4.25,4.25,0,0,0,2.87-1.28,4.11,4.11,0,0,0-.24-5.79l-.24-.18-.18-.18a3.49,3.49,0,0,0-.48-.42l-.45-.36-.51-.42a11,11,0,0,0-1-.69c-.38-.22-.77-.43-1.16-.63a15.6,15.6,0,0,0-2.62-.9,14.34,14.34,0,0,0-2.92-.18,9.6,9.6,0,0,0-2.75.54l-1.25.57a7.59,7.59,0,0,0-1.13.63A9.18,9.18,0,0,0,158,95.43q-.9.84-1.61,1.61a21.57,21.57,0,0,0-2.57,3.58q-.48.89-1,1.82a17.67,17.67,0,0,0-.84,1.88,18.69,18.69,0,0,0-.72,1.91q-.3,1-.6,2t-.51,2q-.21,1-.33,2c0,.32-.07.66-.09,1s0,.72,0,1.07v1.07a10.07,10.07,0,0,0,.06,1.07,12.28,12.28,0,0,0,.42,2.33c.08.2.15.39.21.57s.13.37.21.57a5.85,5.85,0,0,0,.66,1.19,7,7,0,0,0,1,1.13,7.35,7.35,0,0,0,.63.45l.63.39.75.24a6.6,6.6,0,0,0,.69.18c.24,0,.48.07.72.09a2.87,2.87,0,0,0,.72,0h.3a.39.39,0,0,0,.18,0,.43.43,0,0,1,.18,0,2,2,0,0,0,.6-.12c.2-.08.4-.15.6-.21s.4-.13.6-.21a8.84,8.84,0,0,0,2-1.25,6.25,6.25,0,0,0,.84-.75q.36-.39.72-.75a13,13,0,0,0,1.25-1.67,7.42,7.42,0,0,0,.45-.63c.14-.22.27-.45.39-.69q-.18.66-.33,1.31a10.81,10.81,0,0,1-.39,1.31q-.78,3-1.79,6.15c-.08.28-.17.56-.27.84s-.19.56-.27.83l-2.68,1.43q-1.49.77-2.92,1.55-.72.42-1.46.81a15.07,15.07,0,0,0-1.46.87l-1.46.87a16.79,16.79,0,0,0-1.46,1l-.72.48a7.85,7.85,0,0,0-.72.54,10,10,0,0,0-1.49,1.25,2.3,2.3,0,0,0-.36.3l-.36.36-.33.42-.33.42h-.06l-.06.06-.06.12-.12.18a4,4,0,0,1-.3.42,2.12,2.12,0,0,1-.27.42,2.22,2.22,0,0,0-.27.42,14.29,14.29,0,0,0-1,1.91,10.12,10.12,0,0,0-.66,4.78,8.22,8.22,0,0,0,.36,1.31,5.47,5.47,0,0,0,.66,1.25,6.72,6.72,0,0,0,1.85,2.09,8.37,8.37,0,0,0,4.83,1.61,5.22,5.22,0,0,0,1.25,0l1.25-.21c.2-.08.4-.15.6-.21s.4-.13.6-.21a.53.53,0,0,1,.3-.15.53.53,0,0,0,.3-.15.17.17,0,0,1,.12-.06.46.46,0,0,0,.18-.06l.12-.12.12-.06c.32-.2.63-.41.93-.63l.87-.63q.42-.36.78-.72l.72-.72q.3-.36.63-.72a8.4,8.4,0,0,0,.63-.78c.4-.48.77-1,1.11-1.46s.67-1,1-1.52.62-1,.89-1.52l.84-1.52q.83-1.55,1.55-3.1M137.88,119.9a3.15,3.15,0,0,1-.18.66,4,4,0,0,1-1.49,2.09,6.05,6.05,0,0,1-.63.33,5.34,5.34,0,0,1-.75.27,4.44,4.44,0,0,1-1.61.3,4.19,4.19,0,0,1-1.61-.06l-.69-.21a2.45,2.45,0,0,1-.63-.27l-.6-.48a3.36,3.36,0,0,1-.54-.54,5.39,5.39,0,0,1-.45-.66,3.36,3.36,0,0,1-.33-.78,4.44,4.44,0,0,1-.27-.87c-.06-.3-.13-.61-.21-.93s-.07-.63-.09-.93a4.71,4.71,0,0,1,0-.93,11.45,11.45,0,0,1,.18-2,9.69,9.69,0,0,1,.54-1.91,2.33,2.33,0,0,1,.36-1,1.21,1.21,0,0,0,.09-.24,1.16,1.16,0,0,1,.09-.24l.18-.48.9-2q.47-1,1-1.94t1-1.94l1.61-3.22v.6c0,.44.07.89.09,1.34a9.87,9.87,0,0,0,.15,1.34q.12.66.27,1.31c.1.44.21.88.33,1.31l.45,1.25a9.93,9.93,0,0,0,.51,1.19,4.23,4.23,0,0,0,.3.6l.12.3.06.12.06.06v.06l.12.24.12.24a3.59,3.59,0,0,1,.18.42,9.85,9.85,0,0,1,.72,1.73,7.43,7.43,0,0,1,.54,1.67c.08.32.14.61.18.87s.08.55.12.87a5,5,0,0,1,0,1.55c0,.28-.08.54-.12.78m12.42-9.25L144,118.53c0-.08,0-.26,0-.54s0-.46,0-.54a22.92,22.92,0,0,0-.15-2.66,19.71,19.71,0,0,0-.45-2.48c-.08-.4-.18-.8-.3-1.19l-.36-1.19a2.29,2.29,0,0,1-.24-.54l-.18-.6-.06-.06v-.12l-.06-.24a1,1,0,0,1-.12-.42,6.25,6.25,0,0,1-.18-.84l-.12-.84c0-.28-.07-.56-.09-.84a3.9,3.9,0,0,1,0-.83c0-.28,0-.55,0-.81s0-.53.09-.81a6.21,6.21,0,0,1,.36-1.55,6.77,6.77,0,0,1,.54-1.49,1.76,1.76,0,0,0,.18-.33c0-.1.08-.21.12-.33a.73.73,0,0,1,.09-.15.67.67,0,0,0,.09-.15s.06,0,.06-.12h.06V99a4.5,4.5,0,0,0,.48-3.49,4.42,4.42,0,0,0-2.09-2.78,4.46,4.46,0,0,0-6.27,1.61l-.06.06-.06.06-.06.12c0,.08,0,.13,0,.15a.13.13,0,0,0,0,.09l-.18.36a.91.91,0,0,0-.15.36,1,1,0,0,1-.15.36l-.18.54a.68.68,0,0,0-.24.36q-.48,1-1,1.94l-1,1.94q-.48,1-1,1.88l-1,1.88-2.15,3.76-1.07,1.91-.12.24-.12.12-.06.12-.12.27c0,.1-.08.19-.12.27a5.14,5.14,0,0,1-.27.48,3.49,3.49,0,0,0-.27.54l-.21.54-.21.54a3.74,3.74,0,0,0-.18.57,3.46,3.46,0,0,1-.18.57c-.08.4-.16.79-.24,1.16l-.24,1.16a6.17,6.17,0,0,0-.12,1.19v1.25q.06.6.12,1.19a7.77,7.77,0,0,0,.24,1.25,11,11,0,0,0,1,2.51,9.43,9.43,0,0,0,.83,1.13,4,4,0,0,0,.48.51l.54.45a10.87,10.87,0,0,0,1.19.84,7,7,0,0,0,1.31.54,9,9,0,0,0,2.68.54,16.12,16.12,0,0,0,2.69-.12,11.93,11.93,0,0,0,1.34-.33,11.35,11.35,0,0,0,1.34-.51q.65-.36,1.28-.78a8,8,0,0,0,1.22-1,8.74,8.74,0,0,0,1.67-2.27l9.07-11.34a.72.72,0,0,0,.15-.66,1.09,1.09,0,0,0-.39-.6.87.87,0,0,0-1.25.24m-38.17,9.55-.69.6a18.44,18.44,0,0,1-2.8,1.79,8.87,8.87,0,0,1-2.92.9l-.36,0a2,2,0,0,1-.36,0h-1.07a.66.66,0,0,0-.3-.06,2,2,0,0,1-.66-.12,4.83,4.83,0,0,1-1-.42,1.47,1.47,0,0,1-.39-.27l-.33-.33c-.08-.12-.16-.25-.24-.39s-.16-.29-.24-.45a5.18,5.18,0,0,1-.3-1.19,9.61,9.61,0,0,1-.06-2.86,13.65,13.65,0,0,1,.21-1.61q.15-.77.33-1.61a28.19,28.19,0,0,1,2.51-6.21,21.52,21.52,0,0,1,1.79-2.86.48.48,0,0,0,.09-.12.43.43,0,0,1,.09-.12v.72a12.13,12.13,0,0,0,.24,2.51,13.56,13.56,0,0,0,.72,2.39c.08.2.17.4.27.6s.19.4.27.6a.5.5,0,0,1,.09.12.47.47,0,0,0,.09.12v.12h.06l.06.18a3.38,3.38,0,0,0,.36.48,15.8,15.8,0,0,0,3.22,3.7q.48.36,1,.69c.36.22.74.43,1.13.63a4.09,4.09,0,0,1,.51.24,4,4,0,0,0,.51.24s0,.06-.06.06a12.37,12.37,0,0,1-1.13,1.31l-.63.6m5-21.85a.44.44,0,0,1,.18,0,.25.25,0,0,0,.12,0,.35.35,0,0,1,.3.18,1.74,1.74,0,0,1,.36.3,3.24,3.24,0,0,1,.6,1.13,4.89,4.89,0,0,1,.36,1.49,16.7,16.7,0,0,1,.15,1.7c0,.58,0,1.16,0,1.76l-.24,1.79a12.28,12.28,0,0,1-.36,1.73c-.16.6-.33,1.18-.51,1.76s-.37,1.14-.57,1.7c-.12.32-.25.63-.39.93s-.27.61-.39.93a1.32,1.32,0,0,1-.3-.18,3.39,3.39,0,0,1-.48-.42l-.45-.54a3.71,3.71,0,0,1-.39-.54,11.08,11.08,0,0,1-1.13-2.57.44.44,0,0,1-.06-.18.49.49,0,0,0-.06-.18v-.12s-.06,0-.06-.06v-.18a2,2,0,0,1-.12-.6,2.16,2.16,0,0,1-.12-.69,3.31,3.31,0,0,0-.06-.63c0-.24,0-.47,0-.69a2.17,2.17,0,0,1,0-.63c0-.2,0-.42,0-.66a5.83,5.83,0,0,1,.09-.66,11.86,11.86,0,0,1,.18-1.25c.08-.4.16-.81.24-1.25a4,4,0,0,1,.36-1.25c0-.08.08-.17.12-.27s.08-.19.12-.27a3.48,3.48,0,0,1,.36-.48,2.12,2.12,0,0,1,1.73-1.13,1.32,1.32,0,0,1,.42-.06m12.06,12.92.6-.81a.85.85,0,0,0-.18-1.19.81.81,0,0,0-.66-.27,1.06,1.06,0,0,0-.66.33l-.63.66a7,7,0,0,1-.69.66l-.69.6-.69.6q-.72.54-1.46,1a12.74,12.74,0,0,1-1.52.84l-.81.33-.75.27a2.14,2.14,0,0,1-.6.15l-.6.09a7,7,0,0,1,.27-.69,7.26,7.26,0,0,0,.27-.69q.42-1,.72-1.88t.6-1.94a36.07,36.07,0,0,0,.9-3.94q.18-1,.27-2.06a15.44,15.44,0,0,0,0-2.12,10.24,10.24,0,0,0-.06-1.13q-.06-.54-.18-1.13a9.48,9.48,0,0,0-.33-1.19,6.61,6.61,0,0,0-.57-1.19,10.83,10.83,0,0,0-.84-1.19,7.47,7.47,0,0,0-1.25-1,8,8,0,0,0-1.43-.66,4.21,4.21,0,0,0-.78-.15c-.24,0-.48,0-.72-.09a11.66,11.66,0,0,0-2.15.18A4.76,4.76,0,0,0,112.84,92a4.57,4.57,0,0,0-2.42-.54h-.18c-.08,0-.13,0-.15,0a.13.13,0,0,1-.09,0h-.48l-.9.18-.81.21a3.34,3.34,0,0,0-.75.27,10.28,10.28,0,0,0-2.63,1.37,15.21,15.21,0,0,0-2,1.67q-.48.42-.9.84a8.31,8.31,0,0,0-.77.9q-.78,1-1.4,1.85a18,18,0,0,0-1.16,1.91,31.38,31.38,0,0,0-1.91,3.88q-.84,2-1.43,4-.3,1-.54,2.06t-.42,2.12a26.9,26.9,0,0,0-.36,4.42q.06.6.06,1.16a5.9,5.9,0,0,0,.12,1.16,13.26,13.26,0,0,0,.54,2.39,9.66,9.66,0,0,0,.42,1.22,13,13,0,0,0,.6,1.22A7.75,7.75,0,0,0,97,126.59a12.68,12.68,0,0,0,1.13.89,7.84,7.84,0,0,0,1.25.72,10.79,10.79,0,0,0,2.63.72,4.17,4.17,0,0,0,.69.06,3.19,3.19,0,0,1,.63.06,2.59,2.59,0,0,0,.6-.06h.6a5.73,5.73,0,0,1,.6-.09l.6-.09.57-.09a2.19,2.19,0,0,0,.57-.15,4.62,4.62,0,0,0,1.13-.42l.54-.21.54-.21c.36-.2.7-.4,1-.6l1-.6q.9-.66,1.7-1.37a15.79,15.79,0,0,0,1.52-1.55,26.22,26.22,0,0,0,2.45-3.28l.9-1.43h.3a7.53,7.53,0,0,0,2.39-.36,8,8,0,0,0,2.15-.84c.36-.2.69-.4,1-.6l.87-.6a15.92,15.92,0,0,0,1.64-1.37,19.7,19.7,0,0,0,1.4-1.49,10.19,10.19,0,0,0,1.25-1.55l.6-.81m-55.87-9.4c0-.4.07-.78.09-1.13s0-.73.09-1.13q.3-2.27.75-4.54t1.1-4.48q.3-1.13.69-2.21t.81-2.15Q77.66,84,78.61,82a19.88,19.88,0,0,1,1-2.09c.16-.32.32-.65.48-1s.34-.69.54-1,.39-.64.57-1,.37-.63.57-1a12.68,12.68,0,0,1,1.19-1.91q.66-.89,1.4-1.73a16.73,16.73,0,0,1,1.58-1.55,11.9,11.9,0,0,1,3.7-2.21,5.39,5.39,0,0,1,1-.27q.54-.09,1.07-.21h.54a1.81,1.81,0,0,1,.54-.06,4.68,4.68,0,0,1,.54,0,4,4,0,0,0,.54,0,4,4,0,0,1,1.67.66,1.3,1.3,0,0,1,.3.27l.24.33a1.88,1.88,0,0,1,.24.78,5.76,5.76,0,0,1,0,2c-.08.36-.17.72-.27,1.07a7.92,7.92,0,0,1-.39,1.07,31.65,31.65,0,0,1-2,4.24q-.66,1-1.28,2t-1.28,2q-.66,1-1.37,2t-1.43,2q-1.43,1.91-3,3.79t-3.1,3.79Q80.7,96,79,97.88q-.84.9-1.64,1.82t-1.64,1.82q-.66.66-1.22,1.31t-1.22,1.31v-2.27ZM69.39,86.24q-.39,1.25-.69,2.51a37.05,37.05,0,0,0-1.07,5.13q-.24,1.25-.36,2.57a9.89,9.89,0,0,0-.15,1.34c0,.46-.05.91-.09,1.34s0,.88,0,1.31,0,.88,0,1.31.06.89.06,1.34a7.31,7.31,0,0,0,.12,1.34c0,.24,0,.47,0,.69s0,.45.09.69a6.19,6.19,0,0,1,.09.66,2.16,2.16,0,0,0,.15.66l.12.72c0,.24.08.46.12.66a2.17,2.17,0,0,1,.15.57,2.16,2.16,0,0,0,.15.57q-1.49,1.55-3,3l-3,3a2.66,2.66,0,0,0-.42.39,2.52,2.52,0,0,1-.42.39c-.08-.91-.15-1.81-.21-2.68s-.13-1.77-.21-2.69q-.3-3.58-.54-7t-.48-7q-.24-3.58-.39-7t-.27-7q-.18-3.46-.18-7Q59,75,59,74.09V70.57q0-.86.06-1.76a2.15,2.15,0,0,0,0-.36,1.85,1.85,0,0,1,0-.3,4.16,4.16,0,0,0-1.61-2.81,3.78,3.78,0,0,0-3.1-.78,4.34,4.34,0,0,0-1.61.54,4.06,4.06,0,0,0-1.19,1,4,4,0,0,0-.69,1.43,4.38,4.38,0,0,0-.09,1.7q.12.84.21,1.73t.21,1.79q.12.84.18,1.73c0,.6.1,1.17.18,1.73q.18,1.73.36,3.52t.3,3.52q.3,3.52.51,7t.39,7q.18,3.58.36,7t.3,7q.06,1.73.09,3.49t.09,3.55q0,1.73,0,3.49t0,3.55a4,4,0,0,0,3.88,4.09,3.61,3.61,0,0,0,2.86-1.11l.42-.3.84-1,.78-1,1.61-1.91q.84-1,1.61-1.88l1.61-1.94q1-1.13,1.94-2.27T71.33,116a12.91,12.91,0,0,0,1.49,1.37,8.6,8.6,0,0,0,2.8,1.61,12.48,12.48,0,0,0,3,.6,10,10,0,0,0,2.92-.18,13.85,13.85,0,0,0,2.69-.72c.44-.2.85-.38,1.25-.54s.8-.34,1.19-.54a31.59,31.59,0,0,0,4.42-2.74l2-1.61.48-.39.48-.45a4.12,4.12,0,0,0,.45-.39l.45-.45a.66.66,0,0,0,.12-.84.55.55,0,0,0-.39-.3.74.74,0,0,0-.51.06q-.54.3-1.07.57l-1.08.57q-.54.3-1.07.57l-1.07.57-2.21.93q-1.07.45-2.21.81a15.23,15.23,0,0,1-4.36.83h-1a4,4,0,0,1-1-.12q-.48-.12-.9-.27a7.1,7.1,0,0,1-.78-.33,4.55,4.55,0,0,1-1.37-1A4.82,4.82,0,0,1,75,112.2l-.12-.24-.12-.24L80,105.1l1.52-2q.74-1,1.46-2t1.49-2l1.43-2q1.49-2,2.86-4.09T91.5,88.8q.66-1.07,1.28-2.15l1.28-2.21Q95.32,82.3,96.4,80c.2-.4.38-.79.54-1.16l.48-1.16q.3-.66.51-1.25c.14-.4.27-.81.39-1.25a20.4,20.4,0,0,0,.54-2.62,3.47,3.47,0,0,0,.06-.66v-.72a6.11,6.11,0,0,0-.18-1.49,6.19,6.19,0,0,0-.6-1.55,4.89,4.89,0,0,0-1-1.25,7.09,7.09,0,0,0-.69-.51,3.24,3.24,0,0,0-.69-.33,3.45,3.45,0,0,0-.72-.27l-.72-.21a3,3,0,0,0-.72-.15,5.79,5.79,0,0,1-.66-.09,2.16,2.16,0,0,1-.36,0,2.16,2.16,0,0,0-.36,0h-.66a6.56,6.56,0,0,0-1.4,0l-1.4.21a15.8,15.8,0,0,0-2.68.72,17.7,17.7,0,0,0-2.51,1.13,18.74,18.74,0,0,0-2.36,1.46,22,22,0,0,0-2.12,1.76l-1,.93q-.48.45-1,.93a20.83,20.83,0,0,0-1.73,2.09,21.35,21.35,0,0,0-1.55,2.15q-.71,1.13-1.37,2.33a37.18,37.18,0,0,0-2.21,4.78q-.48,1.25-.87,2.51"/><path class="cls-2" d="M261.95,146.59a3.65,3.65,0,0,0,0-5.18,3.65,3.65,0,1,0,0,5.18m-13.58,28.17a3.92,3.92,0,0,0,.23.79,3.65,3.65,0,0,0,.37.83,3.27,3.27,0,0,0,.58.83,4.21,4.21,0,0,0,.83.7,2,2,0,0,0,.52.25l.52.17a2.88,2.88,0,0,0,1,.17,2,2,0,0,0,.46,0h.21l.12,0h.12a4,4,0,0,0,.91-.29,2.42,2.42,0,0,0,.37-.19l.33-.19a9.09,9.09,0,0,0,1.12-.83q.25-.21.5-.46L257,176a4.4,4.4,0,0,0,.39-.46l.39-.5c.25-.3.49-.61.73-.93s.46-.64.68-1,.43-.66.64-1,.42-.66.64-1l.75-1.28q.46-.79.75-1.33a5.09,5.09,0,0,0,.54-1l.25-.5a1.67,1.67,0,0,0,.15-.27,1.66,1.66,0,0,1,.14-.27.65.65,0,0,0-.73-.93.76.76,0,0,0-.43.27,1.36,1.36,0,0,0-.17.21l-.17.25-.33.46a2.55,2.55,0,0,0-.35.43,2.55,2.55,0,0,1-.35.43q-.33.46-.89,1.16t-.89,1.16q-.37.46-.75.85l-.75.81q-.79.83-1.53,1.53a4.76,4.76,0,0,1-.41.37l-.41.33a6.46,6.46,0,0,1-.79.58,5.36,5.36,0,0,1-.75.41,1.3,1.3,0,0,1-.33.08.45.45,0,0,1-.21,0h0s0,0,0,0,0,0,0,0h-.08a.17.17,0,0,1-.1,0l-.06,0v-.08a.37.37,0,0,0,0-.16.19.19,0,0,0,0-.08.29.29,0,0,1,0-.12,1.46,1.46,0,0,1,0-.35,2,2,0,0,0,0-.39c0-.14,0-.28,0-.43s0-.31,0-.48a4.06,4.06,0,0,0,.06-.46c0-.17,0-.33.06-.5q.08-.5.19-1a8.37,8.37,0,0,1,.27-1l.25-1.06q.12-.52.29-1c.14-.36.26-.71.35-1.06a8.63,8.63,0,0,1,.35-1q.21-.54.37-1.06c.11-.34.23-.68.37-1s.27-.71.39-1.06.26-.68.39-1,.28-.71.43-1,.3-.68.43-1c.06-.17.12-.33.19-.5s.14-.33.23-.5l.21-.5.21-.5h0a.17.17,0,0,1,0-.12,2.65,2.65,0,0,0,0-2.2,2.94,2.94,0,0,0-1.62-1.53,2.76,2.76,0,0,0-2.22,0,2.85,2.85,0,0,0-1.56,1.6,1.05,1.05,0,0,0-.1.29,1.12,1.12,0,0,1-.1.29l-.21.54-.37,1.12-.75,2.24q-.17.58-.33,1.12t-.33,1.12c-.11.39-.22.77-.31,1.14s-.19.75-.27,1.14-.21.78-.29,1.18l-.25,1.18q-.08.58-.19,1.18c-.07.4-.13.8-.19,1.18a19.21,19.21,0,0,0-.25,2.49v1.28a5.5,5.5,0,0,1,0,.68,3.34,3.34,0,0,0,.08.73c.06.22.1.46.14.7m-9.91-2.11-.48.41A12.92,12.92,0,0,1,236,174.3a6.17,6.17,0,0,1-2,.62l-.25,0-.25,0h-.75a.48.48,0,0,0-.21,0,1.41,1.41,0,0,1-.46-.08,3.34,3.34,0,0,1-.7-.29,1,1,0,0,1-.27-.19l-.23-.23-.17-.27-.17-.31a3.6,3.6,0,0,1-.21-.83,6.66,6.66,0,0,1,0-2,9.49,9.49,0,0,1,.15-1.12c.07-.36.14-.73.23-1.12a19.58,19.58,0,0,1,1.74-4.31,14.87,14.87,0,0,1,1.24-2l.06-.08a.29.29,0,0,1,.06-.08v.5a8.45,8.45,0,0,0,.17,1.74,9.41,9.41,0,0,0,.5,1.66c.05.14.12.28.19.41s.13.28.19.41l.06.08a.29.29,0,0,0,.06.08V167h0l0,.12a2.47,2.47,0,0,0,.25.33,10.94,10.94,0,0,0,2.24,2.57q.33.25.7.48t.79.43l.35.17.35.17a0,0,0,0,1,0,0,8.47,8.47,0,0,1-.79.91l-.43.41m3.46-15.17.12,0,.08,0a.25.25,0,0,1,.21.12,1.39,1.39,0,0,1,.25.21,2.25,2.25,0,0,1,.41.79,3.35,3.35,0,0,1,.25,1,11.45,11.45,0,0,1,.1,1.18c0,.4,0,.81,0,1.22l-.17,1.24a8.41,8.41,0,0,1-.25,1.2q-.17.62-.35,1.22t-.39,1.18c-.08.22-.17.44-.27.64s-.19.42-.27.64a1,1,0,0,1-.21-.12,2.43,2.43,0,0,1-.33-.29l-.31-.37a2.42,2.42,0,0,1-.27-.37,7.64,7.64,0,0,1-.79-1.78.32.32,0,0,1,0-.12.32.32,0,0,0,0-.12v-.08a0,0,0,0,1,0,0v-.12a1.37,1.37,0,0,1-.08-.41,1.5,1.5,0,0,1-.08-.48,2.33,2.33,0,0,0,0-.43c0-.17,0-.32,0-.48a1.46,1.46,0,0,1,0-.43c0-.14,0-.29,0-.45a4.06,4.06,0,0,1,.06-.46,8.25,8.25,0,0,1,.12-.87q.08-.41.17-.87A2.78,2.78,0,0,1,240,159l.08-.19.08-.19a2.47,2.47,0,0,1,.25-.33,1.47,1.47,0,0,1,1.2-.79,1,1,0,0,1,.29,0m8.37,9,.41-.56a.59.59,0,0,0-.12-.83.56.56,0,0,0-.45-.19.73.73,0,0,0-.46.23l-.43.45a5.1,5.1,0,0,1-.48.46l-.48.41-.48.41q-.5.37-1,.7a8.81,8.81,0,0,1-1.06.58l-.56.23-.52.19a1.47,1.47,0,0,1-.41.1l-.41.06a4.87,4.87,0,0,1,.19-.48,4.72,4.72,0,0,0,.19-.48,13.78,13.78,0,0,0,.5-1.31q.21-.64.41-1.35a24.56,24.56,0,0,0,.62-2.74q.12-.7.19-1.43a10.43,10.43,0,0,0,0-1.47,7.14,7.14,0,0,0,0-.79q0-.37-.12-.79a6.22,6.22,0,0,0-.23-.83,4.51,4.51,0,0,0-.39-.83,7.69,7.69,0,0,0-.58-.83,5.18,5.18,0,0,0-.87-.71,5.61,5.61,0,0,0-1-.45,2.82,2.82,0,0,0-.54-.1l-.5-.06a8.12,8.12,0,0,0-1.49.12,3.29,3.29,0,0,0-1.22-1.12,3.17,3.17,0,0,0-1.68-.37h-.12c-.06,0-.09,0-.1,0l-.06,0h-.33l-.62.12-.56.15a2.3,2.3,0,0,0-.52.19,7.1,7.1,0,0,0-1.82,1,10.54,10.54,0,0,0-1.41,1.16q-.33.29-.62.58a6,6,0,0,0-.54.62q-.54.66-1,1.28a12.69,12.69,0,0,0-.81,1.33,22,22,0,0,0-1.33,2.7q-.58,1.41-1,2.78-.21.71-.37,1.43t-.29,1.47a18.61,18.61,0,0,0-.25,3.07c0,.28,0,.55,0,.81a4.1,4.1,0,0,0,.08.81,9.15,9.15,0,0,0,.37,1.66,6.79,6.79,0,0,0,.29.85,9,9,0,0,0,.41.85,5.34,5.34,0,0,0,1.2,1.53,8.64,8.64,0,0,0,.79.62,5.56,5.56,0,0,0,.87.5,7.45,7.45,0,0,0,1.82.5,2.88,2.88,0,0,0,.48,0,2.22,2.22,0,0,1,.43,0,1.75,1.75,0,0,0,.41,0h.41l.41-.06.41-.06.39-.06a1.58,1.58,0,0,0,.39-.1,3.17,3.17,0,0,0,.79-.29L236,178l.37-.14.71-.41.66-.41c.41-.3.81-.62,1.18-1a11.14,11.14,0,0,0,1.06-1.08,18.08,18.08,0,0,0,1.7-2.28l.62-1h.21a5.27,5.27,0,0,0,1.66-.25,5.57,5.57,0,0,0,1.49-.58c.25-.14.48-.28.68-.41l.6-.41a11.37,11.37,0,0,0,1.14-1,14,14,0,0,0,1-1,7,7,0,0,0,.87-1.08l.41-.56M204.62,158s0,0,0,0Zm20.19,12.81.5-.83c.17-.28.33-.57.5-.87a6,6,0,0,1,.41-.75l.46-.75.21-.41a.64.64,0,0,0,.1-.25.36.36,0,0,1,.1-.21.53.53,0,0,0-.87-.58l-.33.37-.29.37-.52.66a7.44,7.44,0,0,1-.56.66c-.22.22-.43.45-.64.7s-.42.48-.64.71q-.66.71-1.33,1.37t-1.37,1.28l-.33.31-.37.31a1.81,1.81,0,0,0-.35.27,1.86,1.86,0,0,1-.35.27,3.94,3.94,0,0,0-.37.25l-.33.25a2.49,2.49,0,0,0-.37.19,2.4,2.4,0,0,1-.37.19,1.93,1.93,0,0,1-.54.25.09.09,0,0,1,0-.06.08.08,0,0,0,0-.06l.08-.35a2.4,2.4,0,0,1,.12-.39c.06-.14.1-.27.14-.39s.09-.26.15-.39l.16-.41.17-.41c.06-.14.12-.28.19-.41s.13-.28.19-.41.27-.55.39-.83l.39-.87q.41-.83.83-1.7c.28-.58.57-1.17.87-1.78l.41-.91.41-.91q.21-.46.39-.93c.12-.32.26-.64.39-1s.26-.71.37-1.06.22-.71.33-1.1a5.82,5.82,0,0,0,.12-.64l.08-.64a1.92,1.92,0,0,0,0-.37,1.92,1.92,0,0,1,0-.37v-.41a2.78,2.78,0,0,0,0-.45,4.23,4.23,0,0,0-.21-1.12l-.08-.33a2.94,2.94,0,0,0-.12-.37,2.49,2.49,0,0,0-.19-.37,4.06,4.06,0,0,0-.27-.37,4.83,4.83,0,0,0-.62-.75,7.55,7.55,0,0,0-.83-.58,4.62,4.62,0,0,0-.87-.37,1.53,1.53,0,0,0-.37-.1l-.37-.06a.82.82,0,0,1-.33,0h-.58a.56.56,0,0,1-.25,0l-.5.06a1.58,1.58,0,0,0-.45.1,3.8,3.8,0,0,0-.83.25,5.56,5.56,0,0,0-.7.37,7.8,7.8,0,0,0-1.2.83,5.31,5.31,0,0,0-.48.46l-.43.46a13.43,13.43,0,0,0-1.33,1.95,2.31,2.31,0,0,0-.15.25.75.75,0,0,1-.14.21l-.25.5-.25.48-.25.48-.5.91-.5.91a8.65,8.65,0,0,1-.46.87,8.94,8.94,0,0,0-.45.87.34.34,0,0,0,0-.21c.06-.25.1-.5.14-.75s.09-.51.15-.79a4.82,4.82,0,0,0,.1-.77c0-.26,0-.55.06-.85,0-.14,0-.28,0-.43s0-.3,0-.43v-.5a3,3,0,0,0,0-.5c0-.16-.06-.34-.08-.54s-.07-.4-.12-.62a6.5,6.5,0,0,0-.66-1.41,4.53,4.53,0,0,0-.33-.37l-.37-.37a2.61,2.61,0,0,0-1-.58,4.45,4.45,0,0,0-1-.29h-.91a3.62,3.62,0,0,0-.83.21,2.5,2.5,0,0,0-.66.29l-.52.37a3.79,3.79,0,0,0-.43.37l-.17.19-.17.23a2.53,2.53,0,0,0-.29.37l-.58.7-.25.33a.65.65,0,0,0-.12.17.65.65,0,0,1-.12.17,2.18,2.18,0,0,1-.21.33,2.25,2.25,0,0,0-.21.33q-.46.71-.79,1.33c-.14.22-.26.44-.37.66l-.33.66q-.33.71-.62,1.35t-.58,1.35a6.91,6.91,0,0,0-.29.66l-.25.66q-.29.62-.54,1.33l1.7-9.24a2,2,0,0,0-.29-1.41,1.94,1.94,0,0,0-1.12-.87,2,2,0,0,0-1.53.19,1.83,1.83,0,0,0-.91,1.18l-5.47,19.86a.47.47,0,0,1,0,.15.46.46,0,0,0,0,.14,2.87,2.87,0,0,0,.45,2.18,2.73,2.73,0,0,0,1.87,1.18,2.93,2.93,0,0,0,2.2-.46,2.7,2.7,0,0,0,1.2-1.87l0-.25v0l.25-.66.25-.64q.12-.31.29-.64c.08-.22.17-.44.27-.66s.19-.44.27-.66c.17-.41.36-.84.58-1.29q.58-1.28,1.18-2.55t1.22-2.51q.21-.33.35-.62l.31-.62a4.39,4.39,0,0,0,.35-.58q.15-.29.35-.62.33-.58.71-1.16l.75-1.16.39-.56c.12-.18.26-.35.39-.52l.41-.52a4.68,4.68,0,0,1,.41-.48,2.37,2.37,0,0,1,.41-.46.54.54,0,0,0,.1-.12,1.68,1.68,0,0,0,.27-.25v.29a5.94,5.94,0,0,1-.12,1.16l-.08.64-.08.64c-.08.44-.17.88-.27,1.3s-.2.87-.31,1.31q-.33,1.33-.7,2.63t-.83,2.63l-.87,2.61-.25.66-.25.66-.21.66-.12.29-.12.33v0a2.37,2.37,0,0,0,0,1.87,2.32,2.32,0,0,0,1.35,1.28,2.29,2.29,0,0,0,1.91,0,2.39,2.39,0,0,0,1.33-1.37l.12-.33.12-.37.29-.66a.32.32,0,0,0,0-.12.33.33,0,0,1,0-.12,3.28,3.28,0,0,0,.15-.33,3.45,3.45,0,0,1,.14-.33l.41-.89.41-.89q.46-.83.91-1.7t1-1.7l1-1.62c.17-.28.34-.55.52-.81s.35-.53.52-.81l1.14-1.55c.37-.51.77-1,1.18-1.47.19-.22.4-.44.62-.66l.66-.66a4.54,4.54,0,0,1,.7-.58,2.63,2.63,0,0,1,.37-.29l.37-.25a4.79,4.79,0,0,1,.45-.25l0,.12q-.12.46-.25.89l-.25.89q-.12.46-.27.89c-.1.29-.19.59-.27.89l-.58,1.89-.58,1.89a9.71,9.71,0,0,0-.29,1l-.25,1c-.06.17-.1.33-.14.5s-.08.33-.1.5a3.18,3.18,0,0,0-.12.52,3.26,3.26,0,0,1-.12.52,2.75,2.75,0,0,0-.1.56,2.93,2.93,0,0,1-.1.56c0,.19,0,.38-.06.56s0,.38-.06.6v1a1.92,1.92,0,0,0,0,.37c0,.14,0,.28.06.41a2,2,0,0,0,.1.46,3.2,3.2,0,0,0,.45,1,1.11,1.11,0,0,0,.21.29,1.65,1.65,0,0,1,.21.25,2.13,2.13,0,0,0,.27.23,2.32,2.32,0,0,0,.31.19,3.05,3.05,0,0,0,.58.33l.31.08a1,1,0,0,0,.27,0,.78.78,0,0,0,.25,0,.78.78,0,0,1,.25,0h.25l.12,0h.29l.12,0,.08,0a1.37,1.37,0,0,0,.41-.08,3.31,3.31,0,0,0,.68-.23c.21-.1.41-.2.6-.31l.56-.31a2,2,0,0,0,.48-.35,8.65,8.65,0,0,0,.87-.73l.79-.77.33-.39.33-.39a3,3,0,0,0,.35-.41l.31-.41a7.55,7.55,0,0,0,.58-.83,7.39,7.39,0,0,0,.58-.83,17.45,17.45,0,0,0,1.08-1.7"/><path class="cls-2" d="M168.18,148.44a.62.62,0,0,0,0,.5.56.56,0,0,0,.37.39,1,1,0,0,0,.62,0l13.27-5L183,144a2.51,2.51,0,0,0,1.12-1.72,2.44,2.44,0,0,0-.5-1.93,2.3,2.3,0,0,0-1.62-1,2.75,2.75,0,0,0-2,.45L168.47,148a.87.87,0,0,0-.29.41m2.61,10.74a8.47,8.47,0,0,1,.71-.7,4,4,0,0,1,.83-.62,4.58,4.58,0,0,1,1.82-.66,2.59,2.59,0,0,1,.91,0l.44.06a1.55,1.55,0,0,1,.43.1,2.39,2.39,0,0,1,.7.33.75.75,0,0,1,.25.19l.17.19a.71.71,0,0,1,.12.33.41.41,0,0,1,0,.19.72.72,0,0,0,0,.23,1.27,1.27,0,0,0,0,.21,1.78,1.78,0,0,1,0,.29,2.18,2.18,0,0,0,0,.31,1.07,1.07,0,0,1,0,.35v.37a1.92,1.92,0,0,1,0,.37,1.8,1.8,0,0,1,0,.39l-.08.39a7.69,7.69,0,0,1-.21.81,3.15,3.15,0,0,1-.33.73,1.91,1.91,0,0,1-.37.7L176,164a1.83,1.83,0,0,1-.19.23.6.6,0,0,0-.1.12.22.22,0,0,1-.1.08l0,0,0,0-.08.06-.08.06-.39.25-.39.25c-.28.14-.55.26-.81.37a8.3,8.3,0,0,1-.81.29,4.46,4.46,0,0,1-1.74.17.73.73,0,0,0-.23,0,.72.72,0,0,1-.23,0,.27.27,0,0,1-.12,0l-.12,0-.1,0-.1,0a3.25,3.25,0,0,1-1-.37c-.3-.17-.62-.36-1-.58l0,0a8.77,8.77,0,0,1,.41-1.91q.17-.5.35-1a7.33,7.33,0,0,1,.43-1,9.31,9.31,0,0,1,1.2-1.74m17.29,8.89a7.83,7.83,0,0,0,.54-.68l.17-.23.16-.23.21-.25.08-.12.08-.12a.56.56,0,0,0-.08-.79.58.58,0,0,0-.87,0l-.21.21-.17.21a4.14,4.14,0,0,0-.41.37q-.21.21-.62.56t-.62.56l-.43.41-.43.37a3.8,3.8,0,0,1-.44.37l-.43.33q-.87.71-1.8,1.33t-1.89,1.16l-.93.5q-.48.25-1,.46t-1,.37q-.5.17-1,.29a12.23,12.23,0,0,1-2,.25,2.52,2.52,0,0,1-.91,0l-.43,0-.44,0-.83-.14a3.77,3.77,0,0,1-.71-.19,5.17,5.17,0,0,1-.6-.19,1.77,1.77,0,0,1-.48-.27q-.25-.17-.46-.33a2.22,2.22,0,0,1-.41-.46,3.92,3.92,0,0,1-.75-1.24q-.17-.37-.31-.81a6.48,6.48,0,0,1-.23-.89q-.08-.46-.14-.93a7.84,7.84,0,0,1-.06-1v-.66a.13.13,0,0,1,0,.08.11.11,0,0,0,0,.08c.14.19.28.37.41.54l.41.5a2,2,0,0,0,.29.25,1.14,1.14,0,0,0,.25.21,2.12,2.12,0,0,0,.27.23,2.3,2.3,0,0,0,.31.19,5.91,5.91,0,0,0,1.33.62l.35.12.35.08.75.12a9.15,9.15,0,0,0,2.86-.21,6.72,6.72,0,0,0,1.33-.37l.33-.12a.12.12,0,0,0,.08,0l.12,0a.71.71,0,0,1,.21-.08q.41-.25.75-.5a4.62,4.62,0,0,0,1.24-1.08,6.23,6.23,0,0,0,1-1.2,7.79,7.79,0,0,0,.77-1.28q.31-.66.56-1.37c.06-.22.12-.45.19-.68s.13-.48.19-.73a9.32,9.32,0,0,0,.12-1.53,11.71,11.71,0,0,0-.12-1.66,7.49,7.49,0,0,0-.58-1.66,4.87,4.87,0,0,0-1.16-1.58,5.19,5.19,0,0,0-1.62-1.08,4,4,0,0,0-.89-.29c-.29-.06-.57-.1-.85-.12a3.25,3.25,0,0,0-.81-.06,4.65,4.65,0,0,0-.77.1l-.73.17-.68.16q-.75.29-1.29.54a11,11,0,0,0-1.18.64q-.56.35-1.1.77l-.5.39-.5.39-.46.43a4.92,4.92,0,0,0-.46.48,10,10,0,0,0-.83.93l-.75,1q-.37.5-.7,1a11.6,11.6,0,0,0-.62,1.1,19.58,19.58,0,0,0-1.95,4.73,12.74,12.74,0,0,0-.27,1.28c-.07.44-.12.9-.15,1.37s0,.94,0,1.41a7.15,7.15,0,0,0,.19,1.41,9.81,9.81,0,0,0,.37,1.49q.12.37.29.75a5.57,5.57,0,0,0,.37.7c.14.22.29.45.45.68a8.36,8.36,0,0,0,.54.68,7.29,7.29,0,0,0,1.28,1.16q.37.25.75.45a6.87,6.87,0,0,0,.79.37,5.23,5.23,0,0,0,1.58.5,7,7,0,0,0,1.58.17h.75a3,3,0,0,0,.7-.08l.73-.15.68-.14a6.11,6.11,0,0,0,.66-.21l.66-.25a14.71,14.71,0,0,0,2.36-1.2,18.65,18.65,0,0,0,2.11-1.37c.36-.25.7-.5,1-.75s.63-.51.93-.79a22.55,22.55,0,0,0,1.78-1.64q.83-.85,1.62-1.72l.75-.91.75-.91.58-.68"/></svg>