<svg id="Calque_1" data-name="Calque 1" xmlns="http://www.w3.org/2000/svg" viewBox="0 0 800 800"><defs><style>.cls-1{fill:#a1c517;}.cls-2{fill:#fff;}.cls-3{fill:none;stroke:#fff;stroke-miterlimit:10;}</style></defs><title>RGPlan de travail 1 copie</title><path class="cls-1" d="M642.95,745.63A150.62,150.62,0,0,1,583.66,800H800V789a193.15,193.15,0,0,1-33.38,2.9C719.24,791.89,676.43,774.07,642.95,745.63Z"/><path class="cls-1" d="M226.11,167.68c43.4-27,94.15-43.23,149-43.23,24.39,0,47.65,4,70.24,9.83-.29-2.59-1.44-4.85-1.44-7.51,0-37,28.64-67,64-67s64,30,64,67c0,22.89-11.66,42.11-28.37,54.21a283.83,283.83,0,0,1,52.25,50.87c30.16-23.48,67.59-38,108.77-38A177.17,177.17,0,0,1,800,221.58V0H0V99.46a232.08,232.08,0,0,1,56.32-6.91C123.68,92.55,183.79,121.78,226.11,167.68ZM630.27,40.76c17.67,0,32,15,32,33.52s-14.32,33.52-32,33.52-32-15-32-33.52S612.6,40.76,630.27,40.76Z"/><path class="cls-1" d="M370.07,691.27c-28-.5-54.49-5.85-79.92-13.88,15.48,12.24,26.15,30.76,26.15,52.65,0,37-28.64,67-64,67s-64-30-64-67,28.65-67,64-67c.22,0,.42.14.65.14a282.8,282.8,0,0,1-66.82-44.84c-17.08,37.86-53.56,64.23-96.17,64.23-38,0-71.11-21-90-52.43V800H449.64A149.4,149.4,0,0,1,370.07,691.27Z"/><ellipse class="cls-2" cx="630.27" cy="74.28" rx="31.99" ry="33.52"/><path class="cls-2" d="M98.33,34.91a28.74,28.74,0,0,1,1.7-3.68q.5-.92,1.06-1.8a16.22,16.22,0,0,1,1.2-1.66,16.26,16.26,0,0,1,1.33-1.61l.74-.71.78-.71a17.11,17.11,0,0,1,1.63-1.36,14.53,14.53,0,0,1,1.82-1.13,13.82,13.82,0,0,1,1.93-.87,12.1,12.1,0,0,1,2.07-.55l1.08-.16a5.1,5.1,0,0,1,1.08,0h.51l.28,0,.28,0a4.23,4.23,0,0,0,.51.07,2.42,2.42,0,0,1,.55.11l.55.16a2.7,2.7,0,0,1,.55.21,2.41,2.41,0,0,1,.53.25,5.25,5.25,0,0,1,.53.39,3.76,3.76,0,0,1,.78,1,4.83,4.83,0,0,1,.46,1.2,4.69,4.69,0,0,1,.14,1.15v.55a2.69,2.69,0,0,1,0,.51,15.84,15.84,0,0,1-.41,2c-.09.34-.19.66-.3,1s-.24.63-.39,1l-.37.9q-.18.44-.41.9-.83,1.8-1.8,3.45l-1,1.7q-.48.83-1,1.66L112.6,42q-1.06,1.59-2.21,3.15l-1.1,1.57q-.55.78-1.15,1.56T107,49.85l-1.17,1.54-4,5.11.09.18.09.18a3.69,3.69,0,0,0,.83,1.1,3.49,3.49,0,0,0,1.06.78,5.32,5.32,0,0,0,.6.25,7.11,7.11,0,0,0,.69.21,3.1,3.1,0,0,0,.76.09h.76a11.73,11.73,0,0,0,3.36-.64q.87-.28,1.7-.62l1.7-.71.83-.44.83-.44L116,56l.83-.44a.57.57,0,0,1,.39,0,.42.42,0,0,1,.3.23.51.51,0,0,1-.09.64l-.35.34a3.21,3.21,0,0,1-.34.3l-.37.34-.37.3-1.52,1.24A24.14,24.14,0,0,1,111,61.06q-.46.23-.92.41l-1,.41a10.74,10.74,0,0,1-2.07.55,7.74,7.74,0,0,1-2.26.14,9.62,9.62,0,0,1-2.35-.46,6.63,6.63,0,0,1-2.16-1.24,10,10,0,0,1-1.15-1.06l-1.45,1.75q-.71.87-1.5,1.75L95,64.81q-.6.71-1.24,1.45l-1.24,1.47-.6.74-.64.74-.32.23a2.79,2.79,0,0,1-2.21.85,3.1,3.1,0,0,1-3-3.15q0-1.38,0-2.74t0-2.69q0-1.38-.07-2.74t-.07-2.69q-.09-2.76-.23-5.43T85,45.41q-.14-2.72-.3-5.41t-.39-5.41q-.09-1.33-.23-2.72t-.28-2.72q-.09-.64-.14-1.33c0-.46-.08-.9-.14-1.33s-.11-.92-.16-1.38-.1-.9-.16-1.33a3.35,3.35,0,0,1,.07-1.31,3.05,3.05,0,0,1,.53-1.1,3.1,3.1,0,0,1,.92-.81A3.32,3.32,0,0,1,86,20.14a2.92,2.92,0,0,1,2.39.6,3.2,3.2,0,0,1,1.24,2.16,1.4,1.4,0,0,0,0,.23,1.75,1.75,0,0,1,0,.28c0,.46,0,.91,0,1.36v2.72q0,.67,0,1.36,0,2.76.14,5.43T90,39.7q.11,2.67.3,5.43t.37,5.39q.18,2.67.41,5.43.09,1.06.16,2.07t.16,2.07a2.07,2.07,0,0,0,.32-.3,2,2,0,0,1,.32-.3l2.28-2.28q1.13-1.13,2.28-2.32a1.67,1.67,0,0,1-.11-.44A1.71,1.71,0,0,0,96.4,54q0-.23-.09-.51L96.21,53a1.69,1.69,0,0,1-.12-.51,4.66,4.66,0,0,0-.07-.51c0-.18-.05-.36-.07-.53s0-.34,0-.53a5.69,5.69,0,0,1-.09-1q0-.53,0-1c0-.34,0-.67,0-1s0-.67,0-1,.05-.68.07-1a7.59,7.59,0,0,1,.12-1q.09-1,.28-2a28.25,28.25,0,0,1,.83-4q.23-1,.53-1.93T98.33,34.91Zm2.35,15.7v0q.5-.51.94-1t.94-1q.64-.69,1.27-1.4t1.27-1.4q1.29-1.43,2.44-2.85L109.93,40q1.2-1.45,2.3-2.92l1.1-1.54q.55-.76,1.06-1.54t1-1.57q.48-.78,1-1.56a24.27,24.27,0,0,0,1.52-3.27,6.08,6.08,0,0,0,.3-.83q.12-.41.21-.83a4.41,4.41,0,0,0,0-1.56,1.44,1.44,0,0,0-.18-.6l-.18-.25a1,1,0,0,0-.23-.21,3.08,3.08,0,0,0-1.29-.51l-.41,0-.41,0a1.42,1.42,0,0,0-.41,0h-.41L114,23a4.13,4.13,0,0,0-.78.21,9.16,9.16,0,0,0-2.85,1.7,12.79,12.79,0,0,0-1.22,1.2q-.58.64-1.08,1.33a9.64,9.64,0,0,0-.92,1.47q-.23.37-.44.74t-.44.74q-.23.41-.41.81l-.37.76a15.33,15.33,0,0,0-.74,1.61q-.74,1.52-1.38,3.27-.32.83-.62,1.66t-.53,1.7q-.51,1.7-.85,3.45t-.58,3.5c0,.31-.05.6-.07.87s0,.57-.07.87Z"/><path class="cls-2" d="M143.3,56.77a7.79,7.79,0,0,1-1,1.2,15.08,15.08,0,0,1-1.08,1.15A12.58,12.58,0,0,1,140,60.18l-.67.46c-.23.15-.48.31-.76.46a6.14,6.14,0,0,1-1.66.64,5.8,5.8,0,0,1-1.84.28h-.23l-.69,1.1a20.16,20.16,0,0,1-1.89,2.53,12.29,12.29,0,0,1-1.17,1.2q-.62.55-1.31,1.06l-.74.46-.78.46-.41.16-.41.16a3.52,3.52,0,0,1-.87.32,1.73,1.73,0,0,1-.44.12l-.44.07-.46.07-.46.07h-.46a1.94,1.94,0,0,1-.46,0,2.43,2.43,0,0,0-.48,0,3.29,3.29,0,0,1-.53,0,8.29,8.29,0,0,1-2-.55,6.07,6.07,0,0,1-1-.55A9.64,9.64,0,0,1,119,68a6,6,0,0,1-1.33-1.7,10.24,10.24,0,0,1-.46-.94,7.51,7.51,0,0,1-.32-.94,10.11,10.11,0,0,1-.41-1.84,4.58,4.58,0,0,1-.09-.9,8.72,8.72,0,0,0,0-.9,20.76,20.76,0,0,1,.28-3.41q.14-.83.32-1.63t.41-1.59q.46-1.52,1.11-3.08a24.21,24.21,0,0,1,1.47-3,14.07,14.07,0,0,1,.9-1.47q.48-.69,1.08-1.43a6.52,6.52,0,0,1,.6-.69q.32-.32.69-.64a11.75,11.75,0,0,1,1.57-1.29,7.91,7.91,0,0,1,2-1.06,2.6,2.6,0,0,1,.58-.21l.62-.16.69-.14H129a.09.09,0,0,0,.07,0,.19.19,0,0,1,.12,0h.14a3.52,3.52,0,0,1,1.86.41,3.67,3.67,0,0,1,1.36,1.24,9,9,0,0,1,1.66-.14l.55.07a3.18,3.18,0,0,1,.6.11,6.25,6.25,0,0,1,1.11.51,5.73,5.73,0,0,1,1,.78,8.3,8.3,0,0,1,.64.92,5,5,0,0,1,.44.92,7,7,0,0,1,.25.92c.06.31.11.6.14.87a8.25,8.25,0,0,1,0,.87,11.54,11.54,0,0,1,0,1.63q-.07.81-.21,1.59a27.67,27.67,0,0,1-.69,3q-.23.78-.46,1.5A15.41,15.41,0,0,1,137,57.6a5.53,5.53,0,0,1-.21.53,5.29,5.29,0,0,0-.21.53l.46-.07a1.65,1.65,0,0,0,.46-.12l.58-.21.62-.25a9.85,9.85,0,0,0,1.17-.64q.58-.37,1.13-.78l.53-.46.53-.46a5.41,5.41,0,0,0,.53-.51l.48-.51a.81.81,0,0,1,.51-.25.63.63,0,0,1,.51.21.66.66,0,0,1,.14.92l-.46.62Zm-12.2,5.8a9.54,9.54,0,0,0,.87-1,0,0,0,0,0,0,0,3,3,0,0,1-.39-.18l-.39-.18c-.31-.15-.6-.31-.87-.48s-.54-.35-.78-.53a12.2,12.2,0,0,1-2.49-2.85,2.71,2.71,0,0,1-.28-.37l0-.14h0v-.09a.37.37,0,0,1-.07-.09l-.07-.09q-.09-.23-.21-.46c-.08-.15-.15-.31-.21-.46a10.42,10.42,0,0,1-.55-1.84,9.35,9.35,0,0,1-.18-1.93v-.55l-.07.09a.36.36,0,0,1-.07.09,16.6,16.6,0,0,0-1.38,2.21A21.81,21.81,0,0,0,122,58.43q-.14.64-.25,1.24a10.25,10.25,0,0,0-.16,1.24,7.38,7.38,0,0,0,0,2.21,4,4,0,0,0,.23.92l.18.34.18.3.25.25a1.12,1.12,0,0,0,.3.21,3.69,3.69,0,0,0,.78.32,1.59,1.59,0,0,0,.51.09.52.52,0,0,1,.23,0h.83l.28,0,.28,0a6.85,6.85,0,0,0,2.26-.69,14.4,14.4,0,0,0,2.16-1.38l.53-.46Zm3-16.34a1.63,1.63,0,0,0-1.34.87,2.67,2.67,0,0,0-.28.37l-.09.21-.09.21a3.08,3.08,0,0,0-.28,1q-.09.51-.18,1a8.67,8.67,0,0,0-.14,1,4.16,4.16,0,0,0-.07.51c0,.18,0,.35,0,.51a1.67,1.67,0,0,0,0,.48c0,.17,0,.34,0,.53a2.48,2.48,0,0,1,0,.48,1.68,1.68,0,0,0,.09.53,1.49,1.49,0,0,0,.09.46v.14a0,0,0,0,0,0,0v.09a.36.36,0,0,1,0,.14.34.34,0,0,0,0,.14,8.43,8.43,0,0,0,.87,2,2.78,2.78,0,0,0,.3.41l.35.41a2.57,2.57,0,0,0,.37.32,1,1,0,0,0,.23.14q.14-.37.3-.71t.3-.71q.23-.64.44-1.31t.39-1.36a9.56,9.56,0,0,0,.28-1.33L136,51.3a13.31,13.31,0,0,0,0-1.36,12.48,12.48,0,0,0-.11-1.31,3.76,3.76,0,0,0-.28-1.15,2.5,2.5,0,0,0-.46-.87,1.34,1.34,0,0,0-.28-.23.27.27,0,0,0-.23-.14l-.09,0a.32.32,0,0,0-.14,0A1,1,0,0,0,134.14,46.23Z"/><path class="cls-2" d="M161,55.49a.84.84,0,0,1,.3.46.56.56,0,0,1-.12.51l-7,8.75a6.75,6.75,0,0,1-1.29,1.75,6.25,6.25,0,0,1-.94.78q-.48.32-1,.6a8.59,8.59,0,0,1-1,.39,9.29,9.29,0,0,1-1,.25,12.41,12.41,0,0,1-2.07.09,6.92,6.92,0,0,1-2.07-.41,5.37,5.37,0,0,1-1-.41,8.41,8.41,0,0,1-.92-.64l-.41-.34a3.06,3.06,0,0,1-.37-.39,7.23,7.23,0,0,1-.64-.87,9,9,0,0,1-.46-1,8.87,8.87,0,0,1-.32-1,6.07,6.07,0,0,1-.18-1c0-.31-.06-.61-.09-.92v-1a4.71,4.71,0,0,1,.09-.92l.18-.9.18-.9A2.61,2.61,0,0,0,141,58a3,3,0,0,1,.14-.44l.16-.41.16-.41a2.59,2.59,0,0,1,.21-.41,4.13,4.13,0,0,0,.21-.37l.09-.21.09-.21,0-.09.09-.09.09-.18.83-1.47,1.66-2.9.81-1.45q.39-.71.76-1.45l.78-1.5q.37-.71.74-1.5a.52.52,0,0,1,.18-.28l.14-.41a.7.7,0,0,0,.11-.28.7.7,0,0,1,.12-.28l.14-.28a.09.09,0,0,1,0-.07.18.18,0,0,0,0-.11l0-.09,0,0,0,0a3.44,3.44,0,0,1,4.83-1.24A3.4,3.4,0,0,1,155.13,44a3.47,3.47,0,0,1-.37,2.69v0h0c0,.06,0,.09,0,.09l-.07.11a.48.48,0,0,0-.07.11l-.09.25a1.42,1.42,0,0,1-.14.25,5.17,5.17,0,0,0-.41,1.15,4.73,4.73,0,0,0-.28,1.2c0,.22-.05.42-.07.62s0,.41,0,.62a2.92,2.92,0,0,0,0,.64q0,.32.07.64l.09.64a4.81,4.81,0,0,0,.14.64.73.73,0,0,0,.09.32l0,.18v.09l0,0,.14.46a1.8,1.8,0,0,0,.18.41l.28.92c.09.31.17.61.23.92a15,15,0,0,1,.35,1.91,17.67,17.67,0,0,1,.12,2q0,.09,0,.41c0,.22,0,.35,0,.41l4.83-6.08A.67.67,0,0,1,161,55.49Zm-10.45,6.72a3.92,3.92,0,0,0,0-1.2c0-.25-.06-.47-.09-.67s-.08-.42-.14-.67a5.84,5.84,0,0,0-.41-1.29,7.71,7.71,0,0,0-.55-1.33,2.54,2.54,0,0,0-.14-.32l-.09-.18-.09-.18v0l0,0,0-.09-.09-.23a3.17,3.17,0,0,1-.23-.46,7.77,7.77,0,0,1-.39-.92l-.34-1q-.14-.51-.25-1t-.21-1a7.57,7.57,0,0,1-.11-1c0-.35,0-.7-.07-1V49L146,51.53q-.37.78-.74,1.5t-.74,1.5L143.85,56l-.14.37a.82.82,0,0,0-.07.18,1,1,0,0,1-.07.18,1.8,1.8,0,0,0-.28.74,7.38,7.38,0,0,0-.41,1.47,8.78,8.78,0,0,0-.14,1.52,3.7,3.7,0,0,0,0,.71c0,.23,0,.47.07.71s.11.48.16.71a3.4,3.4,0,0,0,.21.67,2.57,2.57,0,0,0,.25.6,4.22,4.22,0,0,0,.35.51,2.54,2.54,0,0,0,.41.41l.46.37a1.93,1.93,0,0,0,.48.21l.53.16a3.25,3.25,0,0,0,1.24,0,3.42,3.42,0,0,0,1.24-.23,4.12,4.12,0,0,0,.58-.21,4.88,4.88,0,0,0,.48-.25,3.09,3.09,0,0,0,1.15-1.61,2.51,2.51,0,0,0,.14-.51Q150.52,62.53,150.57,62.21Z"/><path class="cls-2" d="M170.5,79.14l-.64,1.17c-.21.38-.45.77-.69,1.17s-.5.79-.76,1.17-.54.76-.85,1.13a6.63,6.63,0,0,1-.48.6l-.48.55-.55.55c-.18.18-.39.37-.6.55l-.67.48q-.34.25-.71.48l-.09,0-.09.09-.14,0a.13.13,0,0,0-.09,0,.42.42,0,0,1-.23.11.41.41,0,0,0-.23.12l-.46.16-.46.16-1,.16a4.09,4.09,0,0,1-1,0,6.47,6.47,0,0,1-3.73-1.24,5.15,5.15,0,0,1-1.43-1.61,4.18,4.18,0,0,1-.51-1,6.38,6.38,0,0,1-.28-1,7.81,7.81,0,0,1,.51-3.68,11,11,0,0,1,.74-1.47,1.71,1.71,0,0,1,.21-.32,1.66,1.66,0,0,0,.21-.32,3.28,3.28,0,0,0,.23-.32l.09-.14,0-.09,0,0h0l.25-.32.25-.32.28-.28a1.86,1.86,0,0,1,.28-.23,7.65,7.65,0,0,1,1.15-1,6.38,6.38,0,0,1,.55-.41l.55-.37a13,13,0,0,1,1.13-.76l1.13-.67a11.79,11.79,0,0,1,1.13-.67q.58-.3,1.13-.62l2.26-1.2,2.07-1.1q.09-.32.21-.64t.21-.64q.78-2.44,1.38-4.74a8.5,8.5,0,0,0,.3-1c.08-.34.16-.67.25-1a5.71,5.71,0,0,1-.3.53,5.79,5.79,0,0,1-.34.48,10.2,10.2,0,0,1-1,1.29l-.55.58a4.73,4.73,0,0,1-.64.58,6.81,6.81,0,0,1-1.52,1l-.46.16-.46.16a1.51,1.51,0,0,1-.46.09.32.32,0,0,0-.14,0,.31.31,0,0,1-.14,0h-.23a2.17,2.17,0,0,1-.55,0l-.55-.07a5,5,0,0,1-.53-.14l-.58-.18-.48-.3a4,4,0,0,1-1.27-1.22,4.57,4.57,0,0,1-.51-.92c-.06-.15-.11-.3-.16-.44s-.1-.28-.16-.44a9.51,9.51,0,0,1-.32-1.79,7.82,7.82,0,0,1,0-.83v-.83q0-.41,0-.83t.07-.78c.06-.52.14-1,.25-1.56s.24-1,.39-1.57.31-1,.46-1.52a14.52,14.52,0,0,1,.55-1.47,13.62,13.62,0,0,1,.64-1.45l.74-1.4a16.6,16.6,0,0,1,2-2.76q.55-.6,1.24-1.24a7.11,7.11,0,0,1,1.47-1.1,6.06,6.06,0,0,1,.87-.48l1-.44a7.42,7.42,0,0,1,2.12-.41,11.08,11.08,0,0,1,2.26.14,12.11,12.11,0,0,1,2,.69q.46.23.9.48a8.22,8.22,0,0,1,.81.53l.39.32.34.28a2.64,2.64,0,0,1,.37.32l.14.14.18.14A3.17,3.17,0,0,1,179,49a3.28,3.28,0,0,1-2.21,1,2.92,2.92,0,0,1-2.26-.85l-.18-.18,0-.09,0,0-.09-.09-.18-.18-.18-.18-.18-.18-.35-.28a1.74,1.74,0,0,0-.35-.23,1.7,1.7,0,0,0-.35-.21,1.89,1.89,0,0,1-.3-.16l-.32-.07-.32,0a1.92,1.92,0,0,0-.69,0,4.89,4.89,0,0,0-.78.28,4.59,4.59,0,0,0-.85.51q-.44.32-.85.69a10.8,10.8,0,0,0-1.61,1.84q-.37.51-.69,1t-.64,1.13q-.32.55-.6,1.15c-.18.4-.35.8-.51,1.2s-.29.84-.41,1.24-.23.81-.32,1.24a11.19,11.19,0,0,0-.28,2.44v.55a1.74,1.74,0,0,0,.09.55,2.77,2.77,0,0,0,.23.83.49.49,0,0,0,.18.23.28.28,0,0,0,.18.18.31.31,0,0,0,.23.09.81.81,0,0,0,.37.09h.41a.8.8,0,0,1,.25,0,.45.45,0,0,0,.21,0l.48-.21.53-.25c.15-.09.31-.2.48-.32a4.06,4.06,0,0,0,.48-.41l.46-.46.46-.46a18.77,18.77,0,0,0,1.66-2.16l.71-1.17.71-1.22.35-.62q.16-.3.3-.62l.16-.32.16-.32.14-.32.09-.14,0-.18.09-.18a3.24,3.24,0,0,1,3.82-2.35,3.06,3.06,0,0,1,2,1.4,3.13,3.13,0,0,1,.44,2.42,0,0,0,0,1,0,0l-.14.64-.14.64c-.06.21-.12.42-.16.62s-.1.41-.16.62q-.18.64-.35,1.27t-.34,1.27q-.37,1.2-.69,2.32t-.69,2.32a4.29,4.29,0,0,1,.46-.32,4.23,4.23,0,0,0,.46-.32l1-.74,1-.74a9.42,9.42,0,0,0,.94-.78l.9-.83A23.71,23.71,0,0,0,183,58.8a7.65,7.65,0,0,0,.78-.92,7.84,7.84,0,0,0,.69-.87q.46-.64.64-.87v0a.59.59,0,0,1,.37-.23.64.64,0,0,1,.46.09.52.52,0,0,1,.18.74,6.81,6.81,0,0,1-.41.69l-.55.85q-.28.44-.55.83l-.46.67q-.37.55-.78,1.06l-.83,1-.9,1q-.44.46-.94.92-.92.92-1.89,1.75T177,66.92q-.94.71-1.86,1.45l-.41,1.1q-.23.64-.46,1.22t-.46,1.22q-.51,1.29-1,2.44t-1.06,2.39Q171.15,77.95,170.5,79.14Zm-4.88-2.44a23.13,23.13,0,0,0,1-2.21,1.08,1.08,0,0,0,.14-.3,1,1,0,0,1,.14-.3l-.32.18-.32.18-1,.71-1,.71q-1.06.74-2,1.43a10,10,0,0,0-.85.76l-.76.76-.18.18-.18.18a.81.81,0,0,0-.23.37l-.18.18a.48.48,0,0,1-.07.11l-.07.11a1.92,1.92,0,0,1-.23.41q-.18.37-.37.83a1.72,1.72,0,0,0-.11.41,1.74,1.74,0,0,1-.07.32,2.18,2.18,0,0,0,0,.55.38.38,0,0,0,0,.21l.09.16a1.34,1.34,0,0,0,.28.23,1.62,1.62,0,0,0,.46.23,2.5,2.5,0,0,0,.55,0,2.6,2.6,0,0,0,.6-.09l.28-.14a.19.19,0,0,0,.14,0l0,0h0v0a1.25,1.25,0,0,0,.32-.23,3,3,0,0,1,.32-.28,5,5,0,0,0,.67-.71q.3-.39.62-.85c.21-.31.41-.62.6-.94s.38-.65.6-1,.36-.68.53-1S165.47,77.07,165.62,76.7Z"/><path class="cls-2" d="M210.59,59.17l-.83,1-.83,1q-.87,1-1.8,1.91a25.23,25.23,0,0,1-2,1.82q-.51.46-1,.87t-1.13.83a20.4,20.4,0,0,1-2.35,1.52A16.3,16.3,0,0,1,198,69.48l-.74.28a6.88,6.88,0,0,1-.74.23l-.76.16-.81.16a3.23,3.23,0,0,1-.78.09h-.83a7.67,7.67,0,0,1-1.75-.18,5.83,5.83,0,0,1-1.75-.55,7.77,7.77,0,0,1-.87-.41c-.28-.15-.55-.32-.83-.51a8.08,8.08,0,0,1-1.43-1.29,9.16,9.16,0,0,1-.6-.76q-.28-.39-.51-.76a6.14,6.14,0,0,1-.41-.78c-.12-.28-.23-.55-.32-.83a10.93,10.93,0,0,1-.41-1.66,7.89,7.89,0,0,1-.21-1.57q0-.78,0-1.56t.16-1.52a14.32,14.32,0,0,1,.3-1.43,21.73,21.73,0,0,1,2.16-5.25,13.38,13.38,0,0,1,.69-1.22q.37-.58.78-1.13l.83-1.08a11.62,11.62,0,0,1,.92-1,5.48,5.48,0,0,1,.51-.53l.51-.48.55-.44.55-.44q.6-.46,1.22-.85a12,12,0,0,1,1.31-.71c.4-.18.87-.38,1.43-.6l.76-.18.81-.18a5.25,5.25,0,0,1,.85-.11,3.61,3.61,0,0,1,.9.07q.46,0,.94.14a4.38,4.38,0,0,1,1,.32,5.76,5.76,0,0,1,1.8,1.2,5.43,5.43,0,0,1,1.29,1.75,8.38,8.38,0,0,1,.64,1.84,13.09,13.09,0,0,1,.14,1.84,10.38,10.38,0,0,1-.14,1.7c-.06.28-.13.54-.21.81s-.15.51-.21.76a16,16,0,0,1-.62,1.52,8.59,8.59,0,0,1-.85,1.43,7,7,0,0,1-1.06,1.33,5.11,5.11,0,0,1-1.38,1.2,9.75,9.75,0,0,1-.83.55.81.81,0,0,0-.23.09l-.14,0a.13.13,0,0,1-.09,0l-.37.14a7.47,7.47,0,0,1-1.47.41,10.15,10.15,0,0,1-3.18.23l-.83-.14-.39-.09L193,59.4a6.53,6.53,0,0,1-1.47-.69,2.43,2.43,0,0,1-.35-.21,2.29,2.29,0,0,1-.3-.25,1.25,1.25,0,0,1-.28-.23,2.21,2.21,0,0,1-.32-.28l-.46-.55c-.15-.18-.31-.38-.46-.6a.13.13,0,0,1,0-.09.14.14,0,0,0,0-.09v.74a8.86,8.86,0,0,0,.07,1.13c0,.35.1.7.16,1a7.12,7.12,0,0,0,.25,1c.11.32.22.62.35.9a4.34,4.34,0,0,0,.83,1.38,2.5,2.5,0,0,0,.46.51q.23.18.51.37a1.94,1.94,0,0,0,.53.3,5.62,5.62,0,0,0,.67.21,4.15,4.15,0,0,0,.78.21l.92.16.48,0,.48,0a2.79,2.79,0,0,0,1,0,13.5,13.5,0,0,0,2.21-.28q.55-.14,1.1-.32t1.11-.41q.55-.23,1.08-.51l1-.55q1.06-.6,2.09-1.29t2-1.47l.48-.37a4,4,0,0,0,.48-.41l.48-.41.48-.46q.23-.23.69-.62t.69-.62a4.54,4.54,0,0,1,.46-.41l.18-.23.23-.23a.64.64,0,0,1,1,0,.62.62,0,0,1,.09.87l-.09.14-.09.14-.23.28-.18.25-.18.25a8.84,8.84,0,0,1-.6.76Zm-19.88-8.7a8.23,8.23,0,0,0-.48,1.06q-.21.55-.39,1.1a9.88,9.88,0,0,0-.46,2.12l0,0q.55.37,1.06.64a3.62,3.62,0,0,0,1.06.41l.12,0,.11,0a.32.32,0,0,1,.14,0,.31.31,0,0,0,.14,0,.8.8,0,0,0,.25,0,.82.82,0,0,1,.25,0,5,5,0,0,0,1.93-.18,9,9,0,0,0,.9-.32q.44-.18.9-.41l.44-.28.44-.28.09-.07.09-.07,0,0,0,0a.25.25,0,0,0,.12-.09.67.67,0,0,1,.11-.14,2,2,0,0,0,.21-.25l.21-.3a2.13,2.13,0,0,0,.41-.78,3.54,3.54,0,0,0,.37-.81,8.82,8.82,0,0,0,.23-.9l.09-.44a2,2,0,0,0,0-.44,2.13,2.13,0,0,0,0-.41v-.41a1.2,1.2,0,0,0,0-.39,2.36,2.36,0,0,1,0-.35,1.93,1.93,0,0,0,0-.32,1.39,1.39,0,0,1,0-.23.81.81,0,0,1,0-.25.48.48,0,0,0,0-.21.79.79,0,0,0-.14-.37l-.18-.21a.84.84,0,0,0-.28-.21,2.65,2.65,0,0,0-.78-.37,1.76,1.76,0,0,0-.48-.11l-.48-.07a2.82,2.82,0,0,0-1,0,5.06,5.06,0,0,0-2,.74,4.52,4.52,0,0,0-.92.69,9.45,9.45,0,0,0-.78.78A10.44,10.44,0,0,0,190.71,50.47Z"/><path class="cls-2" d="M230.34,55.49a.84.84,0,0,1,.3.46.56.56,0,0,1-.12.51l-7,8.75a6.75,6.75,0,0,1-1.29,1.75,6.25,6.25,0,0,1-.94.78q-.48.32-1,.6a8.59,8.59,0,0,1-1,.39,9.29,9.29,0,0,1-1,.25,12.41,12.41,0,0,1-2.07.09,6.92,6.92,0,0,1-2.07-.41,5.37,5.37,0,0,1-1-.41,8.41,8.41,0,0,1-.92-.64l-.41-.34a3.06,3.06,0,0,1-.37-.39,7.23,7.23,0,0,1-.64-.87,9,9,0,0,1-.46-1,8.87,8.87,0,0,1-.32-1,6.07,6.07,0,0,1-.18-1c0-.31-.06-.61-.09-.92v-1a4.71,4.71,0,0,1,.09-.92l.18-.9.18-.9a2.61,2.61,0,0,0,.14-.44,3,3,0,0,1,.14-.44l.16-.41.16-.41a2.59,2.59,0,0,1,.21-.41,4.13,4.13,0,0,0,.21-.37l.09-.21.09-.21,0-.09.09-.09.09-.18.83-1.47,1.66-2.9.81-1.45q.39-.71.76-1.45l.78-1.5q.37-.71.74-1.5a.52.52,0,0,1,.18-.28l.14-.41a.7.7,0,0,0,.11-.28.7.7,0,0,1,.12-.28l.14-.28a.09.09,0,0,1,0-.07.18.18,0,0,0,0-.11l0-.09,0,0,0,0a3.44,3.44,0,0,1,4.83-1.24A3.4,3.4,0,0,1,224.45,44a3.47,3.47,0,0,1-.37,2.69v0h0c0,.06,0,.09,0,.09l-.07.11a.48.48,0,0,0-.07.11l-.09.25a1.42,1.42,0,0,1-.14.25,5.17,5.17,0,0,0-.41,1.15,4.73,4.73,0,0,0-.28,1.2c0,.22-.05.42-.07.62s0,.41,0,.62a2.92,2.92,0,0,0,0,.64q0,.32.07.64L223,53a4.81,4.81,0,0,0,.14.64.73.73,0,0,0,.09.32l0,.18v.09l0,0,.14.46a1.8,1.8,0,0,0,.18.41l.28.92c.09.31.17.61.23.92a15,15,0,0,1,.35,1.91,17.67,17.67,0,0,1,.12,2q0,.09,0,.41c0,.22,0,.35,0,.41l4.83-6.08A.67.67,0,0,1,230.34,55.49Zm-10.45,6.72a3.92,3.92,0,0,0,0-1.2c0-.25-.06-.47-.09-.67s-.08-.42-.14-.67a5.84,5.84,0,0,0-.41-1.29,7.71,7.71,0,0,0-.55-1.33,2.54,2.54,0,0,0-.14-.32l-.09-.18-.09-.18v0l0,0,0-.09-.09-.23a3.17,3.17,0,0,1-.23-.46,7.77,7.77,0,0,1-.39-.92l-.34-1q-.14-.51-.25-1t-.21-1a7.57,7.57,0,0,1-.11-1c0-.35,0-.7-.07-1V49l-1.24,2.49q-.37.78-.74,1.5t-.74,1.5L213.17,56l-.14.37a.82.82,0,0,0-.07.18,1,1,0,0,1-.07.18,1.8,1.8,0,0,0-.28.74A7.38,7.38,0,0,0,212.2,59a8.78,8.78,0,0,0-.14,1.52,3.7,3.7,0,0,0,0,.71c0,.23,0,.47.07.71s.11.48.16.71a3.4,3.4,0,0,0,.21.67,2.57,2.57,0,0,0,.25.6,4.22,4.22,0,0,0,.35.51,2.54,2.54,0,0,0,.41.41l.46.37a1.93,1.93,0,0,0,.48.21l.53.16a3.25,3.25,0,0,0,1.24,0,3.42,3.42,0,0,0,1.24-.23,4.12,4.12,0,0,0,.58-.21,4.88,4.88,0,0,0,.48-.25,3.09,3.09,0,0,0,1.15-1.61,2.51,2.51,0,0,0,.14-.51Q219.84,62.53,219.89,62.21Z"/><path class="cls-2" d="M277.84,59.17l-.83,1-.83,1q-.87,1-1.8,1.91a25.23,25.23,0,0,1-2,1.82q-.51.46-1,.87t-1.13.83a20.4,20.4,0,0,1-2.35,1.52,16.3,16.3,0,0,1-2.62,1.33l-.74.28a6.88,6.88,0,0,1-.74.23l-.76.16-.81.16a3.23,3.23,0,0,1-.78.09h-.83a7.67,7.67,0,0,1-1.75-.18,5.83,5.83,0,0,1-1.75-.55,7.77,7.77,0,0,1-.87-.41c-.28-.15-.55-.32-.83-.51A8.08,8.08,0,0,1,254,67.45a9.16,9.16,0,0,1-.6-.76q-.28-.39-.51-.76a6.14,6.14,0,0,1-.41-.78c-.12-.28-.23-.55-.32-.83a10.93,10.93,0,0,1-.41-1.66,7.89,7.89,0,0,1-.21-1.57q0-.78,0-1.56t.16-1.52a14.32,14.32,0,0,1,.3-1.43,21.73,21.73,0,0,1,2.16-5.25,13.38,13.38,0,0,1,.69-1.22q.37-.58.78-1.13l.83-1.08a11.62,11.62,0,0,1,.92-1,5.48,5.48,0,0,1,.51-.53l.51-.48.55-.44.55-.44q.6-.46,1.22-.85a12,12,0,0,1,1.31-.71c.4-.18.87-.38,1.43-.6l.76-.18.81-.18a5.25,5.25,0,0,1,.85-.11,3.61,3.61,0,0,1,.9.07q.46,0,.94.14a4.38,4.38,0,0,1,1,.32,5.76,5.76,0,0,1,1.8,1.2,5.43,5.43,0,0,1,1.29,1.75,8.38,8.38,0,0,1,.64,1.84,13.09,13.09,0,0,1,.14,1.84,10.38,10.38,0,0,1-.14,1.7c-.06.28-.13.54-.21.81s-.15.51-.21.76a16,16,0,0,1-.62,1.52,8.59,8.59,0,0,1-.85,1.43,7,7,0,0,1-1.06,1.33,5.11,5.11,0,0,1-1.38,1.2,9.75,9.75,0,0,1-.83.55.81.81,0,0,0-.23.09l-.14,0a.13.13,0,0,1-.09,0l-.37.14a7.47,7.47,0,0,1-1.47.41,10.15,10.15,0,0,1-3.18.23l-.83-.14-.39-.09-.39-.14a6.53,6.53,0,0,1-1.47-.69,2.43,2.43,0,0,1-.35-.21,2.29,2.29,0,0,1-.3-.25,1.25,1.25,0,0,1-.28-.23,2.21,2.21,0,0,1-.32-.28l-.46-.55c-.15-.18-.31-.38-.46-.6a.13.13,0,0,1,0-.09.14.14,0,0,0,0-.09v.74a8.86,8.86,0,0,0,.07,1.13c0,.35.1.7.16,1a7.12,7.12,0,0,0,.25,1c.11.32.22.62.35.9a4.34,4.34,0,0,0,.83,1.38,2.5,2.5,0,0,0,.46.51q.23.18.51.37a1.94,1.94,0,0,0,.53.3,5.62,5.62,0,0,0,.67.21,4.15,4.15,0,0,0,.78.21l.92.16.48,0,.48,0a2.79,2.79,0,0,0,1,0,13.5,13.5,0,0,0,2.21-.28q.55-.14,1.1-.32t1.11-.41q.55-.23,1.08-.51l1-.55q1.06-.6,2.09-1.29t2-1.47l.48-.37a4,4,0,0,0,.48-.41l.48-.41.48-.46q.23-.23.69-.62t.69-.62a4.54,4.54,0,0,1,.46-.41l.18-.23.23-.23a.64.64,0,0,1,1,0,.62.62,0,0,1,.09.87l-.09.14-.09.14-.23.28-.18.25-.18.25a8.84,8.84,0,0,1-.6.76Zm-21.13-23L269.56,27a3.05,3.05,0,0,1,2.21-.51,2.56,2.56,0,0,1,1.8,1.15,2.71,2.71,0,0,1,.55,2.14,2.8,2.8,0,0,1-1.24,1.91l-.6.37-14.73,5.52a1.17,1.17,0,0,1-.69,0,.62.62,0,0,1-.41-.44.69.69,0,0,1,0-.55A1,1,0,0,1,256.71,36.15ZM258,50.47a8.23,8.23,0,0,0-.48,1.06q-.21.55-.39,1.1a9.88,9.88,0,0,0-.46,2.12l0,0q.55.37,1.06.64a3.62,3.62,0,0,0,1.06.41l.12,0,.11,0a.32.32,0,0,1,.14,0,.31.31,0,0,0,.14,0,.8.8,0,0,0,.25,0,.82.82,0,0,1,.25,0,5,5,0,0,0,1.93-.18,9,9,0,0,0,.9-.32q.44-.18.9-.41l.44-.28.44-.28.09-.07.09-.07,0,0,0,0a.25.25,0,0,0,.12-.09.67.67,0,0,1,.11-.14,2,2,0,0,0,.21-.25l.21-.3a2.13,2.13,0,0,0,.41-.78,3.54,3.54,0,0,0,.37-.81,8.82,8.82,0,0,0,.23-.9l.09-.44a2,2,0,0,0,0-.44,2.13,2.13,0,0,0,0-.41v-.41a1.2,1.2,0,0,0,0-.39,2.36,2.36,0,0,1,0-.35,1.93,1.93,0,0,0,0-.32,1.39,1.39,0,0,1,0-.23.81.81,0,0,1,0-.25.48.48,0,0,0,0-.21.79.79,0,0,0-.14-.37l-.18-.21a.84.84,0,0,0-.28-.21,2.65,2.65,0,0,0-.78-.37,1.76,1.76,0,0,0-.48-.11l-.48-.07a2.82,2.82,0,0,0-1,0,5.06,5.06,0,0,0-2,.74,4.52,4.52,0,0,0-.92.69,9.45,9.45,0,0,0-.78.78A10.44,10.44,0,0,0,258,50.47Z"/><path class="cls-2" d="M313.79,62.9a8.2,8.2,0,0,1-.64.92,8.15,8.15,0,0,1-.64.92c-.12.15-.24.31-.34.46a3.58,3.58,0,0,1-.39.46l-.37.44-.37.44-.87.85a9.73,9.73,0,0,1-1,.81,2.28,2.28,0,0,1-.53.39l-.62.34c-.21.12-.44.24-.67.35a3.74,3.74,0,0,1-.76.25,1.53,1.53,0,0,1-.46.09l-.09,0a.32.32,0,0,1-.14,0h-.32l-.14,0h-.28a.86.86,0,0,0-.28,0,.88.88,0,0,1-.28,0,1.12,1.12,0,0,1-.3,0l-.35-.09a3.43,3.43,0,0,1-.64-.37,2.59,2.59,0,0,1-.34-.21,2.3,2.3,0,0,1-.3-.25,1.77,1.77,0,0,0-.23-.28,1.24,1.24,0,0,1-.23-.32,3.54,3.54,0,0,1-.51-1.1,2.34,2.34,0,0,1-.12-.51c0-.15,0-.31-.07-.46a2.13,2.13,0,0,1,0-.41V64.42c0-.25.05-.47.07-.67s0-.41.07-.62a3.17,3.17,0,0,0,.11-.62,3.12,3.12,0,0,1,.12-.62,3.5,3.5,0,0,0,.14-.58,3.4,3.4,0,0,1,.14-.58c0-.18.07-.37.11-.55s.1-.37.16-.55l.28-1.1a10.71,10.71,0,0,1,.32-1.06q.32-1.06.64-2.09l.64-2.09q.14-.51.3-1t.3-1l.28-1,.28-1,0-.14a5.7,5.7,0,0,0-.51.28l-.41.28a2.75,2.75,0,0,0-.41.32,5.15,5.15,0,0,0-.78.64l-.74.74q-.37.37-.69.74-.69.78-1.31,1.63l-1.27,1.73c-.18.31-.38.61-.57.9s-.39.59-.58.9l-1.11,1.8q-.55.92-1.06,1.89t-1,1.89l-.46,1-.46,1a3.78,3.78,0,0,0-.16.37,3.65,3.65,0,0,1-.16.37.36.36,0,0,0,0,.14.35.35,0,0,1,0,.14l-.32.74-.14.41-.14.37a2.66,2.66,0,0,1-1.47,1.52,2.55,2.55,0,0,1-2.12,0A2.59,2.59,0,0,1,288,67.5a2.62,2.62,0,0,1,0-2.07v0l.14-.37.14-.32.23-.74.28-.74.28-.74,1-2.9q.51-1.47.92-2.92t.78-2.92q.18-.74.34-1.45t.3-1.45q0-.37.09-.71l.09-.71a6.62,6.62,0,0,0,.14-1.29V47.8a.28.28,0,0,0-.18.18.25.25,0,0,0-.11.09.68.68,0,0,1-.12.14,2.63,2.63,0,0,0-.46.51,5.58,5.58,0,0,0-.46.53l-.46.58c-.15.18-.3.38-.44.58L290,51l-.83,1.29q-.41.65-.78,1.29-.23.37-.39.69a4.82,4.82,0,0,1-.39.64l-.35.69q-.16.32-.39.69-.69,1.38-1.36,2.79t-1.31,2.83q-.37.74-.64,1.43-.14.37-.3.74c-.11.25-.21.49-.3.74s-.23.48-.32.71l-.28.71-.28.74v0l0,.28a3,3,0,0,1-1.34,2.07,3.25,3.25,0,0,1-2.44.51,3,3,0,0,1-2.07-1.31,3.18,3.18,0,0,1-.51-2.42.5.5,0,0,1,0-.16.49.49,0,0,0,0-.16l6.08-22a2,2,0,0,1,1-1.31,2.25,2.25,0,0,1,1.7-.21,2.15,2.15,0,0,1,1.24,1,2.19,2.19,0,0,1,.32,1.56l-1.89,10.26q.28-.78.6-1.47l.28-.74a7.82,7.82,0,0,1,.32-.74q.32-.78.64-1.5t.69-1.5l.37-.74q.18-.37.41-.74.37-.69.88-1.47a2.37,2.37,0,0,1,.23-.37,2.49,2.49,0,0,0,.23-.37.71.71,0,0,0,.14-.18.71.71,0,0,1,.14-.18l.28-.37.64-.78a2.82,2.82,0,0,1,.32-.41l.18-.25.18-.21a4,4,0,0,1,.48-.41l.58-.41a2.77,2.77,0,0,1,.74-.32,4.08,4.08,0,0,1,.92-.23h1a5,5,0,0,1,1.15.32,2.92,2.92,0,0,1,1.1.64l.41.41a5.35,5.35,0,0,1,.37.41,7.15,7.15,0,0,1,.74,1.57,6.91,6.91,0,0,1,.14.69q0,.32.09.6a3.37,3.37,0,0,1,0,.55v.55c0,.15,0,.31,0,.48s0,.33,0,.48q0,.51-.07.94a5.24,5.24,0,0,1-.11.85q-.09.46-.16.87t-.16.83a.37.37,0,0,1,0,.23,9.51,9.51,0,0,1,.51-1,9.79,9.79,0,0,0,.51-1l.55-1,.55-1,.28-.53.28-.53.28-.55a.88.88,0,0,0,.16-.23,2.32,2.32,0,0,1,.16-.28,15,15,0,0,1,1.47-2.16l.48-.51a5.54,5.54,0,0,1,.53-.51A8.53,8.53,0,0,1,305,42a6.41,6.41,0,0,1,.78-.41,4.07,4.07,0,0,1,.92-.28,1.76,1.76,0,0,1,.51-.11l.55-.07a.65.65,0,0,0,.28,0h.64a1,1,0,0,0,.37,0l.41.07a1.75,1.75,0,0,1,.41.11,5.09,5.09,0,0,1,1,.41,8.49,8.49,0,0,1,.92.64,5.46,5.46,0,0,1,.69.83,4.8,4.8,0,0,1,.3.41A2.69,2.69,0,0,1,313,44a3.34,3.34,0,0,1,.14.41l.09.37a4.72,4.72,0,0,1,.23,1.24,3.25,3.25,0,0,1,0,.51V47a2.15,2.15,0,0,0,0,.41,2.14,2.14,0,0,1,0,.41l-.09.71a6.5,6.5,0,0,1-.14.71q-.19.64-.37,1.22t-.41,1.17q-.23.55-.44,1.08t-.44,1l-.46,1-.46,1q-.51,1-1,2t-.92,1.89l-.44,1q-.21.46-.44.92-.09.23-.21.46t-.21.46l-.18.46-.18.46c-.06.15-.12.3-.16.44s-.1.28-.16.44a2.64,2.64,0,0,0-.14.44l-.09.39a.1.1,0,0,1,0,.07.09.09,0,0,0,0,.07,2.11,2.11,0,0,0,.6-.28,2.62,2.62,0,0,0,.41-.21,2.67,2.67,0,0,1,.41-.21l.37-.28a4.85,4.85,0,0,1,.41-.28,2,2,0,0,0,.39-.3,2,2,0,0,1,.39-.3l.41-.35.37-.34q.78-.69,1.52-1.43t1.47-1.52q.37-.37.71-.78c.23-.28.47-.54.71-.78a8.09,8.09,0,0,0,.62-.74l.58-.74.32-.41.37-.41a.58.58,0,0,1,1,.64.41.41,0,0,0-.12.23.72.72,0,0,1-.11.28l-.23.46-.51.83a6.64,6.64,0,0,0-.46.83q-.28.51-.55,1L315,61A19.15,19.15,0,0,1,313.79,62.9ZM292.57,46.74s0,0,0,0Z"/><path class="cls-2" d="M342.83,56.77a7.79,7.79,0,0,1-1,1.2,15.08,15.08,0,0,1-1.08,1.15,12.58,12.58,0,0,1-1.27,1.06l-.67.46c-.23.15-.48.31-.76.46a6.14,6.14,0,0,1-1.66.64,5.8,5.8,0,0,1-1.84.28h-.23l-.69,1.1a20.16,20.16,0,0,1-1.89,2.53,12.29,12.29,0,0,1-1.17,1.2q-.62.55-1.31,1.06l-.74.46-.78.46-.41.16-.41.16a3.52,3.52,0,0,1-.87.32,1.73,1.73,0,0,1-.44.12l-.44.07-.46.07-.46.07h-.46a1.94,1.94,0,0,1-.46,0,2.43,2.43,0,0,0-.48,0,3.29,3.29,0,0,1-.53,0,8.29,8.29,0,0,1-2-.55,6.07,6.07,0,0,1-1-.55,9.64,9.64,0,0,1-.87-.69,6,6,0,0,1-1.33-1.7,10.24,10.24,0,0,1-.46-.94,7.51,7.51,0,0,1-.32-.94,10.11,10.11,0,0,1-.41-1.84,4.58,4.58,0,0,1-.09-.9,8.72,8.72,0,0,0,0-.9,20.76,20.76,0,0,1,.28-3.41q.14-.83.32-1.63t.41-1.59q.46-1.52,1.11-3.08a24.21,24.21,0,0,1,1.47-3,14.07,14.07,0,0,1,.9-1.47q.48-.69,1.08-1.43a6.52,6.52,0,0,1,.6-.69q.32-.32.69-.64a11.75,11.75,0,0,1,1.57-1.29,7.91,7.91,0,0,1,2-1.06,2.6,2.6,0,0,1,.58-.21l.62-.16.69-.14h.37a.09.09,0,0,0,.07,0,.19.19,0,0,1,.12,0h.14a3.52,3.52,0,0,1,1.86.41,3.67,3.67,0,0,1,1.36,1.24,9,9,0,0,1,1.66-.14l.55.07a3.18,3.18,0,0,1,.6.11,6.25,6.25,0,0,1,1.11.51,5.73,5.73,0,0,1,1,.78,8.3,8.3,0,0,1,.64.92,5,5,0,0,1,.44.92,7,7,0,0,1,.25.92c.06.31.11.6.14.87a8.25,8.25,0,0,1,0,.87,11.54,11.54,0,0,1,0,1.63q-.07.81-.21,1.59a27.67,27.67,0,0,1-.69,3q-.23.78-.46,1.5a15.41,15.41,0,0,1-.55,1.45,5.53,5.53,0,0,1-.21.53,5.29,5.29,0,0,0-.21.53l.46-.07a1.65,1.65,0,0,0,.46-.12l.58-.21.62-.25a9.85,9.85,0,0,0,1.17-.64q.58-.37,1.13-.78l.53-.46.53-.46a5.41,5.41,0,0,0,.53-.51l.48-.51a.81.81,0,0,1,.51-.25.63.63,0,0,1,.51.21.66.66,0,0,1,.14.92l-.46.62Zm-12.2,5.8a9.54,9.54,0,0,0,.87-1,0,0,0,0,0,0,0,3,3,0,0,1-.39-.18l-.39-.18c-.31-.15-.6-.31-.87-.48s-.54-.35-.78-.53a12.2,12.2,0,0,1-2.49-2.85,2.71,2.71,0,0,1-.28-.37l0-.14h0v-.09a.37.37,0,0,1-.07-.09l-.07-.09q-.09-.23-.21-.46c-.08-.15-.15-.31-.21-.46a10.42,10.42,0,0,1-.55-1.84A9.35,9.35,0,0,1,325,51.8v-.55l-.07.09a.36.36,0,0,1-.07.09,16.6,16.6,0,0,0-1.38,2.21,21.81,21.81,0,0,0-1.93,4.79q-.14.64-.25,1.24a10.25,10.25,0,0,0-.16,1.24,7.38,7.38,0,0,0,0,2.21,4,4,0,0,0,.23.92l.18.34.18.3.25.25a1.12,1.12,0,0,0,.3.21,3.69,3.69,0,0,0,.78.32,1.59,1.59,0,0,0,.51.09.52.52,0,0,1,.23,0h.83l.28,0,.28,0a6.85,6.85,0,0,0,2.26-.69,14.4,14.4,0,0,0,2.16-1.38l.53-.46Zm3-16.34a1.63,1.63,0,0,0-1.34.87,2.67,2.67,0,0,0-.28.37l-.09.21-.09.21a3.08,3.08,0,0,0-.28,1q-.09.51-.18,1a8.67,8.67,0,0,0-.14,1,4.16,4.16,0,0,0-.07.51c0,.18,0,.35,0,.51a1.67,1.67,0,0,0,0,.48c0,.17,0,.34,0,.53a2.48,2.48,0,0,1,0,.48,1.68,1.68,0,0,0,.09.53,1.49,1.49,0,0,0,.09.46v.14a0,0,0,0,0,0,0v.09a.36.36,0,0,1,0,.14.34.34,0,0,0,0,.14,8.43,8.43,0,0,0,.87,2,2.78,2.78,0,0,0,.3.41l.35.41a2.57,2.57,0,0,0,.37.32,1,1,0,0,0,.23.14q.14-.37.3-.71t.3-.71q.23-.64.44-1.31T335.1,54a9.56,9.56,0,0,0,.28-1.33l.18-1.38a13.31,13.31,0,0,0,0-1.36,12.48,12.48,0,0,0-.11-1.31,3.76,3.76,0,0,0-.28-1.15,2.5,2.5,0,0,0-.46-.87,1.34,1.34,0,0,0-.28-.23.27.27,0,0,0-.23-.14l-.09,0a.32.32,0,0,0-.14,0A1,1,0,0,0,333.67,46.23Z"/><path class="cls-2" d="M341,64.6a3.72,3.72,0,0,1-.09-.81,5.93,5.93,0,0,0,0-.76V61.61a21.31,21.31,0,0,1,.28-2.76q.09-.64.21-1.31t.21-1.31q.14-.64.28-1.31t.32-1.31c.09-.43.19-.85.3-1.27s.22-.84.35-1.27.25-.84.37-1.24.25-.81.37-1.24l.83-2.49.41-1.24.23-.6a1.19,1.19,0,0,0,.11-.32,1.17,1.17,0,0,1,.12-.32A3.16,3.16,0,0,1,347,41.84a3.06,3.06,0,0,1,2.46,0,3.26,3.26,0,0,1,1.8,1.7,3,3,0,0,1,0,2.44.18.18,0,0,0,0,.14h0l-.23.55-.23.55q-.14.28-.25.55t-.21.55q-.23.6-.48,1.15c-.17.37-.33.75-.48,1.15s-.3.74-.44,1.13-.28.78-.44,1.17-.29.74-.41,1.13-.26.78-.41,1.17a9.73,9.73,0,0,0-.39,1.13q-.16.58-.39,1.17c-.12.37-.23.74-.32,1.13l-.28,1.17a9.55,9.55,0,0,0-.3,1.13q-.12.58-.21,1.13c0,.18-.05.37-.07.55a4.64,4.64,0,0,1-.07.51c0,.18,0,.36,0,.53s0,.33,0,.48a2.25,2.25,0,0,1,0,.44,1.61,1.61,0,0,0,0,.39.33.33,0,0,0,0,.14.2.2,0,0,1,0,.09.43.43,0,0,1,0,.18v.09a.1.1,0,0,1,.07,0,.18.18,0,0,0,.12,0H346s0,0,0,0,0,0,0,0h0a.51.51,0,0,0,.23,0,1.49,1.49,0,0,0,.37-.09,6.08,6.08,0,0,0,.83-.46,7.1,7.1,0,0,0,.87-.64l.46-.37a5.42,5.42,0,0,0,.46-.41q.83-.78,1.7-1.7l.83-.9q.41-.44.83-.94t1-1.29q.62-.78,1-1.29a2.88,2.88,0,0,0,.39-.48,2.86,2.86,0,0,1,.39-.48l.37-.51.18-.28a1.47,1.47,0,0,1,.18-.23.84.84,0,0,1,.48-.3.73.73,0,0,1,.81,1,1.73,1.73,0,0,0-.16.3,1.88,1.88,0,0,1-.16.3l-.28.55a5.76,5.76,0,0,1-.6,1.15q-.32.6-.83,1.47l-.83,1.43c-.25.37-.48.74-.71,1.1s-.47.74-.71,1.1-.5.73-.76,1.08-.53.7-.81,1c-.15.18-.3.37-.44.55a4.85,4.85,0,0,1-.44.51l-.51.51c-.18.18-.37.35-.55.51a10.09,10.09,0,0,1-1.24.92l-.37.21a2.72,2.72,0,0,1-.41.21,4.4,4.4,0,0,1-1,.32h-.14l-.14,0h-.23a2.2,2.2,0,0,1-.51,0,3.23,3.23,0,0,1-1.11-.18l-.57-.18a2.2,2.2,0,0,1-.58-.28,4.69,4.69,0,0,1-.92-.78,3.63,3.63,0,0,1-.64-.92,4,4,0,0,1-.41-.92,4.22,4.22,0,0,1-.25-.87C341.11,65.11,341.05,64.84,341,64.6Zm12.38-29.32a4,4,0,1,1,2.85-1.17A3.91,3.91,0,0,1,353.37,35.28Z"/><line class="cls-3" y1="51.5" x2="70" y2="51.5"/></svg>