<?xml version="1.0" encoding="utf-8"?>
<!-- Generator: Adobe Illustrator 21.1.0, SVG Export Plug-In . SVG Version: 6.00 Build 0)  -->
<!DOCTYPE svg PUBLIC "-//W3C//DTD SVG 1.1//EN" "http://www.w3.org/Graphics/SVG/1.1/DTD/svg11.dtd">
<svg version="1.1" id="Calque_1" xmlns="http://www.w3.org/2000/svg" xmlns:xlink="http://www.w3.org/1999/xlink" x="0px" y="0px"
	 viewBox="0 0 1000 1000" enable-background="new 0 0 1000 1000" xml:space="preserve">
<g>
	<path fill="#A1C517" d="M940.5,782.9c0,0.2-0.1,0.5-0.2,0.7c-0.3,0.9-0.8,1.6-1.6,2.2c-0.2,0.1-0.4,0.2-0.7,0.3
		c-0.2,0.1-0.5,0.2-0.8,0.3c-0.5,0.2-1.1,0.3-1.7,0.3c-0.7,0.1-1.2,0.1-1.7-0.1c-0.2-0.1-0.5-0.2-0.7-0.2c-0.2-0.1-0.4-0.2-0.7-0.3
		c-0.2-0.2-0.4-0.3-0.6-0.5c-0.2-0.2-0.4-0.4-0.6-0.6c-0.2-0.2-0.3-0.4-0.5-0.7c-0.1-0.3-0.3-0.5-0.3-0.8c-0.1-0.3-0.2-0.6-0.3-0.9
		c-0.1-0.3-0.1-0.6-0.2-1c0-0.3-0.1-0.7-0.1-1c0-0.3,0-0.6,0-1c0-0.7,0.1-1.4,0.2-2.1c0.1-0.7,0.3-1.4,0.6-2c0-0.3,0.2-0.7,0.4-1
		c0-0.1,0.1-0.2,0.1-0.2c0-0.1,0.1-0.2,0.1-0.3l0.2-0.5l0.9-2.1c0.3-0.7,0.7-1.4,1-2c0.3-0.6,0.7-1.3,1-2l1.7-3.4v0.6
		c0,0.5,0.1,0.9,0.1,1.4c0,0.5,0.1,0.9,0.2,1.4c0.1,0.5,0.2,0.9,0.3,1.4c0.1,0.5,0.2,0.9,0.3,1.4c0.2,0.5,0.3,0.9,0.5,1.3
		c0.1,0.4,0.3,0.8,0.5,1.2c0.1,0.2,0.2,0.4,0.3,0.6l0.1,0.3l0.1,0.1l0.1,0.1v0.1l0.1,0.3l0.1,0.2c0.1,0.2,0.1,0.3,0.2,0.4
		c0.3,0.5,0.5,1.1,0.7,1.8c0.3,0.5,0.4,1.1,0.6,1.7c0.1,0.3,0.1,0.6,0.2,0.9c0,0.3,0.1,0.6,0.1,0.9c0.1,0.6,0.1,1.1,0,1.6
		C940.6,782.4,940.5,782.7,940.5,782.9 M953.5,773.2l-6.6,8.2c0-0.1,0-0.3,0-0.6c0-0.3,0-0.5,0-0.6c0-1-0.1-1.9-0.2-2.8
		c-0.1-0.9-0.3-1.8-0.5-2.6c-0.1-0.4-0.2-0.8-0.3-1.2c-0.1-0.4-0.2-0.8-0.4-1.2c-0.1-0.1-0.2-0.3-0.3-0.6l-0.2-0.6l-0.1-0.1v-0.1
		v-0.1l-0.1-0.3c-0.1-0.2-0.1-0.3-0.1-0.4c-0.1-0.3-0.1-0.6-0.2-0.9c0-0.3-0.1-0.6-0.1-0.9c0-0.3-0.1-0.6-0.1-0.9c0-0.3,0-0.6,0-0.9
		c0-0.3,0-0.6,0-0.8c0-0.3,0.1-0.6,0.1-0.8c0-0.5,0.2-1,0.4-1.6c0.1-0.5,0.3-1.1,0.6-1.6c0.1-0.1,0.1-0.2,0.2-0.3
		c0-0.1,0.1-0.2,0.1-0.3c0-0.1,0.1-0.1,0.1-0.2c0,0,0.1-0.1,0.1-0.2c0,0,0.1,0,0.1-0.1h0.1v0.1c0.7-1.2,0.8-2.4,0.5-3.7
		c-0.3-1.3-1.1-2.2-2.2-2.9c-1.2-0.7-2.4-0.9-3.6-0.6c-1.3,0.3-2.2,1.1-2.9,2.2l-0.1,0.1l-0.1,0.1l-0.1,0.1c0,0.1,0,0.1,0,0.2
		c0,0,0,0.1,0,0.1l-0.2,0.4c-0.1,0.1-0.1,0.3-0.2,0.4c0,0.1-0.1,0.3-0.2,0.4l-0.2,0.6c-0.1,0-0.2,0.2-0.3,0.4c-0.3,0.7-0.7,1.4-1,2
		c-0.3,0.6-0.7,1.3-1.1,2c-0.3,0.7-0.7,1.3-1,2c-0.4,0.6-0.7,1.3-1.1,2l-2.2,3.9l-1.1,2l-0.1,0.3l-0.1,0.1l-0.1,0.1
		c0,0.1-0.1,0.2-0.1,0.3c0,0.1-0.1,0.2-0.1,0.3c-0.1,0.2-0.2,0.3-0.3,0.5c-0.1,0.2-0.2,0.4-0.3,0.6c-0.1,0.2-0.2,0.4-0.2,0.6
		c-0.1,0.2-0.1,0.4-0.2,0.6c-0.1,0.2-0.1,0.4-0.2,0.6s-0.1,0.4-0.2,0.6c-0.1,0.4-0.2,0.8-0.3,1.2c-0.1,0.4-0.2,0.8-0.3,1.2
		c-0.1,0.4-0.1,0.8-0.1,1.2v1.3c0,0.4,0.1,0.8,0.1,1.2c0,0.4,0.1,0.9,0.3,1.3c0.1,0.5,0.3,0.9,0.4,1.3s0.4,0.9,0.6,1.3
		c0.3,0.5,0.6,0.9,0.9,1.2c0.2,0.2,0.3,0.4,0.5,0.5c0.2,0.1,0.4,0.3,0.6,0.5c0.4,0.3,0.8,0.6,1.2,0.9c0.4,0.2,0.8,0.4,1.4,0.6
		c0.9,0.3,1.8,0.5,2.8,0.6c0.8,0,1.8,0,2.8-0.1c0.5-0.1,0.9-0.2,1.4-0.3c0.5-0.1,0.9-0.3,1.4-0.5c0.5-0.2,0.9-0.5,1.3-0.8
		s0.9-0.6,1.3-1.1c0.7-0.7,1.3-1.5,1.7-2.4l9.5-11.9c0.2-0.2,0.2-0.4,0.2-0.7c-0.1-0.2-0.2-0.5-0.4-0.6
		C954.2,772.7,953.8,772.8,953.5,773.2 M902.9,763.6c0.3-0.4,0.7-0.7,1.1-1.1c0.3-0.3,0.7-0.6,1.2-0.9c0.9-0.5,1.8-0.9,2.7-1
		c0.5-0.1,0.9-0.1,1.4,0c0.2,0,0.4,0.1,0.7,0.1c0.2,0,0.4,0.1,0.7,0.2c0.4,0.1,0.8,0.3,1.1,0.5c0.2,0.1,0.3,0.2,0.4,0.3
		c0.1,0.1,0.2,0.2,0.2,0.3c0.1,0.2,0.2,0.4,0.2,0.5c0,0.1,0.1,0.2,0.1,0.3c0,0.1,0,0.2,0.1,0.3c0,0.1,0,0.2,0,0.3c0,0.1,0,0.3,0,0.4
		c0,0.2,0,0.3,0,0.5c0,0.1,0,0.3,0,0.5v0.6c0,0.2,0,0.4-0.1,0.6c0,0.2,0,0.4-0.1,0.6c0,0.2-0.1,0.4-0.1,0.6
		c-0.1,0.4-0.2,0.8-0.3,1.2c-0.1,0.4-0.3,0.8-0.5,1.1c-0.1,0.4-0.3,0.8-0.6,1.1c-0.1,0.1-0.2,0.3-0.3,0.4c-0.1,0.1-0.2,0.3-0.3,0.3
		c-0.1,0.1-0.1,0.1-0.2,0.2c0,0-0.1,0.1-0.2,0.1l-0.1,0.1l-0.1,0.1c0,0-0.1,0.1-0.1,0.1c0,0-0.1,0.1-0.1,0.1
		c-0.2,0.1-0.4,0.3-0.6,0.4c-0.2,0.1-0.4,0.3-0.6,0.4c-0.4,0.2-0.8,0.4-1.2,0.6c-0.4,0.2-0.8,0.3-1.2,0.4c-0.8,0.2-1.7,0.3-2.6,0.2
		c-0.1,0-0.2-0.1-0.3-0.1s-0.2,0-0.3-0.1c-0.1,0-0.1,0-0.2,0c0,0-0.1,0-0.2,0c-0.1,0-0.1-0.1-0.2-0.1s-0.1,0-0.2-0.1
		c-0.5-0.1-1-0.3-1.4-0.6c-0.5-0.3-0.9-0.5-1.4-0.9l-0.1-0.1c0.1-1.1,0.3-2,0.6-2.9c0.2-0.5,0.3-1,0.5-1.5c0.2-0.5,0.4-1,0.7-1.4
		C901.5,765.3,902.1,764.4,902.9,763.6 M928.9,776.9c0.4-0.4,0.6-0.8,0.8-1c0.1-0.1,0.2-0.2,0.3-0.3c0.1-0.1,0.2-0.2,0.2-0.3
		l0.3-0.4l0.1-0.2l0.1-0.2c0.3-0.4,0.2-0.8-0.1-1.2c-0.5-0.4-0.9-0.4-1.3,0.1l-0.3,0.3l-0.3,0.3c-0.2,0.1-0.4,0.3-0.6,0.6
		c-0.2,0.2-0.5,0.5-0.9,0.8c-0.4,0.4-0.7,0.6-0.9,0.8c-0.2,0.2-0.4,0.4-0.7,0.6c-0.2,0.2-0.4,0.4-0.7,0.6c-0.2,0.2-0.4,0.4-0.7,0.6
		c-0.2,0.2-0.4,0.3-0.7,0.5c-0.9,0.7-1.8,1.4-2.7,2c-0.9,0.6-1.9,1.2-2.8,1.7c-0.5,0.3-0.9,0.5-1.4,0.7c-0.5,0.2-1,0.5-1.5,0.7
		c-0.5,0.2-1,0.4-1.5,0.6c-0.5,0.2-1,0.3-1.5,0.4c-1,0.2-2,0.3-3,0.4c-0.5,0.1-0.9,0.1-1.4,0c-0.2,0-0.4,0-0.7,0c-0.2,0-0.4,0-0.7,0
		c-0.5-0.1-0.9-0.2-1.2-0.2c-0.4-0.1-0.7-0.2-1.1-0.3c-0.3-0.1-0.6-0.2-0.9-0.3c-0.3-0.1-0.5-0.2-0.7-0.4c-0.3-0.2-0.5-0.3-0.7-0.5
		c-0.2-0.2-0.4-0.4-0.6-0.7c-0.5-0.5-0.8-1.1-1.1-1.9c-0.2-0.4-0.3-0.8-0.5-1.2c-0.1-0.4-0.3-0.9-0.3-1.3c-0.1-0.5-0.2-0.9-0.2-1.4
		c-0.1-0.5-0.1-1-0.1-1.5v-1c0,0,0.1,0.1,0.1,0.1c0,0,0,0.1,0.1,0.1c0.2,0.3,0.4,0.6,0.6,0.8c0.2,0.2,0.4,0.5,0.6,0.7
		c0.2,0.2,0.3,0.3,0.4,0.4c0.2,0.2,0.3,0.3,0.4,0.3c0.1,0.1,0.3,0.2,0.4,0.3c0.1,0.1,0.3,0.2,0.5,0.3c0.6,0.4,1.2,0.7,2,0.9
		c0.2,0.1,0.4,0.1,0.5,0.2c0.1,0,0.3,0.1,0.5,0.1l1.1,0.2c1.4,0.1,2.8,0,4.3-0.3c0.7-0.1,1.4-0.3,2-0.6c0.2-0.1,0.4-0.1,0.5-0.2
		c0,0,0.1,0,0.1-0.1l0.2-0.1c0.2-0.1,0.3-0.1,0.3-0.1c0.4-0.2,0.8-0.5,1.1-0.7c0.7-0.4,1.3-1,1.9-1.6c0.6-0.6,1.1-1.2,1.4-1.8
		c0.5-0.6,0.8-1.3,1.2-1.9c0.3-0.7,0.6-1.4,0.8-2.1c0.1-0.3,0.2-0.7,0.3-1c0.1-0.4,0.2-0.7,0.3-1.1c0.1-0.7,0.2-1.5,0.2-2.3
		c0-0.8-0.1-1.6-0.2-2.5c-0.2-0.8-0.5-1.6-0.9-2.5c-0.5-1-1-1.7-1.7-2.4c-0.7-0.7-1.5-1.2-2.4-1.6c-0.5-0.2-0.9-0.4-1.3-0.4
		c-0.4-0.1-0.9-0.1-1.3-0.2c-0.4-0.1-0.8-0.1-1.2-0.1c-0.4,0-0.8,0.1-1.2,0.2c-0.4,0.1-0.7,0.2-1.1,0.2c-0.4,0.1-0.7,0.2-1,0.3
		c-0.7,0.3-1.4,0.6-1.9,0.8c-0.6,0.3-1.2,0.6-1.8,1c-0.6,0.4-1.1,0.7-1.7,1.2c-0.3,0.2-0.5,0.4-0.7,0.6c-0.2,0.2-0.5,0.4-0.7,0.6
		c-0.2,0.2-0.4,0.4-0.7,0.7c-0.2,0.2-0.5,0.5-0.7,0.7c-0.5,0.5-0.9,0.9-1.2,1.4c-0.4,0.5-0.7,1-1.1,1.5c-0.4,0.5-0.7,1-1.1,1.5
		c-0.3,0.5-0.6,1.1-0.9,1.7c-1.3,2.2-2.3,4.6-2.9,7.1c-0.2,0.6-0.3,1.3-0.4,1.9c-0.1,0.7-0.2,1.4-0.2,2.1c0,0.7-0.1,1.4,0,2.1
		c0,0.7,0.1,1.4,0.3,2.1c0.1,0.7,0.3,1.5,0.6,2.2c0.1,0.4,0.3,0.7,0.4,1.1c0.2,0.4,0.4,0.7,0.6,1.1c0.2,0.3,0.4,0.7,0.7,1
		c0.2,0.4,0.5,0.7,0.8,1c0.6,0.7,1.2,1.2,1.9,1.7c0.4,0.3,0.7,0.5,1.1,0.7c0.4,0.2,0.8,0.4,1.2,0.6c0.7,0.4,1.5,0.6,2.4,0.7
		c0.7,0.2,1.5,0.3,2.4,0.3h1.1c0.4,0,0.7,0,1.1-0.1c0.4-0.1,0.7-0.2,1.1-0.2c0.4-0.1,0.7-0.1,1-0.2c0.3-0.1,0.7-0.2,1-0.3
		s0.7-0.2,1-0.4c1.2-0.5,2.4-1.1,3.6-1.8c1.1-0.6,2.2-1.3,3.2-2.1c0.5-0.4,1.1-0.7,1.5-1.1c0.5-0.4,0.9-0.8,1.4-1.2
		c1-0.8,1.9-1.6,2.7-2.5c0.8-0.9,1.6-1.7,2.4-2.6c0.4-0.5,0.7-0.9,1.1-1.4c0.4-0.5,0.7-0.9,1.1-1.4
		C928.2,777.7,928.5,777.4,928.9,776.9 M866.4,803.2c-0.2,0.5-0.5,0.9-0.7,1.4c-0.3,0.5-0.6,0.9-0.8,1.3c-0.2,0.4-0.5,0.9-0.8,1.3
		c-0.3,0.4-0.6,0.8-0.8,1.2c-0.3,0.4-0.6,0.7-0.9,1c-0.2,0.1-0.3,0.2-0.4,0.4c-0.1,0.1-0.3,0.2-0.4,0.3v0.1h-0.1l-0.1,0.1
		c0,0-0.1,0.1-0.2,0.1l-0.4,0.2c-0.3,0.1-0.6,0.1-0.8,0.1c-0.3,0-0.6,0-0.7-0.1s-0.4-0.1-0.6-0.3c-0.1,0-0.2-0.1-0.4-0.3
		c0-0.1-0.1-0.2-0.1-0.2c0-0.1-0.1-0.2-0.1-0.3c0-0.1-0.1-0.4-0.1-0.7c0-0.1,0.1-0.3,0.1-0.4s0.1-0.4,0.2-0.6
		c0.2-0.4,0.3-0.8,0.5-1.1c0.2-0.3,0.3-0.4,0.3-0.6c0-0.1,0.1-0.1,0.1-0.2c0,0,0.1-0.1,0.1-0.2l0.3-0.3c0-0.2,0.1-0.3,0.3-0.5
		c0.1-0.1,0.2-0.2,0.3-0.2c0.1-0.1,0.2-0.2,0.2-0.3c0.3-0.3,0.7-0.7,1-1c0.4-0.4,0.7-0.7,1.2-1c0.8-0.6,1.7-1.3,2.7-1.9
		c0.5-0.3,0.9-0.7,1.4-1c0.5-0.3,0.9-0.6,1.4-1c0.2-0.1,0.3-0.2,0.4-0.3c0.1-0.1,0.3-0.2,0.4-0.2c-0.1,0.1-0.1,0.3-0.2,0.4
		c0,0.1-0.1,0.3-0.2,0.4c-0.4,1-0.8,2-1.3,3C866.9,802.2,866.6,802.7,866.4,803.2 M875.3,801.8c0.5-1.1,1-2.2,1.4-3.2
		c0.5-1,0.9-2.1,1.4-3.3c0.2-0.6,0.4-1.1,0.6-1.7c0.2-0.5,0.4-1.1,0.6-1.7l0.6-1.5c0.8-0.7,1.7-1.3,2.5-2c0.9-0.6,1.7-1.3,2.5-2
		c0.9-0.7,1.7-1.5,2.6-2.4c0.5-0.4,0.9-0.8,1.3-1.2c0.4-0.4,0.8-0.9,1.2-1.3c0.4-0.5,0.7-0.9,1.1-1.4c0.4-0.5,0.7-0.9,1.1-1.4
		c0.2-0.3,0.4-0.6,0.6-0.9c0.3-0.4,0.5-0.7,0.7-1.1s0.5-0.8,0.7-1.2c0.2-0.4,0.4-0.7,0.6-0.9c0.2-0.4,0.1-0.7-0.3-1
		c-0.2-0.1-0.4-0.2-0.6-0.1s-0.4,0.1-0.5,0.3v0.1c-0.2,0.2-0.5,0.6-0.9,1.2c-0.4,0.6-0.7,1-0.9,1.2c-0.3,0.5-0.7,0.9-1.1,1.2
		c-0.7,0.8-1.5,1.6-2.4,2.4c-0.4,0.4-0.8,0.7-1.2,1.1c-0.4,0.4-0.8,0.7-1.3,1.1c-0.5,0.3-0.9,0.7-1.4,1c-0.5,0.3-0.9,0.7-1.4,1
		c-0.2,0.2-0.4,0.3-0.6,0.4c-0.2,0.1-0.4,0.3-0.6,0.4c0.3-1.1,0.6-2.1,0.9-3.2c0.3-1,0.6-2.1,0.9-3.1c0.2-0.6,0.3-1.2,0.5-1.7
		c0.1-0.6,0.3-1.1,0.5-1.7c0.1-0.3,0.2-0.6,0.2-0.8c0.1-0.3,0.1-0.6,0.2-0.8l0.2-0.9l0.2-0.9c0,0,0.1,0,0.1-0.1
		c0.3-1.2,0.1-2.3-0.6-3.3c-0.6-1-1.6-1.7-2.8-1.9c-1.2-0.2-2.2-0.1-3.2,0.6c-1,0.6-1.6,1.5-1.9,2.6l-0.1,0.2l-0.1,0.3l-0.1,0.2
		l-0.2,0.4c-0.1,0.2-0.2,0.3-0.2,0.4s-0.1,0.3-0.2,0.4c-0.1,0.3-0.3,0.6-0.4,0.8s-0.3,0.6-0.5,0.8c-0.3,0.6-0.7,1.1-1,1.7
		c-0.3,0.5-0.6,1.1-1,1.6c-0.7,1.1-1.5,2.1-2.2,2.9l-0.6,0.6l-0.6,0.6c-0.2,0.2-0.4,0.4-0.7,0.6c-0.2,0.2-0.4,0.3-0.7,0.4
		c-0.2,0.1-0.5,0.2-0.7,0.3c-0.2,0.1-0.4,0.2-0.7,0.3c-0.1,0-0.2,0.1-0.3,0.1c-0.1,0-0.2,0-0.3,0.1h-0.2H866h-0.1h-0.1h-0.1
		c-0.2,0-0.3,0-0.5-0.1c-0.1,0-0.2,0-0.3-0.1c-0.1,0-0.2-0.1-0.2-0.2c-0.1,0-0.2-0.1-0.3-0.3c-0.2-0.4-0.3-0.7-0.3-1.1
		c-0.1-0.3-0.1-0.5-0.1-0.7v-0.7c0-1.1,0.1-2.2,0.4-3.3c0.1-0.6,0.3-1.1,0.4-1.7c0.2-0.5,0.4-1.1,0.6-1.7c0.2-0.5,0.4-1.1,0.7-1.6
		c0.2-0.5,0.5-1.1,0.8-1.6c0.3-0.5,0.6-1,0.9-1.5c0.3-0.5,0.6-0.9,0.9-1.4c0.7-1,1.4-1.8,2.2-2.5c0.4-0.3,0.8-0.6,1.2-0.9
		s0.8-0.5,1.2-0.7c0.4-0.2,0.7-0.3,1.1-0.4c0.4-0.1,0.7-0.1,0.9-0.1c0.2,0,0.3,0,0.4,0c0.1,0,0.3,0.1,0.4,0.1
		c0.1,0.1,0.3,0.2,0.4,0.2c0.1,0.1,0.3,0.2,0.5,0.3c0.2,0.1,0.3,0.2,0.5,0.3c0.1,0.1,0.3,0.3,0.5,0.4c0.1,0.1,0.2,0.2,0.3,0.3
		c0.1,0.1,0.2,0.2,0.2,0.2l0.3,0.3l0.1,0.1l0.1,0.1l0.1,0.1l0.3,0.3c0.9,0.8,1.9,1.2,3.1,1.2c1.2-0.1,2.2-0.5,3-1.3
		c0.8-0.9,1.2-1.9,1.1-3.1c0-1.2-0.5-2.2-1.4-3l-0.3-0.2l-0.2-0.2c-0.2-0.2-0.4-0.4-0.5-0.4c-0.2-0.1-0.3-0.2-0.5-0.4
		c-0.1-0.1-0.3-0.3-0.5-0.4c-0.3-0.2-0.7-0.5-1.1-0.7c-0.4-0.2-0.8-0.4-1.2-0.7c-0.8-0.4-1.7-0.7-2.7-0.9c-1-0.2-2-0.2-3.1-0.2
		c-1,0-1.9,0.2-2.9,0.6c-0.5,0.2-0.9,0.4-1.3,0.6c-0.4,0.2-0.8,0.4-1.2,0.7c-0.8,0.5-1.5,1-2,1.5c-0.6,0.6-1.2,1.1-1.7,1.7
		c-1,1.1-1.9,2.4-2.7,3.7c-0.3,0.6-0.7,1.3-1,1.9c-0.3,0.6-0.6,1.3-0.9,2c-0.3,0.7-0.5,1.3-0.7,2c-0.2,0.7-0.4,1.4-0.6,2.1
		c-0.2,0.7-0.4,1.4-0.5,2.1c-0.1,0.7-0.3,1.4-0.3,2.1c0,0.3-0.1,0.7-0.1,1.1s0,0.7,0,1.1v1.1c0,0.4,0,0.7,0.1,1.1
		c0.1,0.9,0.2,1.7,0.4,2.4c0.1,0.2,0.2,0.4,0.2,0.6c0.1,0.2,0.1,0.4,0.2,0.6c0.2,0.4,0.4,0.8,0.7,1.2c0.3,0.5,0.7,0.9,1.1,1.2
		c0.2,0.2,0.4,0.3,0.7,0.5c0.2,0.1,0.4,0.3,0.7,0.4c0.3,0.1,0.5,0.2,0.8,0.2c0.3,0.1,0.5,0.1,0.7,0.2c0.3,0,0.5,0.1,0.7,0.1
		c0.2,0,0.5,0,0.7,0h0.1h0.1h0.2c0.1,0,0.1,0,0.2,0c0,0,0.1,0,0.2,0c0.2,0,0.4,0,0.6-0.1c0.2-0.1,0.4-0.2,0.6-0.2
		c0.2-0.1,0.4-0.1,0.6-0.2c0.8-0.4,1.5-0.8,2.1-1.3c0.3-0.3,0.6-0.5,0.9-0.8c0.2-0.3,0.5-0.5,0.7-0.8c0.5-0.6,1-1.2,1.3-1.7
		c0.2-0.2,0.3-0.4,0.5-0.7c0.1-0.2,0.3-0.5,0.4-0.7c-0.1,0.5-0.2,0.9-0.3,1.4c-0.1,0.5-0.2,0.9-0.4,1.4c-0.5,2.1-1.2,4.2-1.9,6.4
		c-0.1,0.3-0.2,0.6-0.3,0.9c-0.1,0.3-0.2,0.6-0.3,0.9l-2.8,1.5c-1,0.5-2.1,1.1-3.1,1.6c-0.5,0.3-1,0.6-1.5,0.8
		c-0.5,0.3-1,0.6-1.5,0.9c-0.5,0.3-1,0.6-1.5,0.9c-0.5,0.3-1,0.7-1.5,1c-0.2,0.2-0.5,0.3-0.7,0.5c-0.3,0.2-0.5,0.4-0.7,0.6
		c-0.5,0.3-1,0.8-1.6,1.3c-0.1,0.1-0.3,0.2-0.4,0.3c-0.1,0.1-0.3,0.3-0.4,0.4c-0.1,0.2-0.2,0.3-0.3,0.4c-0.1,0.1-0.2,0.3-0.3,0.4
		h-0.1l-0.1,0.1l-0.1,0.1l-0.1,0.2c-0.2,0.2-0.3,0.4-0.3,0.4c-0.1,0.2-0.2,0.3-0.3,0.4c-0.1,0.1-0.2,0.3-0.3,0.4
		c-0.4,0.6-0.7,1.3-1,2c-0.3,0.6-0.5,1.4-0.6,2.3c-0.2,0.7-0.2,1.6-0.1,2.7c0.1,0.5,0.2,0.9,0.4,1.4c0.2,0.5,0.4,0.9,0.7,1.3
		c0.5,0.9,1.1,1.6,1.9,2.2c0.8,0.6,1.6,1,2.4,1.2c0.8,0.3,1.7,0.4,2.6,0.4c0.5,0,0.9,0,1.3,0c0.4-0.1,0.9-0.1,1.3-0.2
		c0.2-0.1,0.4-0.2,0.6-0.2c0.2-0.1,0.4-0.1,0.6-0.2c0.1-0.1,0.2-0.1,0.3-0.2c0.1,0,0.2-0.1,0.3-0.2c0,0,0.1-0.1,0.1-0.1
		c0,0,0.1,0,0.2-0.1l0.1-0.1l0.1-0.1c0.3-0.2,0.7-0.4,1-0.7c0.3-0.2,0.6-0.4,0.9-0.7c0.3-0.2,0.6-0.5,0.8-0.7l0.7-0.7
		c0.2-0.2,0.4-0.5,0.7-0.7c0.2-0.3,0.4-0.5,0.7-0.8c0.4-0.5,0.8-1,1.2-1.5c0.4-0.5,0.7-1.1,1-1.6c0.3-0.5,0.6-1.1,0.9-1.6
		c0.3-0.5,0.6-1.1,0.9-1.6C874.3,804,874.8,802.9,875.3,801.8 M846.5,782.9c0,0.2-0.1,0.5-0.2,0.7c-0.3,0.9-0.8,1.6-1.6,2.2
		c-0.2,0.1-0.4,0.2-0.7,0.3c-0.2,0.1-0.5,0.2-0.8,0.3c-0.5,0.2-1.1,0.3-1.7,0.3c-0.7,0.1-1.2,0.1-1.7-0.1c-0.2-0.1-0.5-0.2-0.7-0.2
		c-0.2-0.1-0.4-0.2-0.7-0.3c-0.2-0.2-0.4-0.3-0.6-0.5c-0.2-0.2-0.4-0.4-0.6-0.6c-0.2-0.2-0.3-0.4-0.5-0.7c-0.1-0.3-0.3-0.5-0.3-0.8
		c-0.1-0.3-0.2-0.6-0.3-0.9c-0.1-0.3-0.1-0.6-0.2-1c0-0.3-0.1-0.7-0.1-1c0-0.3,0-0.6,0-1c0-0.7,0.1-1.4,0.2-2.1
		c0.1-0.7,0.3-1.4,0.6-2c0-0.3,0.2-0.7,0.4-1c0-0.1,0.1-0.2,0.1-0.2c0-0.1,0.1-0.2,0.1-0.3l0.2-0.5l0.9-2.1c0.3-0.7,0.7-1.4,1-2
		c0.3-0.6,0.7-1.3,1-2l1.7-3.4v0.6c0,0.5,0.1,0.9,0.1,1.4c0,0.5,0.1,0.9,0.2,1.4c0.1,0.5,0.2,0.9,0.3,1.4c0.1,0.5,0.2,0.9,0.3,1.4
		c0.2,0.5,0.3,0.9,0.5,1.3c0.1,0.4,0.3,0.8,0.5,1.2c0.1,0.2,0.2,0.4,0.3,0.6l0.1,0.3l0.1,0.1l0.1,0.1v0.1l0.1,0.3l0.1,0.2
		c0.1,0.2,0.1,0.3,0.2,0.4c0.3,0.5,0.5,1.1,0.7,1.8c0.2,0.5,0.4,1.1,0.6,1.7c0.1,0.3,0.1,0.6,0.2,0.9s0.1,0.6,0.1,0.9
		c0.1,0.6,0.1,1.1,0,1.6C846.6,782.4,846.6,782.7,846.5,782.9 M859.5,773.2l-6.5,8.2c0-0.1,0-0.3,0-0.6c0-0.3,0-0.5,0-0.6
		c0-1-0.1-1.9-0.2-2.8c-0.1-0.9-0.3-1.8-0.5-2.6c-0.1-0.4-0.2-0.8-0.3-1.2c-0.1-0.4-0.3-0.8-0.4-1.2c-0.1-0.1-0.2-0.3-0.3-0.6
		l-0.2-0.6l-0.1-0.1v-0.1v-0.1l-0.1-0.3c-0.1-0.2-0.1-0.3-0.1-0.4c-0.1-0.3-0.1-0.6-0.2-0.9c0-0.3-0.1-0.6-0.1-0.9
		c0-0.3-0.1-0.6-0.1-0.9c0-0.3,0-0.6,0-0.9c0-0.3,0-0.6,0-0.8c0-0.3,0.1-0.6,0.1-0.8c0-0.5,0.2-1,0.4-1.6c0.1-0.5,0.3-1.1,0.6-1.6
		c0.1-0.1,0.1-0.2,0.2-0.3c0-0.1,0.1-0.2,0.1-0.3c0-0.1,0.1-0.1,0.1-0.2c0,0,0.1-0.1,0.1-0.2c0,0,0.1,0,0.1-0.1h0.1v0.1
		c0.7-1.2,0.8-2.4,0.5-3.7c-0.3-1.3-1.1-2.2-2.2-2.9c-1.2-0.7-2.4-0.9-3.7-0.6c-1.3,0.3-2.2,1.1-2.9,2.2l-0.1,0.1l-0.1,0.1l-0.1,0.1
		c0,0.1,0,0.1,0,0.2c0,0,0,0.1,0,0.1l-0.2,0.4c-0.1,0.1-0.1,0.3-0.2,0.4c0,0.1-0.1,0.3-0.2,0.4l-0.2,0.6c-0.1,0-0.2,0.2-0.2,0.4
		c-0.3,0.7-0.7,1.4-1,2c-0.3,0.6-0.7,1.3-1.1,2c-0.3,0.7-0.7,1.3-1,2c-0.4,0.6-0.7,1.3-1.1,2l-2.2,3.9l-1.1,2l-0.1,0.3l-0.1,0.1
		l-0.1,0.1c0,0.1-0.1,0.2-0.1,0.3c0,0.1-0.1,0.2-0.1,0.3c-0.1,0.2-0.2,0.3-0.3,0.5c-0.1,0.2-0.2,0.4-0.3,0.6
		c-0.1,0.2-0.2,0.4-0.2,0.6c-0.1,0.2-0.1,0.4-0.2,0.6c-0.1,0.2-0.1,0.4-0.2,0.6c0,0.2-0.1,0.4-0.2,0.6c-0.1,0.4-0.2,0.8-0.3,1.2
		c-0.1,0.4-0.2,0.8-0.2,1.2c-0.1,0.4-0.1,0.8-0.1,1.2v1.3c0,0.4,0.1,0.8,0.1,1.2c0,0.4,0.1,0.9,0.2,1.3c0.1,0.5,0.3,0.9,0.4,1.3
		s0.4,0.9,0.6,1.3c0.3,0.5,0.6,0.9,0.9,1.2c0.2,0.2,0.3,0.4,0.5,0.5c0.2,0.1,0.4,0.3,0.6,0.5c0.4,0.3,0.8,0.6,1.2,0.9
		c0.4,0.2,0.8,0.4,1.4,0.6c0.9,0.3,1.8,0.5,2.8,0.6c0.8,0,1.8,0,2.8-0.1c0.5-0.1,0.9-0.2,1.4-0.3c0.5-0.1,0.9-0.3,1.4-0.5
		c0.5-0.2,0.9-0.5,1.3-0.8s0.9-0.6,1.3-1.1c0.7-0.7,1.3-1.5,1.7-2.4l9.5-11.9c0.2-0.2,0.2-0.4,0.2-0.7c-0.1-0.2-0.2-0.5-0.4-0.6
		C860.3,772.7,859.8,772.8,859.5,773.2 M819.6,783.2c-0.2,0.2-0.5,0.4-0.7,0.6c-0.9,0.7-1.9,1.3-2.9,1.9c-1,0.5-2,0.8-3.1,0.9
		c-0.1,0-0.2,0-0.4,0c-0.1,0-0.2,0-0.4,0h-0.7h-0.2H811c-0.1,0-0.2-0.1-0.3-0.1c-0.2,0-0.4,0-0.7-0.1c-0.4-0.1-0.8-0.3-1.1-0.4
		c-0.2-0.1-0.3-0.2-0.4-0.3c-0.1-0.1-0.2-0.2-0.3-0.3c-0.1-0.1-0.2-0.3-0.2-0.4c-0.1-0.1-0.2-0.3-0.3-0.5c-0.2-0.5-0.3-0.9-0.3-1.2
		c-0.2-0.8-0.2-1.8-0.1-3c0-0.6,0.1-1.1,0.2-1.7c0.1-0.5,0.2-1.1,0.3-1.7c0.6-2.3,1.5-4.4,2.6-6.5c0.5-1,1.2-2,1.9-3
		c0,0,0.1-0.1,0.1-0.1c0,0,0.1-0.1,0.1-0.1v0.7c0,1,0.1,1.8,0.2,2.6c0.2,0.8,0.4,1.7,0.7,2.5c0.1,0.2,0.2,0.4,0.3,0.6
		c0.1,0.2,0.2,0.4,0.3,0.6c0,0,0.1,0.1,0.1,0.1c0,0,0.1,0.1,0.1,0.1v0.1v0.1h0.1l0.1,0.2c0.2,0.2,0.3,0.4,0.4,0.5
		c0.9,1.5,2,2.7,3.4,3.9c0.3,0.2,0.7,0.5,1.1,0.7c0.4,0.2,0.8,0.4,1.2,0.7c0.2,0.1,0.4,0.2,0.5,0.2c0.1,0.1,0.3,0.2,0.5,0.3
		c0,0,0,0.1-0.1,0.1c-0.4,0.5-0.8,1-1.2,1.4C820.1,782.8,819.8,783,819.6,783.2 M824.8,760.4c0.1,0,0.1,0,0.2,0c0,0,0.1,0,0.1,0
		c0.1,0,0.2,0.1,0.3,0.2c0.1,0,0.2,0.1,0.4,0.3c0.2,0.2,0.4,0.6,0.6,1.2c0.2,0.5,0.3,1,0.4,1.6c0.1,0.6,0.1,1.2,0.2,1.8
		c0,0.6,0,1.2,0,1.8c-0.1,0.6-0.2,1.2-0.3,1.9c-0.1,0.6-0.2,1.2-0.4,1.8c-0.2,0.6-0.3,1.2-0.5,1.8c-0.2,0.6-0.4,1.2-0.6,1.8
		c-0.1,0.3-0.3,0.7-0.4,1c-0.1,0.3-0.3,0.6-0.4,1c-0.2-0.1-0.3-0.1-0.3-0.2c-0.1-0.1-0.3-0.2-0.5-0.4c-0.2-0.2-0.3-0.4-0.5-0.6
		c-0.1-0.2-0.3-0.4-0.4-0.6c-0.5-0.9-0.9-1.8-1.2-2.7c0-0.1-0.1-0.1-0.1-0.2c0,0,0-0.1-0.1-0.2v-0.1v-0.1c0,0-0.1,0-0.1-0.1v-0.2
		c-0.1-0.2-0.1-0.5-0.1-0.6c-0.1-0.2-0.1-0.5-0.1-0.7c0-0.2,0-0.4-0.1-0.7c0-0.2,0-0.5,0-0.7c0-0.2,0-0.4,0-0.7c0-0.2,0-0.4,0-0.7
		c0-0.3,0.1-0.5,0.1-0.7c0-0.5,0.1-0.9,0.2-1.3c0.1-0.4,0.2-0.9,0.2-1.3c0-0.4,0.2-0.9,0.4-1.3c0-0.1,0.1-0.2,0.1-0.3
		c0-0.1,0.1-0.2,0.1-0.3c0.2-0.2,0.3-0.4,0.4-0.5c0.5-0.7,1.1-1.1,1.8-1.2C824.5,760.4,824.7,760.4,824.8,760.4 M837.4,773.9
		c0.2-0.3,0.4-0.6,0.6-0.8c0.3-0.4,0.2-0.8-0.2-1.2c-0.2-0.2-0.4-0.3-0.7-0.3c-0.3,0-0.5,0.1-0.7,0.3c-0.2,0.2-0.4,0.4-0.7,0.7
		c-0.2,0.2-0.5,0.5-0.7,0.7c-0.3,0.2-0.5,0.4-0.7,0.6c-0.2,0.2-0.5,0.4-0.7,0.6c-0.5,0.4-1,0.7-1.5,1.1c-0.5,0.3-1,0.6-1.6,0.9
		c-0.3,0.1-0.6,0.2-0.8,0.3c-0.3,0.1-0.5,0.2-0.8,0.3c-0.2,0.1-0.4,0.1-0.6,0.2c-0.2,0-0.4,0.1-0.6,0.1c0.1-0.3,0.2-0.5,0.3-0.7
		c0.1-0.2,0.2-0.5,0.3-0.7c0.3-0.7,0.5-1.3,0.7-2c0.2-0.6,0.4-1.3,0.6-2c0.4-1.3,0.7-2.7,0.9-4.1c0.1-0.7,0.2-1.4,0.3-2.2
		c0.1-0.7,0.1-1.5,0-2.2c0-0.4,0-0.8-0.1-1.2c0-0.4-0.1-0.8-0.2-1.2c-0.1-0.4-0.2-0.8-0.3-1.2c-0.1-0.4-0.3-0.8-0.6-1.2
		c-0.2-0.4-0.5-0.8-0.9-1.2c-0.4-0.4-0.9-0.8-1.3-1.1c-0.4-0.3-0.9-0.5-1.5-0.7c-0.3-0.1-0.6-0.1-0.8-0.2c-0.3,0-0.5-0.1-0.7-0.1
		c-0.8,0-1.6,0.1-2.2,0.2c-0.5-0.7-1.1-1.3-1.8-1.7c-0.8-0.4-1.6-0.6-2.5-0.6h-0.1h-0.1c-0.1,0-0.1,0-0.2,0c0,0-0.1,0-0.1,0h-0.5
		l-0.9,0.2c-0.3,0.1-0.6,0.2-0.8,0.2c-0.3,0.1-0.5,0.2-0.8,0.3c-1,0.4-2,0.9-2.7,1.4c-0.8,0.6-1.5,1.2-2.1,1.7
		c-0.3,0.3-0.6,0.6-0.9,0.9s-0.6,0.6-0.8,0.9c-0.5,0.7-1,1.3-1.5,1.9c-0.4,0.6-0.8,1.3-1.2,2c-0.8,1.4-1.5,2.7-2,4.1
		c-0.6,1.4-1.1,2.8-1.5,4.2c-0.2,0.7-0.4,1.4-0.6,2.2c-0.2,0.7-0.3,1.5-0.4,2.2c-0.2,1.5-0.4,3-0.4,4.6c0,0.4,0.1,0.8,0.1,1.2
		c0,0.4,0,0.8,0.1,1.2c0.1,0.9,0.3,1.7,0.6,2.5c0.1,0.5,0.3,0.9,0.4,1.3s0.4,0.8,0.6,1.3c0.5,0.9,1.1,1.6,1.8,2.3
		c0.4,0.3,0.8,0.6,1.2,0.9c0.4,0.3,0.9,0.5,1.3,0.7c0.9,0.4,1.8,0.6,2.7,0.7c0.3,0,0.5,0.1,0.7,0.1c0.2,0,0.4,0,0.7,0.1
		c0.3,0,0.5,0,0.6-0.1h0.1h0.1h0.2h0.3c0.2,0,0.4-0.1,0.6-0.1c0.2,0,0.4-0.1,0.6-0.1c0.2,0,0.4-0.1,0.6-0.1c0.2,0,0.4-0.1,0.6-0.2
		c0.5-0.1,0.9-0.3,1.2-0.4c0.2-0.1,0.4-0.2,0.6-0.2s0.4-0.1,0.6-0.2c0.4-0.2,0.7-0.4,1.1-0.6c0.3-0.2,0.7-0.4,1-0.6
		c0.6-0.5,1.2-0.9,1.8-1.4c0.6-0.5,1.1-1,1.6-1.6c0.9-1,1.8-2.2,2.6-3.4l0.9-1.5h0.3c0.9,0,1.7-0.1,2.5-0.4c0.7-0.2,1.5-0.5,2.2-0.9
		c0.4-0.2,0.7-0.4,1-0.6c0.3-0.2,0.6-0.4,0.9-0.6c0.6-0.5,1.2-0.9,1.7-1.4c0.5-0.5,1-1,1.5-1.6c0.5-0.5,0.9-1,1.3-1.6
		C837,774.4,837.2,774.2,837.4,773.9 M779,764.1c0-0.4,0.1-0.8,0.1-1.2c0-0.4,0.1-0.8,0.1-1.2c0.2-1.6,0.5-3.2,0.8-4.7
		c0.3-1.6,0.7-3.1,1.2-4.7c0.2-0.8,0.4-1.6,0.7-2.3c0.3-0.7,0.6-1.5,0.8-2.2c0.6-1.6,1.2-3.1,1.9-4.4c0.3-0.7,0.6-1.5,1-2.2
		c0.2-0.3,0.3-0.7,0.5-1c0.2-0.4,0.4-0.7,0.6-1.1c0.2-0.3,0.4-0.7,0.6-1c0.2-0.3,0.4-0.7,0.6-1c0.3-0.7,0.7-1.3,1.2-2
		c0.5-0.6,0.9-1.2,1.5-1.8c0.5-0.6,1.1-1.1,1.7-1.6c1.2-1,2.5-1.8,3.9-2.3c0.3-0.1,0.7-0.2,1.1-0.3c0.4-0.1,0.7-0.1,1.1-0.2h0.2h0.3
		c0.1,0,0.3-0.1,0.6-0.1c0.2,0,0.4,0,0.6,0c0.2,0,0.4,0,0.6,0c0.7,0.1,1.3,0.4,1.7,0.7c0.1,0.1,0.2,0.2,0.3,0.3
		c0.1,0.1,0.2,0.2,0.2,0.3c0.2,0.3,0.3,0.6,0.3,0.8c0.1,0.6,0.1,1.3,0,2.1c-0.1,0.4-0.2,0.7-0.3,1.1c-0.1,0.4-0.2,0.7-0.4,1.1
		c-0.6,1.5-1.3,3-2.1,4.4c-0.5,0.7-0.9,1.4-1.3,2.1s-0.9,1.4-1.3,2.1c-0.5,0.7-0.9,1.4-1.4,2.1c-0.5,0.7-1,1.4-1.5,2.1
		c-1,1.3-2,2.7-3.1,4c-1.1,1.3-2.2,2.6-3.2,4c-1,1.3-2.1,2.6-3.3,3.9c-0.6,0.6-1.2,1.3-1.7,1.9c-0.6,0.6-1.1,1.3-1.7,1.9
		c-0.5,0.5-0.9,0.9-1.3,1.4c-0.4,0.5-0.8,0.9-1.3,1.4v-0.1V764.1z M774.9,747.7c-0.3,0.9-0.5,1.7-0.7,2.6c-0.5,1.7-0.9,3.5-1.1,5.4
		c-0.2,0.9-0.3,1.8-0.4,2.7c-0.1,0.5-0.1,0.9-0.2,1.4c0,0.5-0.1,0.9-0.1,1.4c0,0.5,0,0.9,0,1.4c0,0.5,0,0.9,0,1.4
		c0,0.5,0.1,0.9,0.1,1.4c0,0.5,0,0.9,0.1,1.4c0,0.2,0,0.5,0,0.7c0,0.2,0.1,0.5,0.1,0.7c0,0.2,0.1,0.4,0.1,0.7c0,0.3,0.1,0.5,0.2,0.7
		c0,0.2,0.1,0.5,0.1,0.7c0,0.3,0.1,0.5,0.1,0.7c0.1,0.2,0.1,0.4,0.2,0.6c0,0.2,0.1,0.4,0.2,0.6c-1,1.1-2.1,2.1-3.1,3.2
		c-1,1-2,2-3.1,3.1c-0.2,0.1-0.3,0.3-0.4,0.4c-0.1,0.1-0.3,0.3-0.4,0.4c-0.1-1-0.2-1.9-0.2-2.8c-0.1-0.9-0.1-1.8-0.2-2.8
		c-0.2-2.5-0.4-4.9-0.6-7.4c-0.2-2.4-0.3-4.8-0.5-7.3c-0.2-2.5-0.3-4.9-0.4-7.4c-0.1-2.4-0.2-4.9-0.3-7.4c-0.1-2.4-0.2-4.9-0.2-7.4
		c0-0.6-0.1-1.2-0.1-1.8v-1.8v-1.8c0-0.6,0-1.2,0.1-1.8c0-0.1,0-0.3,0-0.4c0-0.1,0-0.2,0-0.3c-0.2-1.2-0.7-2.2-1.7-2.9
		c-1-0.7-2-1-3.2-0.8c-0.6,0.1-1.2,0.3-1.7,0.6c-0.5,0.3-0.9,0.7-1.2,1.1c-0.3,0.4-0.6,0.9-0.7,1.5c-0.1,0.6-0.2,1.2-0.1,1.8
		c0.1,0.6,0.2,1.2,0.2,1.8c0.1,0.6,0.1,1.2,0.2,1.9c0.1,0.6,0.1,1.2,0.2,1.8c0,0.6,0.1,1.2,0.2,1.8c0.1,1.2,0.2,2.4,0.4,3.7
		c0.1,1.2,0.2,2.5,0.3,3.7c0.2,2.5,0.4,4.9,0.5,7.3c0.1,2.4,0.3,4.9,0.4,7.3c0.1,2.5,0.3,5,0.4,7.4c0.1,2.4,0.2,4.9,0.3,7.4
		c0,1.2,0.1,2.4,0.1,3.7c0,1.2,0.1,2.5,0.1,3.7c0,1.2,0,2.4,0,3.7c0,1.2,0,2.5,0,3.7c0,1.1,0.4,2,1.1,2.9c0.8,0.9,1.8,1.3,3,1.4
		c1.2,0.1,2.2-0.3,3-1.2l0.4-0.3l0.9-1l0.8-1l1.7-2c0.6-0.7,1.1-1.3,1.7-2c0.5-0.6,1.1-1.3,1.7-2c0.7-0.8,1.4-1.6,2-2.4
		c0.6-0.8,1.3-1.6,2-2.4c0.4,0.5,0.9,0.9,1.6,1.4c0.9,0.7,1.9,1.3,2.9,1.7c1,0.3,2.1,0.5,3.2,0.6c1.1,0.1,2.1,0,3.1-0.2
		c1-0.2,1.9-0.4,2.8-0.7c0.5-0.2,0.9-0.4,1.3-0.6c0.4-0.2,0.8-0.4,1.2-0.6c1.6-0.8,3.2-1.8,4.6-2.9l2.1-1.7c0.2-0.1,0.3-0.3,0.5-0.4
		c0.2-0.1,0.3-0.3,0.5-0.5c0.2-0.1,0.3-0.3,0.5-0.4c0.1-0.1,0.3-0.3,0.5-0.5c0.2-0.2,0.3-0.5,0.1-0.9c-0.1-0.2-0.2-0.3-0.4-0.3
		c-0.2,0-0.4,0-0.5,0.1c-0.4,0.2-0.7,0.4-1.1,0.6c-0.4,0.2-0.7,0.4-1.1,0.6c-0.4,0.2-0.7,0.4-1.1,0.6c-0.4,0.2-0.7,0.4-1.1,0.6
		c-0.8,0.3-1.6,0.7-2.3,1c-0.7,0.3-1.5,0.6-2.3,0.8c-1.6,0.5-3.1,0.8-4.6,0.9h-1c-0.4,0-0.7,0-1-0.1c-0.3-0.1-0.6-0.2-0.9-0.3
		c-0.3-0.1-0.6-0.2-0.8-0.3c-0.6-0.3-1.1-0.6-1.4-1.1c-0.5-0.4-0.8-0.9-1.1-1.5c0-0.1-0.1-0.2-0.1-0.3c0-0.1-0.1-0.2-0.1-0.2
		l5.4-6.9c0.5-0.7,1.1-1.4,1.6-2.1c0.5-0.7,1-1.4,1.5-2.1c0.5-0.7,1.1-1.4,1.6-2.1c0.5-0.7,1-1.4,1.5-2.1c1-1.4,2-2.8,3-4.3
		c1-1.4,1.9-2.9,2.9-4.3c0.5-0.7,0.9-1.5,1.3-2.2c0.4-0.7,0.9-1.5,1.3-2.3c0.9-1.5,1.7-3.1,2.4-4.7c0.2-0.4,0.4-0.8,0.6-1.2
		s0.3-0.8,0.5-1.2c0.2-0.5,0.4-0.9,0.5-1.3c0.1-0.4,0.3-0.9,0.4-1.3c0.3-0.9,0.4-1.8,0.6-2.7c0-0.2,0.1-0.4,0.1-0.7v-0.7
		c0-0.5-0.1-1.1-0.2-1.6c-0.1-0.5-0.3-1.1-0.6-1.6c-0.3-0.5-0.6-0.9-1.1-1.3c-0.3-0.2-0.5-0.4-0.7-0.5c-0.2-0.1-0.5-0.3-0.7-0.3
		c-0.3-0.1-0.5-0.2-0.7-0.3c-0.3-0.1-0.5-0.1-0.7-0.2c-0.2-0.1-0.5-0.1-0.7-0.2c-0.3,0-0.5-0.1-0.7-0.1c-0.1,0-0.2,0-0.4,0
		c-0.1,0-0.3,0-0.4,0h-0.3h-0.4c-0.5,0-1,0-1.5,0c-0.5,0.1-1,0.1-1.5,0.2c-1,0.2-1.9,0.4-2.8,0.7c-0.9,0.3-1.8,0.7-2.6,1.2
		c-0.9,0.5-1.7,1-2.5,1.5c-0.8,0.6-1.5,1.2-2.2,1.8c-0.4,0.3-0.7,0.7-1.1,1c-0.3,0.3-0.7,0.6-1,1c-0.7,0.7-1.3,1.4-1.8,2.2
		c-0.6,0.7-1.1,1.5-1.6,2.2c-0.5,0.8-1,1.6-1.4,2.4c-0.9,1.6-1.6,3.2-2.3,5C775.5,746,775.2,746.8,774.9,747.7"/>
	<path fill="#A1C517" d="M976.2,810.8c0.8-0.7,1.1-1.6,1.1-2.7s-0.4-2-1.1-2.7c-0.7-0.7-1.6-1.1-2.7-1.1c-1.1,0-2,0.4-2.7,1.1
		c-0.7,0.7-1.1,1.6-1.1,2.7s0.4,2,1.1,2.7c0.7,0.7,1.6,1.1,2.7,1.1C974.6,811.9,975.5,811.5,976.2,810.8 M962,840.2
		c0,0.3,0.1,0.5,0.2,0.8c0.1,0.3,0.2,0.6,0.4,0.9c0.1,0.3,0.3,0.5,0.6,0.9c0.2,0.3,0.5,0.5,0.9,0.7c0.2,0.1,0.4,0.2,0.5,0.3
		c0.2,0.1,0.4,0.1,0.5,0.2c0.3,0.1,0.7,0.2,1,0.2c0.2,0,0.4,0,0.5,0h0.2l0.1,0h0h0.1c0.4-0.1,0.7-0.2,1-0.3c0.1-0.1,0.3-0.1,0.4-0.2
		c0.1-0.1,0.2-0.1,0.3-0.2c0.4-0.2,0.8-0.5,1.2-0.9c0.2-0.1,0.3-0.3,0.5-0.5c0.2-0.2,0.3-0.3,0.5-0.5c0.1-0.1,0.3-0.3,0.4-0.5
		s0.3-0.3,0.4-0.5c0.3-0.3,0.5-0.6,0.8-1c0.2-0.3,0.5-0.7,0.7-1c0.2-0.3,0.5-0.7,0.7-1c0.2-0.3,0.4-0.7,0.7-1
		c0.2-0.3,0.5-0.8,0.8-1.3c0.3-0.6,0.6-1,0.8-1.4c0.2-0.3,0.4-0.6,0.6-1.1l0.3-0.5c0.1-0.1,0.1-0.2,0.2-0.3c0-0.1,0.1-0.2,0.2-0.3
		c0.1-0.3,0.1-0.6-0.2-0.9c-0.2-0.1-0.4-0.2-0.5-0.1c-0.2,0-0.3,0.1-0.5,0.3c-0.1,0.1-0.1,0.1-0.2,0.2c-0.1,0.1-0.1,0.2-0.2,0.3
		l-0.3,0.5c-0.1,0.1-0.3,0.3-0.4,0.5c-0.1,0.2-0.2,0.3-0.4,0.5c-0.2,0.3-0.5,0.7-0.9,1.2c-0.4,0.5-0.7,0.9-0.9,1.2
		c-0.3,0.3-0.5,0.6-0.8,0.9c-0.3,0.3-0.5,0.6-0.8,0.8c-0.5,0.6-1.1,1.1-1.6,1.6c-0.1,0.1-0.3,0.3-0.4,0.4c-0.1,0.1-0.3,0.2-0.4,0.3
		c-0.2,0.2-0.5,0.4-0.8,0.6c-0.3,0.2-0.6,0.3-0.8,0.4c-0.2,0.1-0.3,0.1-0.3,0.1c-0.1,0-0.1,0-0.2,0h0c0,0,0,0,0,0c0,0,0,0,0,0h-0.1
		c-0.1,0-0.1,0-0.1,0c0,0,0,0-0.1,0v0v0c0-0.1,0-0.1,0-0.2c0,0,0-0.1,0-0.1c0,0,0-0.1,0-0.1c0-0.1,0-0.2,0-0.4c0-0.1,0-0.3,0-0.4
		c0-0.1,0-0.3,0-0.5c0-0.2,0-0.3,0-0.5c0-0.1,0-0.3,0.1-0.5c0-0.2,0-0.3,0.1-0.5c0.1-0.3,0.1-0.7,0.2-1.1c0.1-0.4,0.2-0.7,0.3-1.1
		c0.1-0.4,0.2-0.7,0.3-1.1c0.1-0.4,0.2-0.7,0.3-1.1c0.1-0.4,0.3-0.7,0.4-1.1c0.1-0.4,0.2-0.7,0.4-1.1c0.1-0.4,0.3-0.7,0.4-1.1
		c0.1-0.4,0.2-0.7,0.4-1.1c0.1-0.4,0.3-0.7,0.4-1.1c0.1-0.4,0.3-0.7,0.4-1.1c0.1-0.4,0.3-0.7,0.5-1.1c0.2-0.3,0.3-0.7,0.5-1.1
		c0.1-0.2,0.1-0.3,0.2-0.5c0.1-0.2,0.2-0.3,0.2-0.5l0.2-0.5l0.2-0.5h0c0-0.1,0-0.1,0-0.1c0.3-0.8,0.3-1.5,0-2.3
		c-0.3-0.8-0.9-1.3-1.7-1.6c-0.8-0.3-1.6-0.3-2.3,0c-0.8,0.3-1.3,0.9-1.6,1.7c-0.1,0.1-0.1,0.2-0.1,0.3c0,0.1-0.1,0.2-0.1,0.3
		l-0.2,0.6l-0.4,1.2l-0.8,2.3c-0.1,0.4-0.2,0.8-0.3,1.2c-0.1,0.4-0.2,0.8-0.3,1.2c-0.1,0.4-0.2,0.8-0.3,1.2
		c-0.1,0.4-0.2,0.8-0.3,1.2c-0.1,0.4-0.2,0.8-0.3,1.2c-0.1,0.4-0.2,0.8-0.3,1.2c-0.1,0.4-0.1,0.8-0.2,1.2c-0.1,0.4-0.1,0.8-0.2,1.2
		c-0.1,0.9-0.2,1.7-0.3,2.6v1.3c0,0.2,0,0.5,0,0.7c0,0.2,0,0.5,0.1,0.8C961.9,839.7,962,840,962,840.2 M951.7,838
		c-0.2,0.1-0.3,0.3-0.5,0.4c-0.6,0.5-1.3,0.9-2,1.3c-0.7,0.3-1.4,0.6-2.1,0.6c-0.1,0-0.2,0-0.3,0c-0.1,0-0.2,0-0.3,0H946h-0.1h-0.1
		c-0.1,0-0.1,0-0.2,0c-0.1,0-0.3,0-0.5-0.1c-0.3-0.1-0.5-0.2-0.7-0.3c-0.1-0.1-0.2-0.1-0.3-0.2c-0.1-0.1-0.2-0.2-0.2-0.2
		c-0.1-0.1-0.1-0.2-0.2-0.3c-0.1-0.1-0.1-0.2-0.2-0.3c-0.1-0.3-0.2-0.6-0.2-0.9c-0.1-0.6-0.1-1.3,0-2.1c0-0.4,0.1-0.8,0.2-1.2
		c0.1-0.4,0.2-0.8,0.2-1.2c0.4-1.6,1-3.1,1.8-4.5c0.4-0.7,0.8-1.4,1.3-2.1c0,0,0.1-0.1,0.1-0.1c0,0,0-0.1,0.1-0.1v0.5
		c0,0.7,0.1,1.3,0.2,1.8c0.1,0.6,0.3,1.2,0.5,1.7c0.1,0.1,0.1,0.3,0.2,0.4c0.1,0.1,0.1,0.3,0.2,0.4c0,0,0.1,0.1,0.1,0.1
		c0,0,0,0.1,0.1,0.1v0v0h0l0,0.1c0.1,0.2,0.2,0.3,0.3,0.3c0.6,1,1.4,1.9,2.3,2.7c0.2,0.2,0.5,0.3,0.7,0.5c0.3,0.2,0.5,0.3,0.8,0.5
		c0.1,0.1,0.3,0.1,0.4,0.2c0.1,0.1,0.2,0.1,0.4,0.2c0,0,0,0,0,0c-0.3,0.3-0.5,0.7-0.8,1C952,837.7,951.8,837.9,951.7,838
		 M955.3,822.2c0.1,0,0.1,0,0.1,0c0,0,0.1,0,0.1,0c0.1,0,0.2,0,0.2,0.1c0.1,0,0.1,0.1,0.3,0.2c0.1,0.1,0.3,0.4,0.4,0.8
		c0.1,0.3,0.2,0.7,0.3,1.1c0.1,0.4,0.1,0.8,0.1,1.2c0,0.4,0,0.8,0,1.3c-0.1,0.4-0.1,0.9-0.2,1.3c-0.1,0.4-0.1,0.9-0.3,1.3
		c-0.1,0.4-0.2,0.9-0.4,1.3c-0.1,0.4-0.3,0.8-0.4,1.2c-0.1,0.2-0.2,0.5-0.3,0.7c-0.1,0.2-0.2,0.4-0.3,0.7c-0.1-0.1-0.2-0.1-0.2-0.1
		c-0.1-0.1-0.2-0.2-0.3-0.3c-0.1-0.1-0.2-0.3-0.3-0.4c-0.1-0.1-0.2-0.2-0.3-0.4c-0.4-0.6-0.6-1.3-0.8-1.9c0-0.1,0-0.1,0-0.1
		c0,0,0-0.1,0-0.1v0v0c0,0,0,0,0,0v-0.1c-0.1-0.2-0.1-0.3-0.1-0.4c-0.1-0.2-0.1-0.3-0.1-0.5c0-0.2,0-0.3,0-0.5c0-0.2,0-0.3,0-0.5
		c0-0.2,0-0.3,0-0.5c0-0.1,0-0.3,0-0.5c0-0.2,0-0.3,0.1-0.5c0-0.3,0.1-0.6,0.1-0.9c0.1-0.3,0.1-0.6,0.2-0.9c0-0.3,0.1-0.6,0.3-0.9
		c0-0.1,0.1-0.1,0.1-0.2s0.1-0.1,0.1-0.2c0.1-0.2,0.2-0.3,0.3-0.3c0.3-0.5,0.7-0.8,1.3-0.8C955.1,822.2,955.2,822.2,955.3,822.2
		 M964,831.5c0.1-0.2,0.3-0.4,0.4-0.6c0.2-0.3,0.2-0.6-0.1-0.9c-0.1-0.1-0.3-0.2-0.5-0.2c-0.2,0-0.3,0.1-0.5,0.2
		c-0.1,0.1-0.3,0.3-0.5,0.5c-0.2,0.2-0.3,0.3-0.5,0.5c-0.2,0.1-0.3,0.3-0.5,0.4c-0.2,0.1-0.3,0.3-0.5,0.4c-0.3,0.3-0.7,0.5-1.1,0.7
		c-0.4,0.2-0.7,0.4-1.1,0.6c-0.2,0.1-0.4,0.2-0.6,0.2c-0.2,0.1-0.4,0.1-0.5,0.2c-0.1,0.1-0.3,0.1-0.4,0.1c-0.1,0-0.3,0-0.4,0.1
		c0.1-0.2,0.1-0.3,0.2-0.5c0.1-0.2,0.1-0.3,0.2-0.5c0.2-0.5,0.4-0.9,0.5-1.4c0.1-0.4,0.3-0.9,0.4-1.4c0.3-0.9,0.5-1.8,0.6-2.9
		c0.1-0.5,0.2-1,0.2-1.5c0-0.5,0.1-1,0-1.5c0-0.3,0-0.6,0-0.8c0-0.3-0.1-0.5-0.1-0.8c-0.1-0.3-0.1-0.6-0.2-0.9
		c-0.1-0.3-0.2-0.6-0.4-0.9c-0.2-0.3-0.4-0.6-0.6-0.9c-0.3-0.3-0.6-0.5-0.9-0.7c-0.3-0.2-0.6-0.3-1-0.5c-0.2-0.1-0.4-0.1-0.6-0.1
		c-0.2,0-0.3,0-0.5-0.1c-0.6,0-1.1,0-1.6,0.1c-0.3-0.5-0.7-0.9-1.3-1.2c-0.5-0.3-1.1-0.4-1.8-0.4h0h-0.1c-0.1,0-0.1,0-0.1,0
		c0,0,0,0-0.1,0h-0.3l-0.6,0.1c-0.2,0.1-0.4,0.1-0.6,0.2c-0.2,0-0.4,0.1-0.5,0.2c-0.7,0.3-1.4,0.6-1.9,1c-0.6,0.4-1.1,0.8-1.5,1.2
		c-0.2,0.2-0.4,0.4-0.6,0.6c-0.2,0.2-0.4,0.4-0.6,0.7c-0.4,0.5-0.7,0.9-1,1.3c-0.3,0.4-0.6,0.9-0.8,1.4c-0.5,1-1,1.9-1.4,2.8
		c-0.4,1-0.8,2-1,2.9c-0.1,0.5-0.3,1-0.4,1.5c-0.1,0.5-0.2,1-0.3,1.5c-0.2,1-0.3,2.1-0.3,3.2c0,0.3,0,0.6,0,0.8c0,0.3,0,0.6,0.1,0.8
		c0.1,0.6,0.2,1.2,0.4,1.7c0.1,0.3,0.2,0.6,0.3,0.9c0.1,0.3,0.3,0.6,0.4,0.9c0.3,0.6,0.7,1.1,1.3,1.6c0.3,0.2,0.5,0.4,0.8,0.6
		c0.3,0.2,0.6,0.4,0.9,0.5c0.6,0.3,1.3,0.4,1.9,0.5c0.2,0,0.3,0,0.5,0c0.2,0,0.3,0,0.5,0c0.2,0,0.3,0,0.4,0h0h0h0.1h0.2
		c0.1,0,0.3-0.1,0.4-0.1c0.1,0,0.3,0,0.4-0.1c0.1,0,0.3-0.1,0.4-0.1c0.1,0,0.3-0.1,0.4-0.1c0.3-0.1,0.6-0.2,0.8-0.3
		c0.1-0.1,0.3-0.1,0.4-0.2c0.1,0,0.2-0.1,0.4-0.2c0.3-0.1,0.5-0.3,0.7-0.4c0.2-0.1,0.5-0.3,0.7-0.4c0.4-0.3,0.8-0.6,1.2-1
		c0.4-0.3,0.8-0.7,1.1-1.1c0.6-0.7,1.2-1.5,1.8-2.4l0.6-1h0.2c0.6,0,1.2-0.1,1.7-0.3c0.5-0.1,1-0.3,1.6-0.6c0.3-0.1,0.5-0.3,0.7-0.4
		c0.2-0.1,0.4-0.3,0.6-0.4c0.4-0.3,0.8-0.6,1.2-1c0.4-0.3,0.7-0.7,1-1.1c0.3-0.3,0.6-0.7,0.9-1.1C963.8,831.9,963.9,831.7,964,831.5
		 M916.3,822.7C916.3,822.7,916.3,822.7,916.3,822.7L916.3,822.7z M937.4,836.1c0.2-0.3,0.3-0.6,0.5-0.9c0.2-0.3,0.3-0.6,0.5-0.9
		c0.1-0.1,0.2-0.4,0.4-0.8c0.2-0.4,0.4-0.6,0.5-0.8l0.2-0.4c0.1-0.1,0.1-0.2,0.1-0.3c0-0.1,0-0.2,0.1-0.2c0.1-0.2,0.1-0.5-0.1-0.7
		c-0.3-0.2-0.6-0.2-0.8,0.1l-0.3,0.4l-0.3,0.4c-0.1,0.1-0.3,0.4-0.5,0.7c-0.2,0.3-0.4,0.6-0.6,0.7c-0.2,0.2-0.5,0.5-0.7,0.7
		c-0.2,0.3-0.4,0.5-0.7,0.7c-0.5,0.5-0.9,1-1.4,1.4c-0.5,0.5-0.9,0.9-1.4,1.3c-0.1,0.1-0.2,0.2-0.3,0.3c-0.1,0.1-0.2,0.2-0.4,0.3
		c-0.1,0.1-0.3,0.2-0.4,0.3c-0.1,0.1-0.2,0.2-0.4,0.3c-0.1,0.1-0.3,0.2-0.4,0.3c-0.1,0.1-0.2,0.2-0.3,0.3c-0.1,0.1-0.3,0.1-0.4,0.2
		c-0.1,0.1-0.2,0.1-0.4,0.2c-0.2,0.1-0.4,0.2-0.6,0.3c0,0,0-0.1,0-0.1c0,0,0,0,0-0.1c0-0.1,0.1-0.2,0.1-0.4c0-0.1,0.1-0.3,0.1-0.4
		s0.1-0.3,0.2-0.4c0-0.1,0.1-0.3,0.2-0.4c0.1-0.1,0.1-0.3,0.2-0.4c0.1-0.1,0.1-0.3,0.2-0.4c0.1-0.1,0.1-0.3,0.2-0.4
		c0.1-0.1,0.1-0.3,0.2-0.4c0.1-0.3,0.3-0.6,0.4-0.9c0.1-0.3,0.3-0.6,0.4-0.9c0.3-0.6,0.6-1.2,0.9-1.8c0.3-0.6,0.6-1.2,0.9-1.9
		c0.1-0.3,0.3-0.6,0.4-1s0.3-0.6,0.4-1c0.1-0.3,0.3-0.6,0.4-1c0.1-0.3,0.3-0.7,0.4-1c0.1-0.4,0.3-0.7,0.4-1.1
		c0.1-0.4,0.2-0.7,0.3-1.1c0.1-0.2,0.1-0.5,0.1-0.7c0-0.2,0.1-0.4,0.1-0.7c0-0.1,0-0.3,0-0.4c0-0.1,0-0.2,0-0.4v-0.4
		c0-0.1,0-0.3,0-0.5c0-0.3-0.1-0.7-0.2-1.2c0-0.1-0.1-0.2-0.1-0.3c0-0.1-0.1-0.2-0.1-0.4s-0.1-0.3-0.2-0.4c-0.1-0.1-0.2-0.2-0.3-0.4
		c-0.2-0.3-0.4-0.5-0.6-0.8c-0.3-0.2-0.6-0.4-0.9-0.6c-0.3-0.2-0.6-0.3-0.9-0.4c-0.1-0.1-0.3-0.1-0.4-0.1c-0.1,0-0.2,0-0.4-0.1
		c-0.2,0-0.3,0-0.3,0h-0.2h-0.2h0h0h0h-0.1c-0.1,0-0.1,0-0.3,0c-0.2,0-0.3,0.1-0.5,0.1c-0.2,0-0.3,0.1-0.5,0.1
		c-0.3,0.1-0.6,0.1-0.9,0.3c-0.3,0.1-0.5,0.2-0.7,0.4c-0.5,0.3-0.9,0.5-1.3,0.9c-0.2,0.1-0.3,0.3-0.5,0.5c-0.2,0.2-0.3,0.3-0.5,0.5
		c-0.5,0.6-1,1.3-1.4,2c-0.1,0.1-0.1,0.2-0.2,0.3c0,0.1-0.1,0.2-0.2,0.2l-0.3,0.5c-0.1,0.2-0.2,0.3-0.3,0.5
		c-0.1,0.2-0.2,0.3-0.3,0.5c-0.2,0.3-0.3,0.6-0.5,1s-0.3,0.6-0.5,1c-0.1,0.3-0.3,0.6-0.5,0.9c-0.2,0.3-0.3,0.6-0.5,0.9
		c0,0,0-0.1,0-0.2c0.1-0.3,0.1-0.5,0.2-0.8c0-0.3,0.1-0.5,0.2-0.8c0.1-0.3,0.1-0.5,0.1-0.8c0-0.3,0-0.6,0.1-0.9c0-0.1,0-0.3,0-0.5
		c0-0.2,0-0.3,0-0.5v-0.5c0-0.2,0-0.3,0-0.5c0-0.2-0.1-0.4-0.1-0.6c0-0.2-0.1-0.4-0.1-0.6c-0.1-0.5-0.4-1-0.7-1.5
		c-0.1-0.1-0.2-0.3-0.3-0.4c-0.1-0.1-0.2-0.2-0.4-0.4c-0.3-0.3-0.7-0.5-1-0.6c-0.3-0.1-0.7-0.2-1.1-0.3h-0.3h-0.1h-0.1h0h0h-0.1
		h-0.2c-0.3,0-0.5,0.1-0.9,0.2c-0.3,0.1-0.5,0.2-0.7,0.3c-0.2,0.1-0.4,0.3-0.5,0.4c-0.2,0.1-0.3,0.2-0.5,0.4
		c-0.1,0.1-0.1,0.1-0.2,0.2c-0.1,0.1-0.1,0.2-0.2,0.2c-0.1,0.1-0.2,0.2-0.3,0.4l-0.6,0.7l-0.3,0.3c-0.1,0.1-0.1,0.1-0.1,0.2
		s-0.1,0.1-0.1,0.2c-0.1,0.1-0.1,0.2-0.2,0.3c-0.1,0.1-0.2,0.2-0.2,0.3c-0.3,0.5-0.6,1-0.8,1.4c-0.1,0.2-0.3,0.5-0.4,0.7
		c-0.1,0.2-0.2,0.5-0.3,0.7c-0.2,0.5-0.4,1-0.6,1.4c-0.2,0.4-0.4,0.9-0.6,1.4c-0.1,0.2-0.2,0.5-0.3,0.7c-0.1,0.2-0.2,0.5-0.3,0.7
		c-0.2,0.4-0.4,0.9-0.6,1.4l1.8-9.7c0.1-0.5,0-1-0.3-1.5c-0.3-0.5-0.7-0.8-1.2-0.9c-0.6-0.1-1.1-0.1-1.6,0.2c-0.5,0.3-0.8,0.7-1,1.2
		l-5.7,20.8c0,0.1,0,0.1,0,0.2c0,0,0,0.1,0,0.2c-0.1,0.8,0,1.6,0.5,2.3c0.5,0.7,1.1,1.1,1.9,1.2c0.8,0.1,1.6,0,2.3-0.5
		c0.7-0.5,1.1-1.1,1.3-1.9l0-0.3v0l0.3-0.7c0.1-0.2,0.2-0.5,0.3-0.7c0.1-0.2,0.2-0.4,0.3-0.7c0.1-0.2,0.2-0.5,0.3-0.7
		c0.1-0.2,0.2-0.5,0.3-0.7c0.2-0.4,0.4-0.9,0.6-1.3c0.4-0.9,0.8-1.8,1.2-2.7c0.4-0.9,0.8-1.8,1.3-2.6c0.1-0.2,0.3-0.4,0.4-0.6
		c0.1-0.2,0.2-0.4,0.3-0.6c0.1-0.2,0.3-0.4,0.4-0.6c0.1-0.2,0.2-0.4,0.4-0.7c0.2-0.4,0.5-0.8,0.7-1.2c0.3-0.4,0.5-0.8,0.8-1.2
		c0.1-0.2,0.3-0.4,0.4-0.6c0.1-0.2,0.3-0.4,0.4-0.5c0.1-0.2,0.3-0.4,0.4-0.5c0.1-0.2,0.3-0.4,0.4-0.5c0.2-0.2,0.3-0.4,0.4-0.5
		c0.1-0.1,0.1-0.1,0.1-0.1c0,0,0-0.1,0.1-0.1c0-0.1,0.1-0.1,0.2-0.2v0.3c0,0.4,0,0.8-0.1,1.2c0,0.2-0.1,0.5-0.1,0.7
		c0,0.2-0.1,0.4-0.1,0.7c-0.1,0.5-0.2,0.9-0.3,1.4c-0.1,0.4-0.2,0.9-0.3,1.4c-0.2,0.9-0.5,1.8-0.7,2.8c-0.3,0.9-0.5,1.8-0.9,2.8
		l-0.9,2.7c-0.1,0.2-0.2,0.5-0.3,0.7s-0.2,0.5-0.3,0.7l-0.2,0.7l-0.1,0.3l-0.1,0.3v0c-0.3,0.7-0.3,1.3,0,1.9
		c0.3,0.6,0.7,1.1,1.4,1.3c0.7,0.3,1.3,0.3,2,0c0.7-0.3,1.1-0.8,1.4-1.4l0.1-0.3l0.1-0.4l0.3-0.7c0-0.1,0-0.1,0-0.1c0,0,0-0.1,0-0.1
		c0.1-0.1,0.1-0.2,0.2-0.3c0-0.1,0.1-0.2,0.2-0.3c0.1-0.3,0.3-0.6,0.4-0.9c0.1-0.3,0.3-0.6,0.4-0.9c0.3-0.6,0.6-1.2,1-1.8
		c0.3-0.6,0.6-1.2,1-1.8l1-1.7c0.2-0.3,0.4-0.6,0.5-0.8c0.2-0.3,0.4-0.6,0.5-0.8c0.4-0.5,0.8-1.1,1.2-1.6c0.4-0.5,0.8-1,1.2-1.5
		c0.2-0.2,0.4-0.5,0.6-0.7c0.2-0.2,0.5-0.5,0.7-0.7c0.2-0.2,0.5-0.4,0.7-0.6c0.1-0.1,0.2-0.2,0.4-0.3l0.4-0.3
		c0.1-0.1,0.2-0.1,0.5-0.3l0,0.1c-0.1,0.3-0.2,0.6-0.3,0.9c-0.1,0.3-0.2,0.6-0.3,0.9c-0.1,0.3-0.2,0.6-0.3,0.9
		c-0.1,0.3-0.2,0.6-0.3,0.9c-0.2,0.7-0.4,1.3-0.6,2c-0.2,0.6-0.4,1.3-0.6,2c-0.1,0.3-0.2,0.6-0.3,1l-0.3,1c-0.1,0.2-0.1,0.3-0.2,0.5
		c0,0.2-0.1,0.3-0.1,0.5c-0.1,0.2-0.1,0.4-0.1,0.5c0,0.2-0.1,0.4-0.1,0.5c-0.1,0.2-0.1,0.4-0.1,0.6c0,0.2-0.1,0.4-0.1,0.6
		c0,0.2-0.1,0.4-0.1,0.6c0,0.2,0,0.4-0.1,0.6v0.7v0.4c0,0.1,0,0.2,0,0.4c0,0.1,0.1,0.3,0.1,0.4c0,0.1,0.1,0.3,0.1,0.5
		c0.1,0.3,0.2,0.7,0.5,1c0.1,0.1,0.1,0.2,0.2,0.3c0.1,0.1,0.2,0.2,0.2,0.3c0.1,0.1,0.2,0.2,0.3,0.2c0.1,0.1,0.2,0.1,0.3,0.2
		c0.2,0.1,0.4,0.3,0.6,0.3c0.1,0,0.2,0.1,0.3,0.1c0.1,0,0.2,0,0.3,0c0.1,0,0.2,0,0.3,0s0.2,0,0.3,0h0.3l0.1,0h0.1h0.1h0h0.1
		c0.1,0,0.1,0,0.1,0c0,0,0.1,0,0.1,0c0.1,0,0.3,0,0.4-0.1c0.3-0.1,0.5-0.1,0.7-0.2c0.2-0.1,0.4-0.2,0.6-0.3c0.2-0.1,0.4-0.2,0.6-0.3
		c0.2-0.1,0.4-0.2,0.5-0.4c0.3-0.2,0.6-0.5,0.9-0.8c0.3-0.3,0.6-0.5,0.8-0.8c0.1-0.1,0.2-0.3,0.3-0.4c0.1-0.1,0.2-0.3,0.3-0.4
		c0.1-0.1,0.3-0.3,0.4-0.4c0.1-0.1,0.2-0.3,0.3-0.4c0.2-0.3,0.4-0.6,0.6-0.9c0.2-0.3,0.4-0.6,0.6-0.9
		C936.7,837.3,937.1,836.7,937.4,836.1"/>
	<path fill="#A1C517" d="M878.2,812.7c-0.1,0.2,0,0.3,0,0.5c0.1,0.2,0.2,0.3,0.4,0.4c0.2,0.1,0.4,0.1,0.6,0l13.9-5.2
		c0.2-0.1,0.4-0.2,0.6-0.3c0.7-0.5,1.1-1.1,1.2-1.8c0.1-0.7-0.1-1.4-0.5-2c-0.4-0.6-1-1-1.7-1.1c-0.7-0.1-1.4,0-2.1,0.5l-12.1,8.6
		C878.4,812.4,878.3,812.6,878.2,812.7 M880.9,823.9c0.2-0.3,0.5-0.5,0.7-0.7c0.2-0.2,0.5-0.4,0.9-0.6c0.6-0.4,1.2-0.6,1.9-0.7
		c0.3-0.1,0.6-0.1,1,0c0.1,0,0.3,0.1,0.5,0.1c0.2,0,0.3,0.1,0.5,0.1c0.3,0.1,0.5,0.2,0.7,0.3c0.1,0.1,0.2,0.1,0.3,0.2
		c0.1,0.1,0.1,0.1,0.2,0.2c0.1,0.1,0.1,0.3,0.1,0.3c0,0.1,0,0.1,0,0.2s0,0.2,0,0.2c0,0.1,0,0.1,0,0.2c0,0.1,0,0.2,0,0.3
		c0,0.1,0,0.2,0,0.3c0,0.1,0,0.2,0,0.4v0.4c0,0.1,0,0.2,0,0.4c0,0.1,0,0.3,0,0.4c0,0.1-0.1,0.3-0.1,0.4c-0.1,0.3-0.1,0.6-0.2,0.8
		c-0.1,0.3-0.2,0.5-0.3,0.8c-0.1,0.3-0.2,0.5-0.4,0.7c-0.1,0.1-0.1,0.2-0.2,0.3c-0.1,0.1-0.1,0.2-0.2,0.2c-0.1,0.1-0.1,0.1-0.1,0.1
		c0,0-0.1,0.1-0.1,0.1l0,0l0,0c0,0-0.1,0-0.1,0.1c0,0-0.1,0-0.1,0.1c-0.1,0.1-0.3,0.2-0.4,0.3c-0.1,0.1-0.3,0.2-0.4,0.3
		c-0.3,0.1-0.6,0.3-0.8,0.4c-0.3,0.1-0.6,0.2-0.8,0.3c-0.5,0.2-1.2,0.2-1.8,0.2c-0.1,0-0.2,0-0.2,0c-0.1,0-0.2,0-0.2,0
		c-0.1,0-0.1,0-0.1,0c0,0-0.1,0-0.1,0c-0.1,0-0.1,0-0.1,0c0,0-0.1,0-0.1,0c-0.4-0.1-0.7-0.2-1-0.4c-0.3-0.2-0.7-0.4-1-0.6l0,0
		c0.1-0.8,0.2-1.4,0.4-2c0.1-0.3,0.2-0.7,0.4-1c0.1-0.3,0.3-0.7,0.5-1C880,825.2,880.4,824.6,880.9,823.9 M899,833.2
		c0.3-0.3,0.4-0.5,0.6-0.7c0.1-0.1,0.1-0.2,0.2-0.2c0.1-0.1,0.1-0.2,0.2-0.2l0.2-0.3l0.1-0.1l0.1-0.1c0.2-0.3,0.2-0.6-0.1-0.8
		c-0.3-0.3-0.6-0.2-0.9,0l-0.2,0.2l-0.2,0.2c-0.1,0.1-0.3,0.2-0.4,0.4c-0.1,0.1-0.4,0.3-0.7,0.6c-0.3,0.2-0.5,0.4-0.6,0.6
		c-0.1,0.1-0.3,0.3-0.5,0.4c-0.2,0.1-0.3,0.3-0.5,0.4c-0.1,0.1-0.3,0.3-0.5,0.4c-0.2,0.1-0.3,0.2-0.5,0.3c-0.6,0.5-1.2,1-1.9,1.4
		c-0.6,0.4-1.3,0.8-2,1.2c-0.3,0.2-0.6,0.3-1,0.5c-0.3,0.2-0.7,0.3-1,0.5c-0.3,0.1-0.7,0.3-1,0.4c-0.3,0.1-0.7,0.2-1,0.3
		c-0.7,0.1-1.4,0.2-2.1,0.3c-0.3,0.1-0.6,0.1-1,0c-0.1,0-0.3,0-0.5,0c-0.2,0-0.3,0-0.5,0c-0.3-0.1-0.6-0.1-0.9-0.2
		c-0.3,0-0.5-0.1-0.7-0.2c-0.2-0.1-0.4-0.1-0.6-0.2c-0.2-0.1-0.4-0.2-0.5-0.3c-0.2-0.1-0.3-0.2-0.5-0.3c-0.1-0.1-0.3-0.3-0.4-0.5
		c-0.3-0.3-0.6-0.8-0.8-1.3c-0.1-0.3-0.2-0.5-0.3-0.8s-0.2-0.6-0.2-0.9c-0.1-0.3-0.1-0.6-0.2-1c0-0.3-0.1-0.7-0.1-1.1v-0.7
		c0,0,0,0.1,0,0.1s0,0.1,0,0.1c0.1,0.2,0.3,0.4,0.4,0.6c0.1,0.2,0.3,0.3,0.4,0.5c0.1,0.1,0.2,0.2,0.3,0.3c0.1,0.1,0.2,0.2,0.3,0.2
		c0.1,0.1,0.2,0.2,0.3,0.2c0.1,0.1,0.2,0.1,0.3,0.2c0.4,0.3,0.9,0.5,1.4,0.6c0.1,0.1,0.3,0.1,0.4,0.1c0.1,0,0.2,0.1,0.4,0.1l0.8,0.1
		c1,0.1,2,0,3-0.2c0.5-0.1,1-0.2,1.4-0.4c0.2-0.1,0.3-0.1,0.3-0.1c0,0,0.1,0,0.1,0l0.1,0c0.1-0.1,0.2-0.1,0.2-0.1
		c0.3-0.2,0.5-0.3,0.8-0.5c0.5-0.3,0.9-0.7,1.3-1.1c0.4-0.4,0.7-0.8,1-1.3c0.3-0.4,0.6-0.9,0.8-1.3c0.2-0.5,0.4-0.9,0.6-1.4
		c0.1-0.2,0.1-0.5,0.2-0.7c0.1-0.2,0.1-0.5,0.2-0.8c0.1-0.5,0.1-1.1,0.1-1.6c0-0.5,0-1.1-0.1-1.7c-0.1-0.5-0.3-1.1-0.6-1.7
		c-0.3-0.7-0.7-1.2-1.2-1.6c-0.5-0.5-1-0.8-1.7-1.1c-0.3-0.1-0.6-0.2-0.9-0.3c-0.3-0.1-0.6-0.1-0.9-0.1c-0.3-0.1-0.6-0.1-0.8-0.1
		c-0.3,0-0.5,0.1-0.8,0.1c-0.3,0.1-0.5,0.1-0.8,0.2c-0.2,0.1-0.5,0.1-0.7,0.2c-0.5,0.2-1,0.4-1.3,0.6c-0.4,0.2-0.8,0.4-1.2,0.7
		c-0.4,0.2-0.8,0.5-1.1,0.8c-0.2,0.1-0.3,0.3-0.5,0.4c-0.2,0.1-0.3,0.3-0.5,0.4c-0.1,0.1-0.3,0.3-0.5,0.5c-0.2,0.2-0.3,0.3-0.5,0.5
		c-0.3,0.3-0.6,0.6-0.9,1c-0.3,0.3-0.5,0.7-0.8,1c-0.3,0.3-0.5,0.7-0.7,1.1c-0.2,0.4-0.4,0.7-0.6,1.1c-0.9,1.6-1.6,3.2-2,4.9
		c-0.1,0.4-0.2,0.9-0.3,1.3s-0.1,0.9-0.2,1.4c0,0.5,0,1,0,1.5c0,0.5,0.1,1,0.2,1.5c0.1,0.5,0.2,1,0.4,1.6c0.1,0.3,0.2,0.5,0.3,0.8
		c0.1,0.3,0.2,0.5,0.4,0.7c0.1,0.2,0.3,0.5,0.5,0.7c0.2,0.2,0.4,0.5,0.6,0.7c0.4,0.5,0.9,0.9,1.3,1.2c0.3,0.2,0.5,0.3,0.8,0.5
		c0.3,0.1,0.5,0.3,0.8,0.4c0.5,0.3,1.1,0.4,1.6,0.5c0.5,0.1,1,0.2,1.6,0.2h0.8c0.3,0,0.5,0,0.7-0.1c0.3-0.1,0.5-0.1,0.8-0.2
		c0.2,0,0.5-0.1,0.7-0.2c0.2-0.1,0.5-0.1,0.7-0.2s0.5-0.2,0.7-0.3c0.8-0.3,1.6-0.7,2.5-1.3c0.8-0.4,1.5-0.9,2.2-1.4
		c0.4-0.3,0.7-0.5,1.1-0.8c0.3-0.3,0.7-0.5,1-0.8c0.7-0.6,1.3-1.1,1.9-1.7c0.6-0.6,1.1-1.2,1.7-1.8c0.3-0.3,0.5-0.6,0.8-1
		c0.3-0.3,0.5-0.6,0.8-1C898.5,833.8,898.8,833.5,899,833.2"/>
</g>
<g>
	<path fill="#A1C517" d="M848.3,852.3c-30.5,48.2-84.1,80.3-145.4,80.3c-85.3,0-155.9-62.1-169.5-143.5
		c-29.9-0.5-58.8-5.1-86.3-13.1c15,14.2,24.5,34.6,24.5,57.4c0,42.7-33.1,77.4-73.8,77.4c-40.8,0-73.8-34.6-73.8-77.4
		c0-42.1,32.1-76.2,72-77.3c-27.3-13.3-52.4-30.4-74.8-50.4c-19.9,43.1-61.9,72.8-110.6,72.8c-43.8,0-82.1-24-103.9-60.1
		c-3.8,17.1-18.4,29.8-35.8,29.8c-20.4,0-36.9-17.3-36.9-38.7c0-21.4,16.5-38.7,36.9-38.7c7.2,0,13.9,2.2,19.5,6
		c-1.8-8.8-2.8-17.9-2.8-27.2c0-10.3,1.3-20.2,3.4-29.8C57.2,609.2,26.4,592.1,0,569.9V1000h1000v-95.4c-2.9,0.1-5.8,0.2-8.8,0.2
		C936.7,904.8,886.9,885,848.3,852.3z M296.5,971.3c-20.4,0-36.9-17.3-36.9-38.7c0-21.4,16.5-38.7,36.9-38.7
		c20.4,0,36.9,17.3,36.9,38.7C333.5,954,316.9,971.3,296.5,971.3z"/>
	<path fill="#A1C517" d="M367.5,183.4c50-30.9,108.8-48.8,171.9-48.8c27.5,0,54.2,3.4,79.7,9.8c-0.2-2.4-0.3-4.7-0.3-7.2
		c0-42.7,33.1-77.4,73.8-77.4c40.8,0,73.8,34.6,73.8,77.4c0,25.8-12.1,48.7-30.7,62.7c22,16.5,41.8,35.8,59,57.2
		c34.6-26.6,77.8-42.5,124.8-42.5c28.6,0,55.7,5.8,80.5,16.4V0H0v160.1c46.4-38.9,106.3-62.4,171.6-62.4
		C249,97.8,318.7,130.7,367.5,183.4z M833.9,38c20.4,0,36.9,17.3,36.9,38.7c0,21.4-16.5,38.7-36.9,38.7c-20.4,0-36.9-17.3-36.9-38.7
		C797,55.3,813.5,38,833.9,38z"/>
</g>
</svg>
